<svg width="116" height="131" viewBox="0 0 116 131" fill="none" xmlns="http://www.w3.org/2000/svg">
<path fill-rule="evenodd" clip-rule="evenodd" d="M46.9812 18.9859C58.1865 20.0694 69.0616 20.9079 78.496 28.3848C90.9531 38.2573 107.478 48.7871 107.5 66.9481C107.522 85.1115 89.8164 93.7444 78.5878 105.624C68.6815 116.104 60.0627 131.716 46.9812 130.975C34.1088 130.245 26.6579 114.067 18.1729 102.2C10.5442 91.5298 2.6235 81.0184 1.20405 66.9481C-0.407938 50.9694 0.0643736 32.2387 10.0586 21.7674C19.7957 11.5655 34.2024 17.7503 46.9812 18.9859Z" fill="#F5F5F5"/>
<path fill-rule="evenodd" clip-rule="evenodd" d="M54.9812 3.98593C66.1865 5.06941 77.0616 5.90791 86.496 13.3848C98.9531 23.2573 115.478 33.7871 115.5 51.9481C115.522 70.1115 97.8164 78.7444 86.5878 90.6238C76.6815 101.104 68.0627 116.716 54.9812 115.975C42.1088 115.245 34.6579 99.0673 26.1729 87.1997C18.5442 76.5298 10.6235 66.0184 9.20405 51.9481C7.59206 35.9694 8.06437 17.2387 18.0586 6.76739C27.7957 -3.43448 42.2024 2.7503 54.9812 3.98593Z" stroke="#F5F5F5"/>
<path d="M78.5 63.9999V83.9999H46.5V63.9999H78.5ZM68 75.4453C68 74.5091 67.5571 73.6089 66.7446 72.8818L62.5 68.5454L58.7554 72.8818C57.9429 73.6089 57.5 74.5091 57.5 75.4453C57.5 77.6634 58.5451 79.9999 61.5481 79.9999H63C64.5018 79.9999 66.0817 79.0088 67.0661 78.2817C68.0505 77.5546 68 76.5545 68 75.4453Z" fill="#34CB79"/>
<path d="M46.3065 58.7097V66.9057C43.6846 66.5549 43.3438 64.9032 40.1029 64.9032C36.49 64.9032 36.49 66.9677 32.8771 66.9677C29.6871 66.9677 29.3156 65.3573 26.7864 64.9859C26.9416 62.8594 27.3025 60.7535 27.86 58.7097H46.3065Z" fill="#34CB79"/>
<path d="M46.3065 88.6451V90.7096H26.1875C26.2187 90.6376 26.2495 90.565 26.2807 90.503L27.0237 89.0272C28.1593 86.7354 28.7581 84.2167 28.7581 81.6567C28.7581 80.1804 28.5514 78.7147 28.1699 77.2903H28.1593C28.1593 77.2389 28.1386 77.187 28.1285 77.1356L27.9839 76.6401C27.437 74.7197 27.0549 72.7585 26.745 69.1043H26.7555C29.3155 69.4763 29.6769 71.0967 32.877 71.0967C36.4899 71.0967 36.4899 69.0322 40.1028 69.0322C43.3438 69.0322 43.6845 70.6839 46.3065 71.0347V88.6451Z" fill="#34CB79"/>
<mask id="path-6-inside-1_13_84" fill="white">
<path d="M77.481 52.9289L72.113 48.9032V44.2581H74.1775V39.0968C74.1775 37.3896 72.7879 36 71.0808 36H54.5646C52.8575 36 51.4679 37.3896 51.4679 39.0968V44.2581H53.5324V48.9032L48.1644 52.9289C47.929 53.1053 47.7073 53.2964 47.4976 53.499C46.794 51.9007 45.9679 50.3558 45.0329 48.8856L43.2098 46.0222V44.2581H45.2743V39.0968C45.2743 37.3896 43.8847 36 42.1775 36H33.9195C32.2123 36 30.8227 37.3896 30.8227 39.0968V44.2581H32.8872V46.0222L31.0611 48.8906C27.5288 54.4425 25.6614 60.8558 25.6614 67.4355C25.6614 70.6457 26.1085 73.8382 26.991 76.9259L27.1322 77.4204C27.5268 78.8004 27.7259 80.2273 27.7259 81.6608C27.7259 84.0444 27.1624 86.4309 26.0959 88.5635L25.355 90.0469C24.8802 90.9955 24.6292 92.06 24.6292 93.122C24.6292 96.9148 27.7143 100 31.5072 100H32.4598C33.678 100 34.8217 99.5262 35.6826 98.6653C36.1523 98.1946 36.7778 97.9355 37.4437 97.9355H38.6533C39.3192 97.9355 39.9447 98.1946 40.4154 98.6653C41.2753 99.5262 42.419 100 43.6372 100H44.5898C45.9895 100 47.3328 99.5539 48.4724 98.7697C49.6241 99.5459 51.0097 100 52.5001 100H73.1453C77.1297 100 80.3711 96.7576 80.3711 92.7742V58.7097C80.3711 56.4471 79.2904 54.2863 77.481 52.9289ZM78.3066 60.7742V91.7419H47.3388V89.6774V87.6129V58.7097C47.3388 57.9914 47.4986 57.2903 47.7819 56.6452H77.8625C78.1468 57.2903 78.3066 57.9914 78.3066 58.7097V60.7742ZM27.7259 67.4355C27.7259 67.0625 27.7526 66.692 27.7652 66.3206C28.11 66.4662 28.4225 66.6426 28.7562 66.8327C29.7148 67.3795 30.801 67.999 32.8802 67.999C34.9598 67.999 36.046 67.3785 37.0047 66.8306C37.8464 66.3503 38.5727 65.9355 40.105 65.9355C41.6387 65.9355 42.3655 66.3503 43.2078 66.8327C43.7773 67.1578 44.4094 67.5146 45.2733 67.748V69.7011C44.9079 69.5514 44.5808 69.3679 44.2305 69.1683C43.2738 68.6205 42.1866 68 40.105 68C38.0248 68 36.9386 68.6205 35.98 69.1683C35.1387 69.6497 34.4129 70.0645 32.8802 70.0645C31.3479 70.0645 30.6216 69.6507 29.7778 69.1694C29.2174 68.8498 28.5959 68.5005 27.7547 68.2671C27.7476 67.9899 27.7259 67.7132 27.7259 67.4355ZM53.5324 39.0968C53.5324 38.5282 53.9961 38.0645 54.5646 38.0645H71.0808C71.6493 38.0645 72.113 38.5282 72.113 39.0968V42.1935H53.5324V39.0968ZM70.0485 44.2581V48.3871H55.5969V44.2581H70.0485ZM54.9084 50.4516H70.736L76.241 54.5806H49.4033L54.9084 50.4516ZM32.8872 39.0968C32.8872 38.5282 33.3509 38.0645 33.9195 38.0645H42.1775C42.7461 38.0645 43.2098 38.5282 43.2098 39.0968V42.1935H32.8872V39.0968ZM32.8035 49.9995L34.9517 46.623V44.2581H41.1453V46.624L43.2914 49.9955C44.3847 51.7132 45.3116 53.5444 46.0641 55.4395C45.554 56.443 45.2743 57.563 45.2743 58.7097V65.5721C44.9089 65.4224 44.5818 65.2389 44.232 65.0393C43.2738 64.4914 42.1866 63.871 40.105 63.871C38.0248 63.871 36.9386 64.4914 35.98 65.0393C35.1387 65.5207 34.4129 65.9355 32.8802 65.9355C31.3489 65.9355 30.6216 65.5207 29.7804 65.0393C29.2547 64.7399 28.6725 64.4138 27.9084 64.1825C28.4134 59.1492 30.0672 54.2989 32.8035 49.9995ZM43.6372 97.9355C42.9714 97.9355 42.3459 97.6764 41.8751 97.2056C41.0152 96.3448 39.8716 95.871 38.6533 95.871H37.4437C36.2254 95.871 35.0818 96.3448 34.2209 97.2056C33.7511 97.6764 33.1256 97.9355 32.4598 97.9355H31.5072C28.8529 97.9355 26.6937 95.7762 26.6937 93.122C26.6937 92.379 26.8691 91.6346 27.2017 90.9698L27.9427 89.4864C29.1513 87.0701 29.7904 84.3644 29.7904 81.6608C29.7904 80.5388 29.675 79.4219 29.4613 78.3226L28.9502 76.2581C28.4185 74.376 28.0737 72.4511 27.8902 70.5096C28.1861 70.6436 28.4638 70.7964 28.7562 70.9627C29.7148 71.5086 30.801 72.129 32.8802 72.129C34.9598 72.129 36.046 71.5076 37.0047 70.9607C37.8464 70.4793 38.5727 70.0645 40.105 70.0645C41.6387 70.0645 42.3655 70.4793 43.2078 70.9607C43.7773 71.2868 44.4094 71.6436 45.2733 71.877V92.7742C45.2733 94.5 45.8832 96.0857 46.8968 97.3296C46.1952 97.7167 45.4064 97.9355 44.5898 97.9355H43.6372ZM73.1453 97.9355H52.5001C50.0082 97.9355 47.923 96.1588 47.4432 93.8064H78.2022C77.7224 96.1588 75.6372 97.9355 73.1453 97.9355Z"/>
</mask>
<path d="M77.481 52.9289L72.113 48.9032V44.2581H74.1775V39.0968C74.1775 37.3896 72.7879 36 71.0808 36H54.5646C52.8575 36 51.4679 37.3896 51.4679 39.0968V44.2581H53.5324V48.9032L48.1644 52.9289C47.929 53.1053 47.7073 53.2964 47.4976 53.499C46.794 51.9007 45.9679 50.3558 45.0329 48.8856L43.2098 46.0222V44.2581H45.2743V39.0968C45.2743 37.3896 43.8847 36 42.1775 36H33.9195C32.2123 36 30.8227 37.3896 30.8227 39.0968V44.2581H32.8872V46.0222L31.0611 48.8906C27.5288 54.4425 25.6614 60.8558 25.6614 67.4355C25.6614 70.6457 26.1085 73.8382 26.991 76.9259L27.1322 77.4204C27.5268 78.8004 27.7259 80.2273 27.7259 81.6608C27.7259 84.0444 27.1624 86.4309 26.0959 88.5635L25.355 90.0469C24.8802 90.9955 24.6292 92.06 24.6292 93.122C24.6292 96.9148 27.7143 100 31.5072 100H32.4598C33.678 100 34.8217 99.5262 35.6826 98.6653C36.1523 98.1946 36.7778 97.9355 37.4437 97.9355H38.6533C39.3192 97.9355 39.9447 98.1946 40.4154 98.6653C41.2753 99.5262 42.419 100 43.6372 100H44.5898C45.9895 100 47.3328 99.5539 48.4724 98.7697C49.6241 99.5459 51.0097 100 52.5001 100H73.1453C77.1297 100 80.3711 96.7576 80.3711 92.7742V58.7097C80.3711 56.4471 79.2904 54.2863 77.481 52.9289ZM78.3066 60.7742V91.7419H47.3388V89.6774V87.6129V58.7097C47.3388 57.9914 47.4986 57.2903 47.7819 56.6452H77.8625C78.1468 57.2903 78.3066 57.9914 78.3066 58.7097V60.7742ZM27.7259 67.4355C27.7259 67.0625 27.7526 66.692 27.7652 66.3206C28.11 66.4662 28.4225 66.6426 28.7562 66.8327C29.7148 67.3795 30.801 67.999 32.8802 67.999C34.9598 67.999 36.046 67.3785 37.0047 66.8306C37.8464 66.3503 38.5727 65.9355 40.105 65.9355C41.6387 65.9355 42.3655 66.3503 43.2078 66.8327C43.7773 67.1578 44.4094 67.5146 45.2733 67.748V69.7011C44.9079 69.5514 44.5808 69.3679 44.2305 69.1683C43.2738 68.6205 42.1866 68 40.105 68C38.0248 68 36.9386 68.6205 35.98 69.1683C35.1387 69.6497 34.4129 70.0645 32.8802 70.0645C31.3479 70.0645 30.6216 69.6507 29.7778 69.1694C29.2174 68.8498 28.5959 68.5005 27.7547 68.2671C27.7476 67.9899 27.7259 67.7132 27.7259 67.4355ZM53.5324 39.0968C53.5324 38.5282 53.9961 38.0645 54.5646 38.0645H71.0808C71.6493 38.0645 72.113 38.5282 72.113 39.0968V42.1935H53.5324V39.0968ZM70.0485 44.2581V48.3871H55.5969V44.2581H70.0485ZM54.9084 50.4516H70.736L76.241 54.5806H49.4033L54.9084 50.4516ZM32.8872 39.0968C32.8872 38.5282 33.3509 38.0645 33.9195 38.0645H42.1775C42.7461 38.0645 43.2098 38.5282 43.2098 39.0968V42.1935H32.8872V39.0968ZM32.8035 49.9995L34.9517 46.623V44.2581H41.1453V46.624L43.2914 49.9955C44.3847 51.7132 45.3116 53.5444 46.0641 55.4395C45.554 56.443 45.2743 57.563 45.2743 58.7097V65.5721C44.9089 65.4224 44.5818 65.2389 44.232 65.0393C43.2738 64.4914 42.1866 63.871 40.105 63.871C38.0248 63.871 36.9386 64.4914 35.98 65.0393C35.1387 65.5207 34.4129 65.9355 32.8802 65.9355C31.3489 65.9355 30.6216 65.5207 29.7804 65.0393C29.2547 64.7399 28.6725 64.4138 27.9084 64.1825C28.4134 59.1492 30.0672 54.2989 32.8035 49.9995ZM43.6372 97.9355C42.9714 97.9355 42.3459 97.6764 41.8751 97.2056C41.0152 96.3448 39.8716 95.871 38.6533 95.871H37.4437C36.2254 95.871 35.0818 96.3448 34.2209 97.2056C33.7511 97.6764 33.1256 97.9355 32.4598 97.9355H31.5072C28.8529 97.9355 26.6937 95.7762 26.6937 93.122C26.6937 92.379 26.8691 91.6346 27.2017 90.9698L27.9427 89.4864C29.1513 87.0701 29.7904 84.3644 29.7904 81.6608C29.7904 80.5388 29.675 79.4219 29.4613 78.3226L28.9502 76.2581C28.4185 74.376 28.0737 72.4511 27.8902 70.5096C28.1861 70.6436 28.4638 70.7964 28.7562 70.9627C29.7148 71.5086 30.801 72.129 32.8802 72.129C34.9598 72.129 36.046 71.5076 37.0047 70.9607C37.8464 70.4793 38.5727 70.0645 40.105 70.0645C41.6387 70.0645 42.3655 70.4793 43.2078 70.9607C43.7773 71.2868 44.4094 71.6436 45.2733 71.877V92.7742C45.2733 94.5 45.8832 96.0857 46.8968 97.3296C46.1952 97.7167 45.4064 97.9355 44.5898 97.9355H43.6372ZM73.1453 97.9355H52.5001C50.0082 97.9355 47.923 96.1588 47.4432 93.8064H78.2022C77.7224 96.1588 75.6372 97.9355 73.1453 97.9355Z" fill="black" stroke="black" stroke-width="2" mask="url(#path-6-inside-1_13_84)"/>
<path d="M63.2069 69.2923L62.8228 68.8313L62.4386 69.2923L59.1244 73.2692C58.5232 73.9891 58.1937 74.9026 58.1937 75.8402C58.1937 78.055 59.9948 79.8548 62.2093 79.8548H63.4371C65.6507 79.8548 67.4517 78.0549 67.4517 75.8402C67.4517 74.9027 67.1222 73.9892 66.52 73.2692C66.5199 73.2691 66.5198 73.269 66.5197 73.2688L63.2069 69.2923ZM63.4361 80.9193H62.2083C59.4083 80.9193 57.1292 78.6402 57.1292 75.8402C57.1292 74.6542 57.5473 73.4989 58.3056 72.5882C58.3056 72.5882 58.3057 72.5881 58.3057 72.5881L62.8227 67.1685L67.3386 72.5869C67.3386 72.587 67.3386 72.587 67.3387 72.5871C68.0982 73.4999 68.5162 74.6544 68.5162 75.8402C68.5162 78.6401 66.2371 80.9193 63.4361 80.9193Z" fill="black" stroke="black"/>
</svg>
