<svg width="461" height="511" viewBox="0 0 461 511" fill="none" xmlns="http://www.w3.org/2000/svg">
<path d="M224.033 465C100.303 465 -8.86345e-05 475.297 -8.96728e-05 488C-9.0711e-05 500.703 100.303 511 224.033 511C347.763 511 448.065 500.703 448.065 488C448.065 475.297 347.763 465 224.033 465Z" fill="#F0F0F5"/>
<path d="M426.822 398.817C426.822 398.817 395.036 491.056 391.631 491.056C388.225 491.056 320.114 512.963 380.279 485.291C380.279 485.291 387.09 384.981 397.307 380.369C407.524 375.758 426.822 398.817 426.822 398.817Z" fill="#965450"/>
<path d="M402.983 465.229C413.313 437.903 426.822 398.817 426.822 398.817C426.822 398.817 407.524 375.758 397.307 380.369C390.723 383.367 385.501 426.489 382.663 456.466C389.474 459.234 396.172 462.231 402.983 465.229Z" fill="#76413B"/>
<path d="M370.403 490.249C370.403 490.249 367.792 496.36 392.766 489.903L391.631 493.362C391.631 493.362 321.249 510.196 370.403 490.249Z" fill="#051F38"/>
<path d="M407.523 359.731C407.523 359.731 456.677 443.784 454.52 446.436C452.363 449.087 425.119 516.191 442.828 451.509C442.828 451.509 371.537 381.753 374.602 370.8C377.781 359.962 407.523 359.731 407.523 359.731Z" fill="#965450"/>
<path d="M440.331 462.347C440.331 462.347 443.282 468.342 454.407 444.706L456.337 447.819C456.224 447.819 423.757 513.539 440.331 462.347Z" fill="#051F38"/>
<path d="M436.131 409.771C422.962 386.134 407.524 359.731 407.524 359.731C407.524 359.731 377.782 359.962 374.603 370.8C372.56 377.833 401.848 409.655 422.622 431.101C422.735 431.216 430.795 422.108 436.131 409.771Z" fill="#76413B"/>
<path d="M438.74 233.364C438.74 233.364 408.658 199.351 391.062 220.681C373.467 242.011 346.222 312.343 350.195 341.168C352.579 358.117 368.585 376.219 381.413 388.325L370.629 450.125C370.629 450.125 414.901 462.231 412.063 462.231C410.361 462.231 455.768 338.286 460.309 299.084C464.85 259.883 438.74 233.364 438.74 233.364Z" fill="#8257E6"/>
<path opacity="0.2" d="M415.697 240.974C424.097 240.858 433.293 239.705 441.352 236.362C439.763 234.402 438.741 233.364 438.741 233.364C438.741 233.364 408.659 199.351 391.063 220.681C388.339 224.025 385.387 228.406 382.436 233.71C392.312 239.244 404.799 241.204 415.697 240.974Z" fill="#352C38"/>
<path opacity="0.2" d="M370.63 257.461C358.143 286.401 347.585 322.374 350.196 341.053C352.467 357.886 368.359 375.873 381.187 387.979C385.728 356.618 394.015 313.035 399.01 287.9C386.636 280.752 376.419 270.49 370.63 257.461Z" fill="#352C38"/>
<path d="M351.899 165.337L333.736 201.08C333.736 201.08 301.95 183.208 297.41 183.208C292.869 183.208 271.3 183.785 281.517 188.397C281.517 188.397 276.976 191.279 282.084 192.432C282.084 192.432 277.544 196.468 283.22 197.044L296.274 196.468C296.274 196.468 322.384 220.68 335.439 224.139C348.493 227.598 369.495 182.632 369.495 182.632L351.899 165.337Z" fill="#965450"/>
<path d="M354.851 190.934C357.689 191.972 360.64 193.01 363.592 194.047C367.224 187.591 369.495 182.517 369.495 182.517L351.899 165.223L341.909 184.823C345.882 187.36 350.31 189.32 354.851 190.934Z" fill="#76413B"/>
<path d="M374.602 148.043C374.602 148.043 357.574 145.161 351.331 154.385C345.087 163.608 342.249 178.597 342.249 178.597L366.656 190.704L374.602 148.043Z" fill="#34CB79"/>
<path opacity="0.1" d="M365.181 180.673C358.938 175.715 351.786 169.489 347.132 161.994C343.726 170.065 342.137 178.482 342.137 178.482L366.543 190.588L368.019 182.748C367.111 182.172 366.089 181.48 365.181 180.673Z" fill="#161826"/>
<path d="M255.18 178.943C255.862 180.788 254.84 182.863 253.024 183.555L239.628 188.513C237.812 189.205 235.769 188.167 235.087 186.322L229.752 171.218C229.071 169.373 230.093 167.298 231.909 166.606L245.304 161.648C247.121 160.957 249.164 161.994 249.845 163.839L255.18 178.943Z" fill="#23173B"/>
<path d="M265.965 167.644L223.962 182.979C216.584 185.63 212.838 193.932 215.448 201.426L228.39 237.976C231.001 245.47 239.174 249.275 246.553 246.623L288.555 231.289C295.934 228.637 299.68 220.335 297.069 212.841L284.128 176.291C281.403 168.797 273.343 164.877 265.965 167.644ZM292.982 216.185C294.004 219.182 292.528 222.526 289.577 223.564L271.527 172.832C274.479 171.795 277.771 173.294 278.792 176.291L292.982 216.185Z" fill="#322153"/>
<path d="M252.456 163.608C253.023 165.223 252.229 167.067 250.64 167.644L231.568 174.677C229.979 175.254 228.163 174.447 227.595 172.832L226.006 168.336C225.438 166.722 226.233 164.877 227.822 164.3L246.893 157.267C248.483 156.691 250.299 157.498 250.867 159.112L252.456 163.608Z" fill="#8257E6"/>
<path d="M279.247 185.515C279.247 185.515 286.398 182.979 287.647 184.477C288.782 185.861 281.63 187.936 281.971 188.052C282.198 188.167 289.69 186.438 290.372 188.052C291.053 189.666 282.425 192.548 282.425 192.548C282.425 192.548 290.599 190.242 291.166 191.972C291.734 193.701 282.652 196.238 282.652 196.238L282.198 192.433L281.63 188.052L279.247 185.515Z" fill="#965450"/>
<path d="M289.35 183.555C289.35 183.555 283.787 179.75 283.787 178.482C283.674 177.098 298.545 183.44 298.545 183.44L289.35 183.555Z" fill="#965450"/>
<path d="M399.01 145.161C397.874 147.236 403.437 98.9261 403.437 98.9261L377.668 116.567C377.668 116.567 379.938 147.467 377.1 147.582C375.965 147.582 371.538 149.312 366.657 151.156C367.792 156.921 370.062 158.189 371.992 163.724C386.409 163.609 402.075 163.263 410.929 149.888C405.821 148.159 400.485 142.278 399.01 145.161Z" fill="#76413B"/>
<path d="M374.603 148.043L373.468 144.008L401.848 137.666L402.983 144.584C402.983 144.584 437.039 156.114 441.58 182.056C446.12 207.998 443.85 224.717 438.742 233.364C438.742 233.364 399.01 239.129 381.982 230.482C364.954 221.834 347.358 157.267 356.44 151.502C365.521 145.737 374.603 148.043 374.603 148.043Z" fill="#34CB79"/>
<path opacity="0.1" d="M411.724 219.874C398.102 219.067 381.414 217.453 370.062 208.921C367.905 207.307 365.976 205.577 364.159 203.617C369.268 216.415 375.625 227.253 381.982 230.482C399.01 239.129 438.742 233.364 438.742 233.364C441.012 229.559 442.715 224.14 443.509 216.992C433.293 220.105 422.622 220.566 411.724 219.874Z" fill="#161826"/>
<path d="M410.361 199.927L439.309 197.621C439.309 197.621 431.93 249.505 423.416 267.377C414.902 285.248 375.738 355.58 391.063 316.378C391.063 316.378 371.197 346.933 388.225 315.802C388.225 315.802 369.494 340.591 385.955 314.073C385.955 314.073 366.656 336.556 387.09 304.849C387.09 304.849 371.765 312.343 388.793 299.66L405.253 255.847L410.361 199.927Z" fill="#965450"/>
<path d="M438.628 201.772C439.082 199.12 439.309 197.506 439.309 197.506L410.362 199.812L410.135 202.81C419.557 202.81 429.092 202.349 438.628 201.772Z" fill="#76413B"/>
<path d="M380.052 67.9108C380.052 67.9108 394.469 59.3787 415.584 73.4451C429.547 82.7843 428.866 112.647 398.669 132.247C362.797 155.538 380.052 67.9108 380.052 67.9108Z" fill="#051F38"/>
<path d="M400.032 83.822C400.032 83.822 383.798 71.0238 369.949 77.25C352.467 85.3209 354.283 104.114 353.943 120.141C353.489 141.471 370.062 145.507 375.057 145.737C382.436 146.198 412.519 144.354 400.032 83.822Z" fill="#965450"/>
<path d="M401.621 103.769C401.621 103.769 402.302 100.54 407.751 103.077C414.676 106.42 410.93 123.254 403.21 122.793C395.377 122.447 401.621 103.769 401.621 103.769Z" fill="#965450"/>
<path d="M401.621 103.769C401.621 103.769 402.529 115.298 399.918 115.414C397.193 115.529 394.355 94.5447 401.848 94.5447C409.34 94.7753 401.621 103.769 401.621 103.769Z" fill="#051F38"/>
<path d="M401.621 103.769C401.621 103.769 396.058 78.1724 363.024 82.4384C363.024 82.4384 367.792 72.8686 378.236 68.372C392.426 62.2612 413.654 86.8198 407.751 103.077C407.751 103.077 405.026 103.423 401.621 103.769Z" fill="#34CB79"/>
<path d="M415.584 80.1324C415.584 80.1324 413.767 49.5783 421.033 49.5783C428.298 49.5783 420.465 75.2899 420.465 75.2899C420.465 75.2899 426.482 38.5097 443.964 44.044C461.446 49.5783 431.249 75.2899 431.249 75.2899C431.249 75.2899 445.099 62.3765 449.98 66.7578C454.748 71.0238 430.114 79.6712 430.114 79.6712C430.114 79.6712 448.845 74.1369 451.229 83.3608C453.613 92.4693 415.016 91.2011 415.584 80.1324Z" fill="#051F38"/>
<path d="M354.851 97.8889C354.851 97.8889 354.851 97.6583 355.078 97.1971C355.305 96.7359 355.532 96.1594 356.099 95.5829C356.667 95.0064 357.348 94.3146 358.256 93.8534C358.483 93.7381 358.71 93.6228 359.051 93.5075C359.278 93.3922 359.618 93.2769 359.845 93.2769C360.186 93.2769 360.413 93.1616 360.754 93.1616H361.662C362.229 93.1616 362.797 93.3922 363.365 93.6228C363.932 93.8534 364.386 94.084 364.84 94.4299C365.294 94.7758 365.635 95.1217 365.975 95.4676C366.316 95.8135 366.543 96.1594 366.657 96.5053C366.77 96.6206 366.884 96.8512 366.884 96.9665C366.997 97.0818 366.997 97.3124 367.111 97.4277C367.224 97.7736 367.338 98.0042 367.338 98.2348C367.451 98.6959 367.451 98.9265 367.451 98.9265C367.451 98.9265 367.224 98.8112 366.77 98.696C366.543 98.5807 366.316 98.4653 366.089 98.3501C365.862 98.2348 365.521 98.1195 365.181 97.8889C364.84 97.7736 364.613 97.543 364.273 97.4277C363.932 97.3124 363.592 97.1971 363.251 97.0818C362.91 96.9665 362.57 96.8512 362.229 96.7359C361.889 96.7359 361.548 96.6206 361.208 96.6206H360.754C360.64 96.6206 360.413 96.6206 360.186 96.6206C359.845 96.6206 359.505 96.7359 359.164 96.7359C358.824 96.8512 358.483 96.8512 358.143 96.9665C357.802 97.0818 357.462 97.0818 357.121 97.1971C356.44 97.4277 355.872 97.543 355.532 97.6583C355.191 97.8889 354.851 97.8889 354.851 97.8889Z" fill="#051F38"/>
<path d="M363.591 129.595C363.591 129.595 382.209 130.172 383.457 129.941C384.593 129.711 373.014 138.935 363.591 129.595Z" fill="white"/>
<path d="M364.84 108.496C364.84 108.496 364.84 108.726 364.727 109.188C364.613 109.649 364.5 110.225 364.273 111.032C364.159 111.378 364.046 111.839 363.819 112.185C363.705 112.416 363.592 112.647 363.478 112.762C363.365 112.992 363.137 113.223 363.024 113.338C362.683 113.684 362.343 114.145 361.775 114.376C361.662 114.491 361.548 114.491 361.321 114.607L360.981 114.722C360.754 114.837 360.413 114.837 360.072 114.837C359.505 114.837 358.824 114.722 358.37 114.261C357.916 113.915 357.575 113.454 357.348 112.877C357.121 112.416 357.007 111.955 356.894 111.494C356.78 111.032 356.78 110.571 356.78 110.225C356.78 109.418 356.78 108.842 356.894 108.381C357.007 107.919 357.121 107.689 357.121 107.689C357.121 107.689 357.121 108.726 357.461 110.225C357.575 110.917 357.802 111.839 358.256 112.531C358.483 112.877 358.71 113.223 359.051 113.454C359.391 113.684 359.732 113.8 360.072 113.8C360.299 113.8 360.413 113.8 360.64 113.684L360.981 113.569C360.981 113.569 361.094 113.454 361.208 113.454C361.548 113.338 361.889 112.992 362.229 112.762C362.57 112.416 362.797 112.07 363.024 111.724C363.251 111.378 363.478 111.032 363.592 110.686C363.932 109.995 364.159 109.418 364.386 109.072C364.727 108.726 364.84 108.496 364.84 108.496Z" fill="#1F2733"/>
<path d="M383.571 109.995C383.571 109.995 383.571 110.225 383.457 110.686C383.344 111.148 383.23 111.724 383.003 112.531C382.89 112.877 382.776 113.338 382.549 113.684C382.436 113.915 382.322 114.145 382.209 114.261C382.095 114.491 381.868 114.722 381.755 114.837C381.414 115.183 381.074 115.644 380.506 115.875C380.392 115.99 380.279 115.99 380.052 116.106L379.711 116.221C379.484 116.336 379.144 116.336 378.803 116.336C378.236 116.336 377.554 116.221 377.1 115.76C376.646 115.414 376.306 114.953 376.079 114.376C375.852 113.915 375.738 113.454 375.625 112.992C375.511 112.531 375.511 112.07 375.511 111.724C375.511 110.917 375.511 110.341 375.625 109.879C375.738 109.418 375.852 109.188 375.852 109.188C375.852 109.188 375.852 110.225 376.192 111.724C376.306 112.416 376.533 113.338 376.987 114.03C377.214 114.376 377.441 114.722 377.781 114.953C378.122 115.183 378.463 115.298 378.803 115.298C379.03 115.298 379.144 115.298 379.371 115.183L379.711 115.068C379.711 115.068 379.825 114.953 379.938 114.953C380.279 114.837 380.619 114.491 380.96 114.261C381.301 113.915 381.528 113.569 381.755 113.223C381.982 112.877 382.209 112.531 382.322 112.185C382.663 111.494 382.89 110.917 383.117 110.571C383.457 110.225 383.571 109.995 383.571 109.995Z" fill="#1F2733"/>
<path d="M404.232 119.565C404.572 119.103 404.799 118.757 405.026 118.296C405.253 117.835 405.367 117.374 405.48 116.913C405.48 116.682 405.48 116.451 405.48 116.221C405.48 116.106 405.367 115.99 405.367 115.99C405.367 115.875 405.253 115.76 405.14 115.76C405.026 115.644 405.026 115.644 404.913 115.529L404.686 115.298C404.572 115.183 404.459 115.183 404.345 115.183L404.005 115.068L403.777 114.953V114.722C403.437 113.454 403.323 112.301 403.21 111.032C403.096 110.456 403.096 109.764 403.21 109.188C403.21 108.496 403.323 107.919 403.55 107.228C403.664 106.882 403.891 106.536 404.232 106.305C404.572 106.075 405.026 105.844 405.367 105.959C405.821 105.959 406.048 106.075 406.388 106.19C406.729 106.305 407.07 106.42 407.297 106.651C407.524 106.882 407.864 107.112 407.978 107.343C408.205 107.573 408.318 107.919 408.432 108.15C408.659 108.726 408.772 109.418 408.659 109.995C408.545 109.418 408.432 108.842 408.091 108.265C407.978 108.035 407.751 107.804 407.524 107.573C407.297 107.343 407.07 107.228 406.842 107.112C406.615 106.997 406.388 106.882 406.048 106.882C405.821 106.882 405.48 106.766 405.253 106.766C404.799 106.766 404.572 107.112 404.459 107.573C404.118 108.611 404.232 109.764 404.232 110.917C404.345 112.07 404.459 113.338 404.686 114.491L404.459 114.145L404.799 114.376C404.913 114.491 405.026 114.491 405.14 114.607L405.48 114.837C405.594 114.953 405.707 115.068 405.821 115.183C405.934 115.298 406.048 115.414 406.048 115.644C406.161 115.76 406.161 115.99 406.161 116.106C406.275 116.451 406.161 116.682 406.161 117.028C406.048 117.604 405.707 118.066 405.367 118.527C405.026 118.873 404.572 119.334 404.232 119.565Z" fill="#76413B"/>
<path d="M366.543 124.407C365.976 124.522 365.522 124.522 365.067 124.522C364.613 124.522 364.159 124.407 363.819 124.292C363.365 124.176 363.024 123.946 362.684 123.831C362.456 123.715 362.343 123.6 362.116 123.485C361.889 123.369 361.775 123.254 361.548 123.139L360.867 122.562L360.981 122.101C362.116 118.757 363.251 115.529 364.386 112.301C365.521 109.072 366.77 105.729 368.019 102.5C367.224 105.844 366.316 109.303 365.521 112.647C364.613 115.99 363.705 119.334 362.797 122.678L362.343 121.64C362.57 121.64 362.797 121.755 363.024 121.755C363.251 121.755 363.478 121.87 363.592 121.986C363.932 122.101 364.386 122.332 364.727 122.562C365.067 122.793 365.408 123.139 365.749 123.485C365.976 123.6 366.316 123.946 366.543 124.407Z" fill="#76413B"/>
<path d="M373.241 96.5048C373.241 96.5048 373.354 96.1589 373.695 95.813C373.922 95.5824 374.035 95.3518 374.376 95.0059C374.716 94.7753 374.944 94.4294 375.398 94.1988C375.738 93.9682 376.192 93.6223 376.76 93.3917C377.214 93.1611 377.782 92.9305 378.349 92.6999C378.917 92.5846 379.598 92.354 380.279 92.354C380.619 92.354 380.96 92.354 381.301 92.354L382.322 92.4693C383.003 92.4693 383.684 92.8152 384.252 92.9305C384.82 93.1611 385.387 93.507 385.955 93.7376C386.522 94.0835 386.977 94.4294 387.317 94.7753C387.771 95.1212 388.112 95.5824 388.339 95.9283C388.679 96.2742 388.906 96.6201 389.133 96.966C389.36 97.3119 389.474 97.6578 389.588 97.8884C389.815 98.3496 389.928 98.6955 389.928 98.6955C389.928 98.6955 389.588 98.5802 389.133 98.3496C388.906 98.2343 388.566 98.119 388.225 97.8884C387.885 97.6578 387.544 97.5425 387.09 97.4272C386.75 97.3119 386.295 97.0813 385.841 96.8507C385.387 96.7354 384.933 96.5048 384.479 96.3895C384.025 96.2742 383.571 96.1589 383.117 96.0436C382.663 96.0436 382.209 95.813 381.641 95.813L380.96 95.6977H380.279C379.825 95.6977 379.257 95.6977 378.803 95.6977C378.349 95.6977 377.895 95.6977 377.441 95.813C376.987 95.813 376.533 95.9283 376.079 95.9283C375.284 96.0436 374.489 96.1589 374.035 96.2742C373.581 96.5048 373.241 96.5048 373.241 96.5048Z" fill="#051F38"/>
<path d="M357.575 490.825C357.575 494.976 354.283 498.435 350.196 498.55C346.109 498.55 342.704 495.207 342.59 491.056L342.25 466.613C342.25 462.462 345.542 459.003 349.629 458.888C353.715 458.888 357.121 462.231 357.234 466.382L357.575 490.825Z" fill="#091E1D"/>
<path d="M253.024 492.095C253.024 496.245 249.731 499.704 245.645 499.82C241.558 499.82 238.152 496.476 238.039 492.325L237.698 467.882C237.698 463.731 240.99 460.272 245.077 460.157C249.164 460.157 252.569 463.5 252.683 467.651L253.024 492.095Z" fill="#091E1D"/>
<path d="M349.175 473.415C349.288 482.87 341.796 490.595 332.487 490.71L262.559 491.517C253.251 491.633 245.645 484.023 245.531 474.568L238.039 312.92C237.925 303.466 245.418 295.741 254.726 295.625L335.893 294.588C345.201 294.472 352.807 302.082 352.921 311.536L349.175 473.415Z" fill="#34CB79"/>
<path opacity="0.1" d="M352.467 327.793L352.807 311.767C352.694 302.313 345.088 294.703 335.779 294.818L254.613 295.856C245.304 295.971 237.812 303.696 237.925 313.151L238.72 329.177L352.467 327.793Z" fill="#161826"/>
<path d="M366.316 307.732C366.316 310.383 364.273 312.459 361.662 312.574L229.071 314.188C226.46 314.188 224.417 312.113 224.303 309.461L224.076 292.397C224.076 289.745 226.119 287.67 228.73 287.554L361.321 285.94C363.932 285.94 365.975 288.016 366.089 290.667L366.316 307.732Z" fill="#34CB79"/>
<path d="M295.934 355.119L311.373 345.665L307.627 355.465L295.934 355.119Z" fill="white"/>
<path d="M290.145 340.246C290.145 340.246 291.393 340.246 293.323 343.243C295.253 346.241 299.567 354.312 299.567 354.312L307.4 350.738L309.216 347.625C309.216 347.625 305.81 340.707 303.086 340.246H290.145Z" fill="white"/>
<path d="M285.831 342.321C285.831 342.321 288.215 339.669 290.144 341.053C292.074 342.437 295.48 348.202 295.48 348.202L289.917 358.117L279.928 352.468L285.831 342.321Z" fill="white"/>
<path d="M302.972 367.456L303.767 385.673L297.069 377.718L302.972 367.456Z" fill="white"/>
<path d="M318.638 369.301C318.638 369.301 318.07 370.454 314.551 370.8C311.032 371.146 301.95 371.146 301.95 371.146L301.269 379.908L303.086 383.021C303.086 383.021 310.691 383.367 312.394 381.061L318.638 369.301Z" fill="white"/>
<path d="M318.752 364.458C318.752 364.458 320 367.802 317.843 368.955C315.8 369.993 309.102 370.223 309.102 370.223L303.086 360.538L312.735 354.197L318.752 364.458Z" fill="white"/>
<path d="M289.348 367.226L273.455 358.693L283.672 356.849L289.348 367.226Z" fill="white"/>
<path d="M279.928 380.024C279.928 380.024 279.247 378.986 280.722 375.758C282.198 372.529 286.739 364.574 286.739 364.574L279.701 359.616L276.182 359.731C276.182 359.731 272.095 366.303 273.117 368.84L279.928 380.024Z" fill="white"/>
<path d="M283.901 382.56C283.901 382.56 280.382 381.868 280.609 379.562C280.722 377.141 283.901 371.261 283.901 371.261L295.139 370.915L295.593 382.56H283.901Z" fill="white"/>
<path d="M52.3209 445.167C52.3209 445.167 49.8235 485.868 47.6666 486.675C39.3797 489.557 -23.1696 505.699 35.9741 478.604L34.3848 448.972L52.3209 445.167Z" fill="#051F38"/>
<path d="M49.7099 476.759C51.1857 464.422 52.3209 445.167 52.3209 445.167L34.3848 448.972L35.8605 475.376C40.2878 476.644 45.3962 476.759 49.7099 476.759Z" fill="#041523"/>
<path d="M10.8863 492.786C9.07002 497.282 41.7636 488.75 47.6667 486.675C47.7802 486.56 48.0072 486.329 48.2343 485.752C40.8555 487.828 18.4921 493.016 10.8863 492.786Z" fill="white"/>
<path d="M90.577 442.977C90.577 442.977 93.8691 483.677 96.1395 484.369C104.54 487.136 167.316 502.01 107.605 476.067L108.627 446.436L90.577 442.977Z" fill="#051F38"/>
<path d="M93.8691 474.453C92.1663 462.232 90.577 442.977 90.577 442.977L108.627 446.436L107.718 472.839C103.291 474.223 98.1828 474.338 93.8691 474.453Z" fill="#041523"/>
<path d="M133.033 489.788C134.963 494.284 102.043 486.329 96.1395 484.369C95.9125 484.369 95.7989 484.023 95.5719 483.446C102.951 485.522 125.428 490.249 133.033 489.788Z" fill="white"/>
<path d="M101.588 223.218C101.588 223.218 117.935 357.31 114.643 465.806C114.643 465.806 95.1178 471.34 90.0094 467.305C85.5821 441.593 86.1497 391.554 79.5656 354.427C73.322 319.377 70.8246 290.667 70.8246 290.667L68.7812 288.361C68.7812 288.361 55.3859 457.85 52.4344 470.764C35.52 474.799 30.1846 470.072 30.1846 470.072C30.1846 470.072 22.4653 258.038 27.2331 223.794C33.3632 179.059 101.588 223.218 101.588 223.218Z" fill="#34CB79"/>
<path opacity="0.1" d="M104.539 251.004C102.836 233.71 101.474 223.333 101.474 223.333C101.474 223.333 33.3619 179.173 27.1184 223.909C26.5508 228.06 26.2102 234.862 25.8696 243.51C30.978 246.392 94.776 255.616 104.539 251.004Z" fill="#161826"/>
<path opacity="0.1" d="M69.5758 286.978C70.3704 296.086 74.4571 325.488 79.5655 354.427C86.1497 391.669 85.5821 441.593 90.0093 467.305C95.1177 471.34 114.643 465.806 114.643 465.806C116.573 399.048 111.237 322.605 106.697 273.719C95.9123 280.636 82.1765 283.98 69.5758 286.978Z" fill="#161826"/>
<path d="M75.3654 105.959C75.4789 91.8929 76.5006 73.3298 76.5006 73.3298L49.2559 65.7201C49.2559 65.7201 50.1641 90.8552 50.9587 106.19C38.5851 110.456 24.5087 118.527 24.5087 118.527L75.933 131.786L94.2097 113.8C94.2097 113.8 85.0146 109.072 75.3654 105.959Z" fill="#FFB39F"/>
<path d="M75.3654 105.959C75.4789 91.8929 76.5006 73.3298 76.5006 73.3298L49.2559 65.7201C49.2559 65.7201 50.1641 90.8552 50.9587 106.19C38.5851 110.456 24.5087 118.527 24.5087 118.527L75.933 131.786L100.226 110.571C100.226 110.571 85.1281 104.806 75.3654 105.959Z" fill="#E09B8D"/>
<path d="M46.8719 39.0862C46.8719 39.0862 54.0236 15.5653 72.8679 19.2549C91.7121 22.9444 94.4366 47.9642 96.8205 64.7978C99.2044 81.7466 93.869 96.966 79.1115 98.8108C66.2837 100.425 43.9204 97.8884 46.8719 39.0862Z" fill="#FFB39F"/>
<path d="M47.7801 58.8022C47.7801 58.8022 46.6449 55.6892 41.9906 59.1481C36.0876 63.5295 42.1042 79.6712 49.2559 77.9418C56.4076 76.2123 47.7801 58.8022 47.7801 58.8022Z" fill="#FFB39F"/>
<path d="M41.196 25.5963C41.65 25.481 50.5046 24.7892 44.6015 25.3657C50.0505 31.3612 49.4829 32.8601 56.9752 34.2436C60.9484 46.6959 53.1155 54.1903 53.1155 54.1903L55.2724 69.1791L49.5964 69.7556C49.5964 69.7556 49.7099 59.3787 45.3962 58.4563C41.0824 57.5339 39.8337 62.8377 39.8337 62.8377C30.8657 51.3078 21.7841 28.7093 41.196 25.5963Z" fill="#051F38"/>
<path d="M92.6203 17.1795C96.2529 8.07089 90.1229 0 90.1229 0C91.1446 3.34366 90.6905 6.45671 89.6688 8.99328C88.9877 6.45671 87.739 3.68955 85.4686 0.922387C85.4686 0.922387 86.1497 10.1463 73.7761 8.99328C61.4024 7.84029 39.7202 9.56977 38.812 29.0552C37.7904 48.5407 56.2941 34.3589 56.2941 34.3589C56.2941 34.3589 93.1879 44.8511 98.5233 14.6429L92.6203 17.1795Z" fill="#051F38"/>
<path d="M75.1385 50.8476C75.1385 50.8476 74.7979 50.8476 74.3438 50.7323C73.7762 50.617 73.0951 50.5017 72.3005 50.3864C71.8464 50.2711 71.5058 50.2711 71.0517 50.2711C70.5977 50.1558 70.1436 50.1558 69.6895 50.1558C69.2354 50.1558 68.7814 50.1558 68.2138 50.1558C67.9867 50.1558 67.7597 50.1558 67.5326 50.1558L66.8515 50.2711C66.3974 50.2711 65.9434 50.3864 65.3758 50.5017C64.9217 50.617 64.4676 50.7323 64.0135 50.8476C63.5595 50.9629 63.1054 51.1935 62.6513 51.3088C62.1972 51.4241 61.8567 51.6547 61.4026 51.77C61.062 51.8853 60.6079 52.0006 60.3809 52.2312C60.0403 52.3465 59.8133 52.4618 59.5863 52.5771C59.1322 52.8077 58.7916 52.923 58.7916 52.923C58.7916 52.923 58.9051 52.5771 59.1322 52.1159C59.2457 51.8853 59.3592 51.5394 59.5863 51.1935C59.8133 50.8476 60.0403 50.5017 60.3809 50.1558C60.7215 49.8099 60.9485 49.3487 61.4026 49.0028C61.8567 48.6569 62.3107 48.311 62.8783 47.9651C63.4459 47.7345 64.0135 47.3886 64.5811 47.158C65.2622 46.9274 65.8298 46.8121 66.511 46.6968L67.5326 46.5815C67.8732 46.5815 68.2138 46.5815 68.5543 46.6968C68.8949 46.6968 69.2354 46.8121 69.4625 46.8121C69.803 46.9274 70.0301 46.9274 70.3706 47.0427C70.9382 47.2733 71.5058 47.3886 71.9599 47.7345C72.414 47.9651 72.8681 48.311 73.3221 48.5416C73.6627 48.7722 74.0032 49.1181 74.3438 49.3487C74.5708 49.5793 74.7979 49.9252 75.0249 50.0405C74.9114 50.5017 75.1385 50.8476 75.1385 50.8476Z" fill="#051F38"/>
<path d="M94.3232 50.2701C94.3232 50.2701 94.0962 50.1548 93.6421 50.0395C93.188 49.9242 92.6204 49.6936 92.0528 49.463C91.7123 49.3477 91.3717 49.2325 91.0311 49.1172C90.6906 49.0019 90.35 48.8865 90.0095 48.8865C89.6689 48.8865 89.3284 48.7713 88.9878 48.656C88.8743 48.656 88.6472 48.656 88.5337 48.5407H88.0796C87.7391 48.4254 87.3985 48.656 87.058 48.5407C86.7174 48.656 86.3768 48.656 86.0363 48.7713C85.6957 48.8866 85.3552 49.0019 85.0146 49.1172C84.6741 49.2325 84.3335 49.3477 84.1065 49.463C83.7659 49.5783 83.4253 49.6936 83.1983 49.8089C82.9713 49.9242 82.7442 50.0395 82.5172 50.0395C82.0631 50.1548 81.8361 50.2701 81.8361 50.2701C81.8361 50.2701 81.8361 50.0395 82.0631 49.5783C82.1766 49.3477 82.1766 49.1171 82.4037 48.7713C82.5172 48.4254 82.7442 48.1948 82.9713 47.8489C83.1983 47.503 83.4253 47.1571 83.7659 46.8112C84.1064 46.4653 84.5605 46.2347 84.9011 45.8888C85.3552 45.6582 85.9228 45.4276 86.3768 45.197C86.9444 45.0817 87.512 44.9664 88.0796 44.9664C88.4202 44.9664 88.6472 44.9664 88.9878 44.9664C89.3284 44.9664 89.5554 45.0817 89.7824 45.197C90.0095 45.197 90.35 45.3123 90.5771 45.4276C90.8041 45.5429 91.0311 45.6582 91.2582 45.7735C92.1663 46.35 92.8475 46.9265 93.3015 47.6183C93.7556 48.3101 93.9826 48.8866 94.2097 49.3477C94.3232 50.0395 94.3232 50.2701 94.3232 50.2701Z" fill="#051F38"/>
<path d="M80.3604 51.5384C81.0415 53.0373 81.7226 54.6515 82.4037 56.1504C82.7443 56.9574 82.9713 57.6492 83.3119 58.4563L84.22 60.7623L85.1282 63.0683C85.4687 63.8754 85.6958 64.5671 86.0363 65.3742L86.4904 66.5272C86.6039 66.8731 86.831 67.3343 86.9445 67.6802C87.285 68.372 87.6256 69.0638 87.9662 69.8709L88.3067 70.7933L87.6256 71.1392C86.6039 71.6004 85.5823 72.1768 84.4471 72.638C83.4254 73.0992 82.2902 73.5604 81.155 73.9063C82.0631 73.0992 82.9713 72.4074 83.8795 71.7157C84.7876 71.0239 85.8093 70.3321 86.7175 69.6403L86.3769 70.9086C85.9228 70.2168 85.4687 69.4097 85.0147 68.7179C84.5606 68.0261 84.22 67.219 83.8795 66.4119L83.3119 65.2589L82.8578 64.106C82.6307 63.2989 82.2902 62.4918 82.0631 61.6847L81.382 59.2634C81.155 58.4563 81.0415 57.6492 80.8144 56.8421C80.7009 54.9974 80.4739 53.2679 80.3604 51.5384Z" fill="#DD9078"/>
<path d="M47.4396 74.5981C46.9855 74.3675 46.5314 74.0216 46.1909 73.5604C45.8503 73.2145 45.3962 72.7533 45.1692 72.1769C45.0557 71.9463 44.9422 71.6004 44.9422 71.2545C44.9422 71.1392 44.9422 70.9086 44.9422 70.7933C44.9422 70.678 45.0557 70.4474 45.0557 70.3321C45.1692 69.9862 45.3962 69.7556 45.6233 69.525C45.7368 69.4097 45.8503 69.2944 45.9639 69.1791L46.3044 68.9485L46.0774 69.2944C46.0774 68.0261 46.0774 66.7578 45.9639 65.6048C45.8503 64.3366 45.7368 63.0683 45.2827 62.0306C45.1692 61.8 45.0557 61.5694 44.8287 61.4541C44.7151 61.3388 44.4881 61.2235 44.2611 61.2235C44.1475 61.2235 44.034 61.2235 43.9205 61.3388C43.807 61.3388 43.5799 61.4541 43.4664 61.4541C43.2394 61.5694 43.0123 61.6847 42.7853 61.9153C42.5583 62.1459 42.3312 62.2612 42.2177 62.4918C42.1042 62.7224 41.8771 62.953 41.7636 63.2989C41.5366 63.8754 41.4231 64.4519 41.4231 65.1436C41.196 64.5671 41.196 63.8754 41.3096 63.1836C41.3096 62.8377 41.4231 62.4918 41.6501 62.2612C41.7636 61.9153 41.9907 61.6847 42.2177 61.4541L42.5583 61.1082L43.0123 60.7623C43.1259 60.647 43.3529 60.647 43.4664 60.5317C43.5799 60.4164 43.807 60.4164 44.034 60.3011C44.4881 60.1858 44.9422 60.3011 45.2827 60.647C45.6233 60.8776 45.8503 61.2235 45.9639 61.5694C46.3044 62.2612 46.4179 62.8377 46.645 63.5295C46.7585 64.2213 46.872 64.7977 46.872 65.4895C46.9855 66.7578 46.9855 68.0261 46.872 69.4097V69.6403L46.645 69.7556C46.4179 69.8709 46.1909 69.9862 46.0774 70.2168C45.9638 70.3321 45.7368 70.5627 45.6233 70.678C45.5098 70.7933 45.5098 70.9086 45.5098 71.0239C45.5098 71.1392 45.3963 71.2545 45.3963 71.3698C45.3963 71.6004 45.3963 71.831 45.3963 72.0615C45.5098 72.5227 45.7368 72.9839 46.0774 73.4451C46.7585 73.9063 47.099 74.2522 47.4396 74.5981Z" fill="#DD9078"/>
<path d="M65.2622 61.8C65.2622 61.8 65.3757 62.0306 65.4892 62.4917C65.6028 62.7223 65.6028 62.9529 65.7163 63.1835C65.8298 63.4141 65.9433 63.76 66.1704 64.1059C66.2839 64.4518 66.6244 64.6824 66.738 65.0283C66.8515 65.1436 66.965 65.2589 67.192 65.4895C67.3056 65.6048 67.4191 65.7201 67.6461 65.8354C67.9867 66.066 68.3272 66.1813 68.6678 66.2966C68.8948 66.2966 69.0084 66.4119 69.2354 66.4119C69.4624 66.4119 69.5759 66.4119 69.803 66.2966L70.3706 66.066L70.9382 65.7201C71.2787 65.4895 71.5058 65.1436 71.7328 64.7977C71.9599 64.4518 72.0734 64.1059 72.3004 63.76C72.4139 63.4141 72.5275 63.0682 72.5275 62.607C72.5275 62.2611 72.5275 61.9152 72.641 61.6847C72.641 61.3388 72.641 61.1082 72.641 60.8776C72.641 60.4164 72.641 60.1858 72.641 60.1858C72.641 60.1858 72.7545 60.4164 72.868 60.8776C72.9815 61.1082 72.9815 61.3388 73.0951 61.6847C73.0951 62.0305 73.2086 62.3764 73.2086 62.7223C73.2086 63.0682 73.2086 63.5294 73.0951 63.9906C72.9815 64.4518 72.868 64.913 72.641 65.3742C72.4139 65.8354 72.0734 66.2966 71.6193 66.6425L70.9382 67.1037C70.7111 67.219 70.3706 67.3343 70.1435 67.4496C69.9165 67.4496 69.5759 67.5649 69.2354 67.5649C69.0084 67.5649 68.6678 67.4496 68.4407 67.4496C67.8732 67.3343 67.4191 66.9884 66.965 66.6425C66.5109 66.2966 66.2839 65.8354 66.0568 65.4895C65.8298 65.0283 65.6028 64.6824 65.4892 64.3365C65.3757 63.9906 65.2622 63.6447 65.2622 63.2988C65.2622 62.9529 65.2622 62.7223 65.2622 62.4917C65.2622 62.0306 65.2622 61.8 65.2622 61.8Z" fill="#1F2733"/>
<path d="M85.8092 58.341C85.8092 58.341 85.9227 58.5716 86.0362 59.0328C86.1498 59.2634 86.1498 59.494 86.2633 59.7246C86.3768 59.9552 86.4903 60.3011 86.7174 60.647C86.8309 60.9929 87.1714 61.2235 87.285 61.5694C87.3985 61.6847 87.512 61.8 87.739 62.0306C87.8526 62.1459 87.9661 62.2612 88.1931 62.3765C88.5337 62.6071 88.8742 62.7224 89.2148 62.8377C89.4418 62.8377 89.5553 62.953 89.7824 62.953C90.0094 62.953 90.1229 62.953 90.35 62.8377L90.9176 62.6071L91.4852 62.2612C91.8257 62.0306 92.0528 61.6847 92.2798 61.3388C92.5069 60.9929 92.6204 60.647 92.8474 60.3011C92.9609 59.9552 93.0744 59.6093 93.0744 59.1481C93.0744 58.8022 93.0745 58.4563 93.188 58.2257C93.188 57.8798 93.188 57.6492 93.188 57.4186C93.188 56.9574 93.188 56.7269 93.188 56.7269C93.188 56.7269 93.3015 56.9574 93.415 57.4186C93.5285 57.6492 93.5285 57.8798 93.642 58.2257C93.642 58.5716 93.7556 58.9175 93.7556 59.2634C93.7556 59.6093 93.7556 60.0705 93.642 60.5317C93.5285 60.9929 93.415 61.4541 93.188 61.9153C92.9609 62.3765 92.6204 62.8377 92.1663 63.1836L91.4852 63.6448C91.2581 63.7601 90.9176 63.8754 90.6905 63.9906C90.4635 63.9906 90.1229 64.106 89.7824 64.106C89.5553 64.106 89.2148 63.9906 88.9878 63.9906C88.4202 63.8754 87.9661 63.5295 87.512 63.1836C87.0579 62.8377 86.8309 62.3765 86.6038 62.0306C86.3768 61.5694 86.1498 61.2235 86.0362 60.8776C85.9227 60.5317 85.8092 60.1858 85.8092 59.8399C85.8092 59.494 85.8092 59.2634 85.8092 59.0328C85.8092 58.5716 85.8092 58.341 85.8092 58.341Z" fill="#1F2733"/>
<path d="M67.0502 78.1034C67.0502 78.1034 66.9367 78.1034 67.0502 78.2187C67.1637 78.334 67.3908 78.4493 67.6178 78.5646C68.0719 78.9105 68.8665 79.2564 69.7747 79.7176C70.6828 80.1788 71.818 80.64 72.9532 80.9858C73.5208 81.2164 74.2019 81.3317 74.7695 81.447C75.3371 81.5623 76.0183 81.6776 76.6994 81.7929C77.9481 81.9082 79.1968 82.0235 80.4455 81.9082C81.6942 81.7929 82.7159 81.5623 83.7376 81.2164C84.6458 80.8705 85.4404 80.64 86.008 80.4094C86.5756 80.1788 86.9161 80.0635 86.9161 80.0635C86.9161 80.0635 86.6891 80.4094 86.235 80.7552C85.7809 81.2164 85.0998 81.7929 84.1917 82.3694C83.2835 82.9459 82.0348 83.5224 80.6726 83.753C79.3103 84.0989 77.8346 84.0989 76.3588 83.9836C75.6777 83.8683 74.8831 83.753 74.2019 83.5224C73.5208 83.2918 72.8397 83.0612 72.2721 82.7153C71.0234 82.1388 70.0017 81.447 69.2071 80.7552C68.4125 80.0635 67.7313 79.3717 67.3908 78.7952C67.1637 78.5646 67.0502 78.334 67.0502 78.1034C66.9367 78.1034 66.9367 78.2187 67.0502 78.1034Z" fill="#DD9078"/>
<path d="M84.7875 105.613C84.7875 105.613 113.848 102.5 117.595 125.099C121.341 147.813 121 153.923 121 153.923L92.6203 149.657L84.7875 105.613Z" fill="#8257E6"/>
<path d="M109.307 123.83C107.604 109.417 93.1869 106.304 84.7865 105.612C81.0403 110.916 75.8184 114.721 68.6667 114.952C60.4933 115.182 53.001 112.3 49.0278 105.958C36.3136 107.457 23.7129 111.147 20.875 119.909C14.8584 138.357 20.0803 239.82 20.0803 239.82C20.0803 239.82 70.9371 248.698 112.712 240.627C112.599 240.742 111.577 143.084 109.307 123.83Z" fill="#8257E6"/>
<path opacity="0.2" d="M17.9243 169.258C18.1514 202.695 20.0812 239.936 20.0812 239.936C20.0812 239.936 70.9379 248.814 112.713 240.743C112.713 240.743 111.918 166.606 110.216 134.784C79.4519 146.429 48.6881 157.959 17.9243 169.258Z" fill="#352C38"/>
<path d="M49.2552 196.007C49.2552 196.007 48.12 192.664 53.3419 190.473C58.5638 188.282 112.372 173.985 115.778 174.447C119.183 174.908 160.845 179.981 161.526 182.287C162.207 184.593 111.691 201.196 111.691 201.196L49.2552 196.007Z" fill="#E1EDFF"/>
<path d="M114.53 205.577C114.53 205.577 55.6129 205.347 51.0721 199.928C46.5313 194.509 46.4178 190.588 72.1867 195.2C97.9557 199.812 112.827 199.12 112.827 199.12C112.827 199.12 160.051 176.753 161.64 182.172C163.116 187.706 168.111 186.322 114.53 205.577Z" fill="#C0D5FF"/>
<path d="M161.527 182.287C160.051 176.868 112.713 199.236 112.713 199.236C112.713 199.236 112.6 199.236 112.259 199.236C113.281 201.311 114.075 203.271 114.984 205.462C168.111 186.322 163.116 187.706 161.527 182.287Z" fill="#B1C5E8"/>
<path d="M47.5521 183.67C47.5521 183.67 46.4169 180.327 51.6388 178.136C56.8607 175.945 110.669 161.648 114.075 162.11C117.48 162.571 159.142 167.644 159.823 169.95C160.504 172.256 109.988 188.859 109.988 188.859L47.5521 183.67Z" fill="#E1EDFF"/>
<path d="M112.826 193.356C112.826 193.356 53.9097 193.125 49.369 187.706C44.8282 182.287 44.7147 178.367 70.4836 182.979C96.2525 187.591 111.124 186.899 111.124 186.899C111.124 186.899 158.348 164.531 159.937 169.95C161.299 175.369 166.408 173.985 112.826 193.356Z" fill="#C0D5FF"/>
<path d="M159.824 170.065C158.348 164.646 111.01 187.014 111.01 187.014C111.01 187.014 110.897 187.014 110.556 187.014C111.578 189.09 112.373 191.05 113.281 193.24C166.294 173.985 161.299 175.369 159.824 170.065Z" fill="#B1C5E8"/>
<path d="M47.3254 173.639C47.3254 173.639 46.3037 170.757 51.2986 168.797C56.2934 166.837 108.399 154.269 111.691 154.731C114.983 155.192 155.282 159.688 155.964 161.648C156.645 163.608 107.718 178.367 107.718 178.367L47.3254 173.639Z" fill="#E1EDFF"/>
<path d="M110.443 182.172C110.443 182.172 53.4561 181.941 49.0288 177.214C44.6016 172.486 44.6016 169.028 69.4623 173.063C94.3231 177.098 108.74 176.522 108.74 176.522C108.74 176.522 154.488 156.806 155.964 161.648C157.44 166.376 162.321 165.107 110.443 182.172Z" fill="#C0D5FF"/>
<path d="M155.964 161.648C154.488 156.921 108.74 176.522 108.74 176.522C108.74 176.522 108.627 176.522 108.286 176.522C109.194 178.251 110.102 180.096 110.897 181.941C162.321 165.107 157.44 166.376 155.964 161.648Z" fill="#B1C5E8"/>
<path d="M48.9145 160.15C48.9145 160.15 48.0064 157.267 53.1148 155.422C58.2231 153.693 110.669 143.085 113.961 143.662C117.253 144.123 157.326 150.234 157.893 152.194C158.461 154.154 109.08 166.952 109.08 166.952L48.9145 160.15Z" fill="white"/>
<path d="M111.691 171.102C111.691 171.102 54.7047 168.681 50.5045 163.838C46.3042 158.88 46.3042 155.537 71.0515 160.494C95.7988 165.452 110.216 165.452 110.216 165.452C110.216 165.452 156.645 147.581 157.894 152.308C159.256 157.035 164.138 155.998 111.691 171.102Z" fill="#C0D5FF"/>
<path d="M157.894 152.309C156.645 147.467 110.216 165.453 110.216 165.453C110.216 165.453 110.102 165.453 109.762 165.453C110.67 167.298 111.465 169.143 112.146 170.988C164.024 155.999 159.143 157.037 157.894 152.309Z" fill="#B1C5E8"/>
<path d="M19.2867 162.34L47.3261 155.422C47.3261 155.422 53.3426 196.93 54.9319 199.236C56.5212 201.542 103.405 203.848 103.405 203.848L117.027 204.655C117.027 204.655 59.4727 229.213 42.8988 219.298C26.0979 209.151 19.2867 162.34 19.2867 162.34Z" fill="#FFB39F"/>
<path d="M22.0112 167.298C30.6387 164.646 39.0391 161.418 47.8937 159.458C47.5531 156.921 47.3261 155.422 47.3261 155.422L19.2867 162.34C19.2867 162.34 19.6273 164.416 20.1949 167.875C20.876 167.644 21.4436 167.413 22.0112 167.298Z" fill="#E09B8D"/>
<path d="M111.805 208.46C111.805 208.46 133.147 202.695 133.147 198.313C133.147 193.932 125.427 178.136 130.876 199.236C130.876 199.236 119.524 170.642 128.606 200.619C128.606 200.619 119.751 177.329 125.768 201.196C125.768 201.196 116.686 185.054 123.271 202.349L115.097 205.462L95.4583 205.231L85.0145 215.608L111.805 208.46Z" fill="#FFB39F"/>
<path d="M161.754 187.36C161.754 187.36 150.402 158.766 159.483 188.744C159.483 188.744 150.629 165.453 156.645 189.32C156.645 189.32 147.564 173.178 153.353 190.588L147.11 193.586C149.38 193.817 152.332 193.701 154.716 192.894C161.981 191.395 164.024 188.859 164.024 186.553C164.024 182.172 156.305 166.376 161.754 187.36Z" fill="#FFB39F"/>
<path d="M190.701 490.825C190.701 494.976 187.409 498.435 183.322 498.55C179.236 498.55 175.83 495.207 175.717 491.056L175.376 466.613C175.376 462.462 178.668 459.003 182.755 458.888C186.842 458.888 190.247 462.231 190.361 466.382L190.701 490.825Z" fill="#091E1D"/>
<path d="M86.1497 492.095C86.1497 496.245 82.8577 499.704 78.771 499.82C74.6842 499.82 71.2787 496.476 71.1651 492.325L70.8246 467.882C70.8246 463.731 74.1167 460.272 78.2034 460.157C82.2901 460.157 85.6956 463.5 85.8092 467.651L86.1497 492.095Z" fill="#091E1D"/>
<path d="M182.301 473.415C182.414 482.87 174.922 490.595 165.613 490.71L95.6853 491.517C86.3767 491.633 78.7709 484.023 78.6574 474.568L71.1651 312.92C71.0516 303.466 78.5439 295.741 87.8525 295.625L169.019 294.588C178.328 294.472 185.933 302.082 186.047 311.536L182.301 473.415Z" fill="#322153"/>
<path d="M185.593 327.793L185.933 311.767C185.82 302.313 178.214 294.703 168.905 294.818L87.7389 295.856C78.4303 295.971 70.938 303.696 71.0516 313.151L71.8462 329.177L185.593 327.793Z" fill="#1C0C3B"/>
<path d="M199.442 307.732C199.442 310.383 197.399 312.459 194.788 312.574L62.1971 314.188C59.5862 314.188 57.5428 312.113 57.4293 309.461L57.2023 292.397C57.2023 289.745 59.2456 287.67 61.8566 287.554L194.447 285.94C197.058 285.94 199.102 288.016 199.215 290.667L199.442 307.732Z" fill="#322153"/>
<path d="M129.06 355.119L144.499 345.665L140.753 355.465L129.06 355.119Z" fill="white"/>
<path d="M123.271 340.246C123.271 340.246 124.519 340.246 126.449 343.243C128.379 346.241 132.693 354.312 132.693 354.312L140.526 350.738L142.342 347.625C142.342 347.625 138.936 340.707 136.212 340.246H123.271Z" fill="white"/>
<path d="M118.957 342.321C118.957 342.321 121.341 339.669 123.271 341.053C125.201 342.437 128.606 348.202 128.606 348.202L123.044 358.117L113.054 352.468L118.957 342.321Z" fill="white"/>
<path d="M136.098 367.456L136.893 385.673L130.195 377.718L136.098 367.456Z" fill="white"/>
<path d="M151.764 369.301C151.764 369.301 151.197 370.454 147.677 370.8C144.158 371.146 135.077 371.146 135.077 371.146L134.396 379.908L136.212 383.021C136.212 383.021 143.818 383.367 145.521 381.061L151.764 369.301Z" fill="white"/>
<path d="M151.877 364.458C151.877 364.458 153.126 367.802 150.969 368.955C148.926 369.993 142.228 370.223 142.228 370.223L136.212 360.538L145.861 354.197L151.877 364.458Z" fill="white"/>
<path d="M122.589 367.226L106.696 358.693L116.799 356.849L122.589 367.226Z" fill="white"/>
<path d="M113.054 380.024C113.054 380.024 112.373 378.986 113.849 375.758C115.324 372.529 119.865 364.574 119.865 364.574L112.827 359.616L109.308 359.731C109.308 359.731 105.221 366.303 106.243 368.84L113.054 380.024Z" fill="white"/>
<path d="M117.141 382.56C117.141 382.56 113.622 381.868 113.849 379.562C113.962 377.141 117.141 371.261 117.141 371.261L128.379 370.915L128.833 382.56H117.141Z" fill="white"/>
</svg>
