<svg width="758" height="694" viewBox="0 0 758 694" fill="none" xmlns="http://www.w3.org/2000/svg">
<path opacity="0.7" d="M249.276 42.5083C249.276 42.5083 129.187 105.513 69.2937 202.599C9.40015 299.684 14.139 424.583 86.9179 517.295C159.697 610.006 298.804 597.83 415.279 656.558C531.753 715.286 660.258 703.191 715.333 578.765C770.409 454.339 687.359 407.837 673.095 263.84C658.831 119.844 532.784 -91.0091 249.276 42.5083Z" fill="#F5F5F5"/>
<path d="M557.872 101.871C545.922 95.1627 540.438 100.761 536.143 95.1627C531.848 89.5641 548.093 75.0208 515.54 60.4775C515.54 60.4775 513.368 29.1548 468.817 28.0286C424.265 26.9023 436.231 59.3676 424.281 67.2024C412.33 75.0371 409.066 62.73 397.115 70.5648C385.165 78.3996 390.57 94.0038 380.791 96.2889C371.012 98.5741 357.968 86.218 346.018 94.0527C334.068 101.888 334.068 108.596 328.584 108.596C323.1 108.596 312.275 104.124 305.761 108.596C299.247 113.068 291.64 118.667 291.64 118.667H566.573C566.573 118.667 569.823 108.596 557.872 101.871Z" stroke="#263238" stroke-linecap="round" stroke-linejoin="round"/>
<path d="M395.277 97.2683C393.718 98.1733 392.097 98.9589 390.427 99.6187" stroke="#263238" stroke-linecap="round" stroke-linejoin="round"/>
<path d="M454.077 45.0366C451.381 46.2756 449.012 48.1606 447.168 50.5343C445.323 52.9081 444.057 55.7017 443.474 58.6821C441.477 68.9326 436.833 75.7553 431.54 76.4409C426.246 77.1264 406.34 75.0698 403.011 82.5944C402.126 84.7937 401.503 87.0958 401.157 89.4498" stroke="#263238" stroke-linecap="round" stroke-linejoin="round"/>
<path d="M289.548 182.308C283.288 178.799 280.435 181.72 278.153 178.799C275.87 175.877 284.413 168.238 267.328 160.599C267.328 160.599 266.186 144.179 242.841 143.591C219.495 143.004 225.74 160.012 219.479 164.19C213.219 168.369 211.555 161.84 205.215 165.953C198.876 170.066 201.808 178.276 196.673 179.452C191.537 180.627 184.706 174.163 178.446 178.276C172.186 182.39 172.106 185.899 169.333 185.899C166.559 185.899 160.79 183.549 157.367 185.899C153.943 188.249 149.965 191.171 149.965 191.171H294.081C294.081 191.171 295.793 185.834 289.548 182.308Z" stroke="#263238" stroke-linecap="round" stroke-linejoin="round"/>
<path d="M204.296 179.909C203.471 180.372 202.619 180.781 201.744 181.133" stroke="#263238" stroke-linecap="round" stroke-linejoin="round"/>
<path d="M235.122 152.503C233.708 153.151 232.466 154.139 231.498 155.382C230.53 156.626 229.865 158.09 229.559 159.653C228.513 165.023 226.088 168.614 223.22 168.973C220.351 169.332 210.017 168.254 208.274 172.237C207.814 173.391 207.484 174.596 207.291 175.828" stroke="#263238" stroke-linecap="round" stroke-linejoin="round"/>
<path d="M475.917 305.085C475.917 305.085 550.614 312.708 588.445 360.386C588.445 360.386 628.448 305.151 700.292 306.277C717.842 284.468 729.015 257.974 732.511 229.879C736.007 201.784 731.683 173.245 720.04 147.583C708.398 121.921 689.917 100.193 666.75 84.929C643.582 69.6645 616.681 61.4914 589.178 61.3614C561.675 61.2314 534.702 69.1497 511.4 84.1945C488.097 99.2393 469.423 120.792 457.553 146.342C445.682 171.893 441.103 200.39 444.349 228.517C447.594 256.643 458.531 283.242 475.885 305.216L475.917 305.085Z" fill="#34CB79"/>
<path opacity="0.5" d="M475.917 305.085C475.917 305.085 550.614 312.708 588.445 360.386C588.445 360.386 628.448 305.151 700.292 306.277C717.842 284.468 729.015 257.974 732.511 229.879C736.007 201.784 731.683 173.245 720.04 147.583C708.398 121.921 689.917 100.193 666.75 84.929C643.582 69.6645 616.681 61.4914 589.178 61.3614C561.675 61.2314 534.702 69.1497 511.4 84.1945C488.097 99.2393 469.423 120.792 457.553 146.342C445.682 171.893 441.103 200.39 444.349 228.517C447.594 256.643 458.531 283.242 475.885 305.216L475.917 305.085Z" fill="white"/>
<path d="M586.005 71.9032L583.469 660H596.085L586.005 71.9032Z" fill="#263238"/>
<path d="M589.776 345.859C589.776 345.859 614.992 299.111 660.321 284.829C660.321 284.829 612.409 296.516 588.461 336.767L589.776 345.859Z" fill="#263238"/>
<path d="M589.776 213.419C589.776 213.419 614.992 166.687 660.321 152.405C660.321 152.405 612.409 164.092 588.461 204.327L589.776 213.419Z" fill="#263238"/>
<path d="M589.776 279.639C589.776 279.639 614.992 232.891 660.321 218.609C660.321 218.609 612.409 230.296 588.461 270.547L589.776 279.639Z" fill="#263238"/>
<path d="M586.036 247.173C586.036 247.173 561.708 200.442 517.885 186.16C517.885 186.16 564.117 197.847 587.225 238.098L586.036 247.173Z" fill="#263238"/>
<path d="M586.036 312.088C586.036 312.088 561.708 265.356 517.885 251.074C517.885 251.074 564.117 262.761 587.225 303.012L586.036 312.088Z" fill="#263238"/>
<path d="M242.159 366.049C242.159 366.049 303.971 372.366 335.368 411.85C335.368 411.85 368.492 366.147 427.99 367.045C442.53 348.983 451.788 327.038 454.687 303.767C457.586 280.495 454.007 256.854 444.365 235.597C434.723 214.34 419.416 196.34 400.226 183.695C381.036 171.05 358.753 164.279 335.972 164.171C313.19 164.063 290.848 170.622 271.545 183.085C252.243 195.548 236.776 213.401 226.945 234.566C217.113 255.731 213.322 279.337 216.013 302.635C218.704 325.933 227.766 347.964 242.144 366.164L242.159 366.049Z" fill="#34CB79"/>
<path opacity="0.3" d="M242.159 366.049C242.159 366.049 303.971 372.366 335.368 411.85C335.368 411.85 368.492 366.147 427.99 367.045C442.53 348.983 451.788 327.038 454.687 303.767C457.586 280.495 454.007 256.854 444.365 235.597C434.723 214.34 419.416 196.34 400.226 183.695C381.036 171.05 358.753 164.279 335.972 164.171C313.19 164.063 290.848 170.622 271.545 183.085C252.243 195.548 236.776 213.401 226.945 234.566C217.113 255.731 213.322 279.337 216.013 302.635C218.704 325.933 227.766 347.964 242.144 366.164L242.159 366.049Z" fill="white"/>
<path d="M333.323 172.923L331.247 660H341.676L333.323 172.923Z" fill="#263238"/>
<path d="M336.461 399.821C336.461 399.821 357.334 361.104 394.928 349.221C394.928 349.221 355.306 358.9 335.415 392.231L336.461 399.821Z" fill="#263238"/>
<path d="M336.461 290.134C336.461 290.134 357.334 251.417 394.928 239.534C394.928 239.534 355.306 249.214 335.415 282.56L336.461 290.134Z" fill="#263238"/>
<path d="M336.461 344.977C336.461 344.977 357.334 306.26 394.928 294.378C394.928 294.378 355.306 304.057 335.415 337.404L336.461 344.977Z" fill="#263238"/>
<path d="M333.371 318.094C333.371 318.094 313.211 279.377 276.948 267.495C276.948 267.495 315.223 277.174 334.369 310.521L333.371 318.094Z" fill="#263238"/>
<path d="M333.371 371.86C333.371 371.86 313.211 333.143 276.948 321.261C276.948 321.261 315.223 330.94 334.369 364.287L333.371 371.86Z" fill="#263238"/>
<path d="M387.923 659.445C387.701 654.336 388.351 644.641 393.692 630.065C402.06 607.213 416.721 652.916 416.721 652.916C416.721 652.916 416.721 647.481 432.427 630.065C448.134 612.649 461.732 643.123 461.732 643.123C461.732 643.123 454.41 570.227 472.208 575.662C490.007 581.097 487.899 643.123 487.899 643.123C487.899 643.123 500.467 597.42 517.22 597.42C533.972 597.42 538.156 630.065 538.156 630.065C538.156 630.065 542.34 572.398 559.093 571.304C575.845 570.21 594.674 619.194 594.674 619.194C594.674 619.194 589.444 553.904 606.196 550.64C622.949 547.375 629.225 574.568 629.225 574.568C629.225 574.568 643.87 484.257 672.144 495.144C700.419 506.031 676.328 606.136 676.328 606.136C676.328 606.136 704.587 536.488 727.616 552.811C748.553 567.648 721.91 645.424 716.902 659.445H387.923Z" fill="#34CB79"/>
<path d="M725.825 659.298C725.825 659.298 738.092 620.271 731.8 613.742C725.508 607.213 698.359 635.516 698.359 635.516C698.359 635.516 718.249 565.869 686.836 557.169C655.424 548.469 650.209 624.629 650.209 624.629C650.209 624.629 627.18 589.814 621.934 602.871C618.774 610.83 617.003 619.301 616.704 627.894C616.704 627.894 605.198 533.224 579.015 537.582C552.833 541.94 576.923 635.516 576.923 635.516C576.923 635.516 562.279 602.871 545.526 606.136C528.774 609.4 522.434 630.065 522.434 630.065C522.434 630.065 515.112 611.571 509.866 611.571C504.62 611.571 498.359 644.216 498.359 644.216C498.359 644.216 492.02 594.155 480.561 596.343C469.102 598.53 444.964 640.952 444.964 640.952C444.964 640.952 449.164 617.007 436.596 615.929C424.027 614.852 416.705 652.916 416.705 652.916C416.705 652.916 399.953 617.007 389.492 623.536C379.032 630.065 384.024 660.392 384.024 660.392" stroke="#263238" stroke-linecap="round" stroke-linejoin="round"/>
<path d="M669.307 658.759L678.42 612.665" stroke="#263238" stroke-linecap="round" stroke-linejoin="round"/>
<path d="M604.104 659.445L598.858 628.987" stroke="#263238" stroke-linecap="round" stroke-linejoin="round"/>
<path d="M471.717 659.298L478.484 634.423" stroke="#263238" stroke-linecap="round" stroke-linejoin="round"/>
<path d="M552.801 660.539L541.294 638.781" stroke="#263238" stroke-linecap="round" stroke-linejoin="round"/>
<path d="M671.098 640.952L662.714 623.536" stroke="#263238" stroke-linecap="round" stroke-linejoin="round"/>
<path d="M604.104 649.652L611.427 634.423" stroke="#263238" stroke-linecap="round" stroke-linejoin="round"/>
<path d="M547.571 648.574L552.801 638.781" stroke="#263238" stroke-linecap="round" stroke-linejoin="round"/>
<path d="M473.825 650.06L470.116 636.594" stroke="#263238" stroke-linecap="round" stroke-linejoin="round"/>
<path d="M340.17 659.69C340.344 655.723 339.853 648.264 335.938 636.838C329.805 619.096 319.043 654.581 319.043 654.581C319.043 654.581 319.043 650.353 307.537 636.838C296.03 623.323 286.045 646.975 286.045 646.975C286.045 646.975 291.418 590.385 278.358 594.612C265.299 598.84 266.852 646.975 266.852 646.975C266.852 646.975 257.755 611.555 245.392 611.555C233.03 611.555 230.035 636.887 230.035 636.887C230.035 636.887 226.976 592.115 214.693 591.283C202.41 590.45 188.589 628.432 188.589 628.432C188.589 628.432 192.425 577.833 180.142 575.221C167.859 572.61 163.247 593.813 163.247 593.813C163.247 593.813 152.501 523.708 131.771 532.146C111.04 540.585 128.696 618.312 128.696 618.312C128.696 618.312 107.965 564.253 91.086 576.919C75.7283 588.442 95.2702 648.737 99.0105 659.69H340.17Z" fill="#34CB79"/>
<path d="M92.4016 659.576C92.4016 659.576 83.4151 629.281 88.0114 624.221C92.6076 619.161 112.577 641.115 112.577 641.115C112.577 641.115 97.9963 587.055 121.025 580.298C144.054 573.54 147.968 632.66 147.968 632.66C147.968 632.66 164.863 605.63 168.699 615.766C171.021 621.975 172.318 628.54 172.534 635.19C172.534 635.19 180.982 561.739 200.175 565.085C219.368 568.431 201.76 641.115 201.76 641.115C201.76 641.115 212.506 615.766 224.789 618.264C237.072 620.761 241.684 636.838 241.684 636.838C241.684 636.838 247.057 622.475 250.892 622.475C254.728 622.475 259.34 647.823 259.34 647.823C259.34 647.823 263.952 608.96 272.399 610.657C280.847 612.355 298.503 645.277 298.503 645.277C298.503 645.277 295.428 626.702 304.636 625.853C313.845 625.005 319.217 654.581 319.217 654.581C319.217 654.581 331.5 626.702 339.187 631.73C346.874 636.757 343.086 660.392 343.086 660.392" stroke="#263238" stroke-linecap="round" stroke-linejoin="round"/>
<path d="M133.847 659.151L127.158 623.372" stroke="#263238" stroke-linecap="round" stroke-linejoin="round"/>
<path d="M181.679 659.69L185.515 636.039" stroke="#263238" stroke-linecap="round" stroke-linejoin="round"/>
<path d="M278.771 659.576L273.794 640.266" stroke="#263238" stroke-linecap="round" stroke-linejoin="round"/>
<path d="M219.289 660.539L227.737 643.645" stroke="#263238" stroke-linecap="round" stroke-linejoin="round"/>
<path d="M132.547 645.326L138.681 631.811" stroke="#263238" stroke-linecap="round" stroke-linejoin="round"/>
<path d="M181.679 652.084L176.306 640.266" stroke="#263238" stroke-linecap="round" stroke-linejoin="round"/>
<path d="M223.125 651.251L219.289 643.645" stroke="#263238" stroke-linecap="round" stroke-linejoin="round"/>
<path d="M277.217 652.394L279.943 641.947" stroke="#263238" stroke-linecap="round" stroke-linejoin="round"/>
<path d="M1 660H757" stroke="#263238" stroke-linecap="round" stroke-linejoin="round"/>
<path d="M578.35 524.23L570.615 536.194L507.06 564.644C507.06 564.644 498.217 566.358 498.217 569.198C498.217 572.038 496.553 580.02 498.217 581.163C499.881 582.305 510.896 578.306 510.896 578.306C510.896 578.306 507.583 582.289 510.896 583.431C514.208 584.574 517.521 579.449 517.521 579.449C520.766 577.343 523.903 575.066 526.919 572.626C528.476 570.519 529.775 568.222 530.786 565.787L589.428 550.428L601.584 531.64C601.584 531.64 576.701 528.784 578.35 524.23Z" fill="#FFB39F" stroke="#263238" stroke-linecap="round" stroke-linejoin="round"/>
<path d="M582.771 497.396L575.576 521.716L594.389 533.256L601.98 514.29L582.771 497.396Z" fill="#8257E5" stroke="#263238" stroke-linecap="round" stroke-linejoin="round"/>
<path d="M576.321 512.882L599.143 526.903L595.134 534.313L573.531 522.773C573.681 519.294 574.637 515.902 576.321 512.882Z" fill="#8257E5" stroke="#263238" stroke-linecap="round" stroke-linejoin="round"/>
<path d="M531.151 642.437C531.151 642.437 515.143 650.68 510.737 654.385C506.331 658.09 505.539 657.649 506.728 660.571H557.968L556.763 641.604L531.151 642.437Z" fill="black" stroke="#263238" stroke-linecap="round" stroke-linejoin="round"/>
<path d="M557.777 657.731H506.727C506.03 658.498 506.109 659.119 506.727 660.62H557.967L557.777 657.731Z" fill="black" stroke="#263238" stroke-linecap="round" stroke-linejoin="round"/>
<path d="M599.983 544.388C599.983 544.388 580.378 536.145 564.37 534.497C548.363 532.848 515.143 533.664 513.543 541.026C511.942 548.387 537.158 629.167 537.158 629.167C537.158 629.167 532.752 632.056 532.403 634.064C532.054 636.071 531.214 642.225 531.214 642.225L556.826 646.338C556.826 646.338 557.619 638.095 557.619 630.277C557.619 622.458 548.823 574.209 548.823 574.209L600.443 591.119L581.234 633.15C581.234 633.15 575.243 645.522 582.042 651.708C588.841 657.894 600.047 656.605 600.047 656.605L691.306 657.845L689.721 642.584C689.721 642.584 676.518 640.527 674.109 640.527C671.7 640.527 625.675 628.579 625.675 628.579C625.675 628.579 662.508 588.997 666.502 582.403C668.878 578.752 670.497 574.635 671.255 570.309C672.013 565.983 671.895 561.543 670.908 557.267C668.499 547.375 666.898 545.302 666.898 545.302C666.898 545.302 638.814 559.193 624.407 555.928C615.582 553.85 607.268 549.922 599.983 544.388Z" fill="#263238" stroke="#263238" stroke-linecap="round" stroke-linejoin="round"/>
<path d="M534.749 417.841C534.749 417.841 537.554 427.324 537.554 428.564C537.554 429.805 535.541 435.975 537.158 438.031C538.774 440.088 543.497 440.512 543.497 440.512C543.497 440.512 550.693 449.163 553.894 452.46C557.096 455.758 560.693 456.998 564.703 454.941C568.713 452.885 572.311 447.515 572.311 447.515L579.918 455.35L597.527 434.326L591.187 426.083C591.187 426.083 592.772 416.6 586.781 404.244C580.79 391.888 559.964 388.574 546.35 391.055C532.736 393.537 529.55 401.763 529.55 403.412C529.55 405.06 534.749 417.841 534.749 417.841Z" fill="#FFB39F" stroke="#263238" stroke-linecap="round" stroke-linejoin="round"/>
<path d="M541.96 380.332C541.96 380.332 533.544 373.803 527.949 376.626C522.355 379.45 524.78 381.98 523.94 386.926C523.1 391.872 509.136 392.28 509.136 400.522C509.136 408.765 519.137 411.654 521.134 412.062C523.131 412.47 521.546 421.546 527.474 421.546C533.401 421.546 534.685 417.841 534.685 417.841C534.685 417.841 530.279 404.652 535.081 402.595C539.884 400.539 550.693 396.409 549.092 404.228C547.491 412.046 553.102 414.527 556.303 413.711C559.505 412.895 563.499 413.287 564.228 414.935C564.957 416.584 568.983 419.473 568.983 415.36C568.983 411.246 570.98 407.525 574.577 407.525C578.175 407.525 580.917 413.711 580.584 418.657C580.314 421.635 579.213 424.469 577.414 426.818L591.029 425.985C591.029 425.985 594.626 407.443 591.425 394.255C588.223 381.066 573.151 373.737 563.958 372.497C554.766 371.256 543.149 376.626 541.96 380.332Z" fill="#263238" stroke="#263238" stroke-linecap="round" stroke-linejoin="round"/>
<path d="M545.399 425.202C546.398 426.834 546.635 428.467 545.954 428.875C545.272 429.283 543.878 428.467 542.895 426.9C541.912 425.333 541.643 423.635 542.34 423.227C543.038 422.819 544.401 423.717 545.399 425.202Z" fill="#263238"/>
<path d="M550.598 443.712C552.51 443.32 554.243 442.288 555.528 440.776C556.812 439.265 557.575 437.359 557.698 435.354" stroke="#263238" stroke-linecap="round" stroke-linejoin="round"/>
<path d="M538.41 421.758C538.41 421.758 539.076 417.922 543.482 419.669" stroke="#263238" stroke-linecap="round" stroke-linejoin="round"/>
<path d="M580.774 462.352C580.774 462.352 577.604 489.561 581.17 497.804C584.736 506.047 597.59 539.018 597.59 539.018C597.59 539.018 594.785 559.193 602.789 564.579C610.792 569.965 641.207 570.765 652.824 563.339C664.441 555.912 669.228 550.15 669.228 544.796C669.228 539.443 661.62 515.938 649.622 492.45C640.837 475.249 628.709 460.092 613.994 447.923C605.594 440.92 602.392 437.623 600.792 437.623C599.191 437.623 579.982 454.533 580.774 462.352Z" fill="#8257E5" stroke="#263238" stroke-linecap="round" stroke-linejoin="round"/>
<path d="M597.59 432.27L575.972 457.406L580.378 471.019L604.785 438.456L597.59 432.27Z" fill="#8257E5" stroke="#263238" stroke-linecap="round" stroke-linejoin="round"/>
<path d="M597.986 524.181C597.986 524.181 553.958 550.15 548.363 552.223C542.768 554.296 524.748 554.28 519.534 553.855C518.894 553.738 518.237 553.767 517.61 553.94C516.983 554.114 516.4 554.428 515.904 554.859C515.408 555.291 515.01 555.83 514.739 556.438C514.467 557.046 514.33 557.708 514.335 558.377L513.543 574.046C513.543 574.046 517.933 575.287 519.882 574.046C521.832 572.806 523.876 568.268 523.876 568.268C523.876 568.268 531.088 569.1 533.481 567.452C535.052 566.351 536.526 565.112 537.887 563.747C545.282 563.114 552.633 562.024 559.901 560.482C567.905 558.409 604.722 546.053 610.333 544.813C615.943 543.572 617.94 540.275 618.337 538.284C618.733 536.292 597.986 524.181 597.986 524.181Z" fill="#FFB39F" stroke="#263238" stroke-linecap="round" stroke-linejoin="round"/>
<path d="M547.793 552.386C541.675 554.263 524.59 554.263 519.534 553.872C518.894 553.754 518.237 553.783 517.61 553.957C516.983 554.13 516.4 554.444 515.904 554.875C515.408 555.307 515.01 555.846 514.739 556.454C514.467 557.062 514.33 557.724 514.335 558.393L513.543 574.062C513.543 574.062 517.933 575.303 519.882 574.062C521.832 572.822 523.876 568.284 523.876 568.284C523.876 568.284 531.088 569.117 533.481 567.468C535.052 566.368 536.526 565.128 537.887 563.763C537.887 563.763 544.607 563.159 551.406 562.131L547.793 552.386Z" fill="#34CB79" stroke="#263238" stroke-linecap="round" stroke-linejoin="round"/>
<path d="M601.188 462.776C601.188 462.776 594.389 470.595 595.181 476.373C595.974 482.151 597.987 524.181 597.987 524.181L620.793 533.664L627.133 500.285C627.133 500.285 632.347 491.618 631.539 483.375" fill="#8257E5"/>
<path d="M601.188 462.776C601.188 462.776 594.389 470.595 595.181 476.373C595.974 482.151 597.987 524.181 597.987 524.181L620.793 533.664L627.133 500.285C627.133 500.285 632.347 491.618 631.539 483.375" stroke="#263238" stroke-linecap="round" stroke-linejoin="round"/>
<path d="M595.99 526.254L619.193 540.667C619.193 540.667 622.362 540.667 622.806 535.313C623.25 529.959 625.596 529.127 623.599 526.254C621.602 523.381 600.38 514.29 598.383 514.29C596.386 514.29 594.389 519.235 595.99 526.254Z" fill="#8257E5" stroke="#263238" stroke-linecap="round" stroke-linejoin="round"/>
<path d="M689.641 642.894C689.641 642.894 701.639 632.187 703.652 632.595C705.665 633.003 721.656 648.672 721.656 648.672C721.656 648.672 736.459 656.915 736.459 658.156C736.459 659.396 734.066 659.788 734.066 659.788L691.274 658.156L689.641 642.894Z" fill="black" stroke="black" stroke-linecap="round" stroke-linejoin="round"/>
<path d="M736.396 658.155C736.396 656.915 721.593 648.672 721.593 648.672C721.593 648.672 705.586 633.003 703.589 632.595C702.875 632.448 700.878 633.721 698.628 635.418L717.995 649.488L732.101 659.722L734.003 659.804C734.003 659.804 736.396 659.38 736.396 658.155Z" fill="black" stroke="#263238" stroke-linecap="round" stroke-linejoin="round"/>
<path d="M600.379 591.38L596.385 574.062" stroke="#999999" stroke-linecap="round" stroke-linejoin="round"/>
<path d="M461.13 522.761C456.375 519.986 449.385 516.232 449.385 516.232C449.385 516.232 439.971 491.748 432.585 480.323C425.2 468.897 420.825 467.51 412.758 466.824C404.691 466.139 380.521 472.7 379.475 474.43C379.475 474.43 356.97 485.154 351.264 492.777C345.558 500.399 347.555 559.535 347.555 559.535C347.555 559.535 323.401 576.38 317.03 595.102C312.973 606.968 317.696 626.572 339.536 632.464C346.822 634.472 354.47 634.646 361.835 632.97C367.509 637.899 373.793 642.032 380.521 645.261C403.027 656.327 417.798 658.4 431.571 659.102C445.344 659.804 459.45 655.299 462.144 652.573C464.838 649.847 470.211 639.075 456.438 623.519C444.567 610.086 408.748 595.135 399.081 591.266C400.042 585.457 400.572 579.58 400.665 573.687C400.665 573.687 421.491 549.203 422.854 543.588C424.217 537.974 427.609 515.22 427.609 515.22C427.609 515.22 439.036 536.684 442.396 539.785C445.756 542.887 465.234 540.487 467.247 540.487C469.26 540.487 470.274 531.494 470.274 531.494C467.721 528.078 464.63 525.126 461.13 522.761Z" fill="#34CB79" stroke="#263238" stroke-linecap="round" stroke-linejoin="round"/>
<path d="M456.438 623.438C444.567 610.004 408.748 595.053 399.081 591.185C399.382 589.373 399.635 587.61 399.825 585.945C390.788 588.001 381.404 587.806 372.454 585.374C346.921 578.453 341.548 564.269 341.548 564.269H341.358C333.735 570.635 321.325 582.436 317.03 595.053C312.973 606.919 317.696 626.523 339.536 632.415C346.822 634.423 354.47 634.597 361.835 632.921C367.509 637.85 373.793 641.983 380.521 645.212C403.027 656.278 417.798 658.351 431.571 659.053C445.344 659.755 459.45 655.25 462.144 652.524C464.838 649.798 470.211 638.993 456.438 623.438Z" fill="#8257E5" stroke="#263238" stroke-linecap="round" stroke-linejoin="round"/>
<path d="M330.454 597.485C330.454 597.485 342.547 582.256 358.349 588.491C413.551 610.282 427.546 634.504 431.254 644.184C434.963 653.863 433.6 659.07 430.589 661.143C427.577 663.215 395.99 655.609 380.87 650.076C365.75 644.543 345.59 647.301 328.457 632.431C311.324 617.562 314.019 603.051 319.392 590.564" fill="#8257E5"/>
<path d="M330.454 597.485C330.454 597.485 342.547 582.256 358.349 588.491C413.551 610.282 427.546 634.504 431.254 644.184C434.963 653.863 433.6 659.07 430.589 661.143C427.577 663.215 395.99 655.609 380.87 650.076C365.75 644.543 345.59 647.301 328.457 632.431C311.324 617.562 314.019 603.051 319.392 590.564" stroke="#263238" stroke-linecap="round" stroke-linejoin="round"/>
<path d="M470.211 531.445C467.67 528.063 464.601 525.14 461.13 522.794C456.375 520.019 449.386 516.265 449.386 516.265C449.386 516.265 446.676 509.214 443.046 500.905C438.973 504.398 432.3 511.107 429.733 519.252C433.22 525.618 439.908 537.533 442.412 539.785C445.756 542.903 465.251 540.487 467.263 540.487C469.276 540.487 470.211 531.445 470.211 531.445Z" fill="#8C6D50" stroke="#263238" stroke-linecap="round" stroke-linejoin="round"/>
<path d="M427.545 515.139L427.213 496.466" stroke="#263238" stroke-linecap="round" stroke-linejoin="round"/>
<path d="M481.115 562.114C477.341 563.507 473.719 565.302 470.306 567.468C467.136 569.933 466.709 572.006 466.709 575.711C466.709 579.416 459.497 584.362 463.111 584.362C466.724 584.362 469.45 583.121 472.715 576.952C475.98 570.782 479.911 568.954 479.911 568.954C480.16 571.938 480.691 574.89 481.496 577.768C482.615 580.225 482.763 583.035 481.908 585.602C481.1 588.867 485.078 588.083 486.298 579.073C486.944 573.324 486.119 567.5 483.905 562.18L481.115 562.114Z" fill="#E6C40F" stroke="#263238" stroke-linecap="round" stroke-linejoin="round"/>
<path d="M480.323 552.19C480.323 552.19 481.512 559.144 481.116 560.727C480.719 562.31 475.109 566.734 473.112 570.52C472.314 572.061 471.831 573.755 471.695 575.496C471.559 577.236 471.771 578.988 472.319 580.64C473.112 583.17 475.489 591.38 476.709 589.177C477.93 586.973 478.294 584.427 478.294 579.694C478.294 574.96 477.502 570.831 479.879 568.937L482.288 567.044C483.45 569.805 484.389 572.66 485.094 575.58C486.679 581.587 483.889 586.647 484.682 587.594C485.474 588.54 488.691 587.904 489.088 585.374C489.484 582.844 491.085 580.004 491.085 574.944C491.059 571.858 490.162 568.846 488.501 566.277C487.753 564.146 487.149 561.964 486.694 559.748C485.981 555.928 483.525 548.714 480.323 552.19Z" fill="#E6C40F" stroke="#263238" stroke-linecap="round" stroke-linejoin="round"/>
<path d="M492.717 541.091C494.456 544.117 496.043 547.234 497.472 550.428C498.47 553.202 499.152 556.32 497.472 556.957C495.792 557.593 494.445 552.811 493.43 550.738C492.416 548.665 489.024 539.704 492.717 541.091Z" fill="#34CB79" stroke="#263238" stroke-linecap="round" stroke-linejoin="round"/>
<path d="M492.717 541.091C490.704 536.602 479.277 529.665 476.25 527.952C474.142 526.727 467.406 526.548 463.571 526.531C462.652 526.384 461.716 526.384 460.797 526.531C460.797 526.531 455.424 530.677 455.757 535.182C455.882 536.467 456.416 537.673 457.276 538.612C458.136 539.551 459.274 540.17 460.512 540.373H462.097C461.84 542.052 462.124 543.772 462.905 545.27C465.584 549.53 467.216 554.398 467.66 559.454C467.66 563.959 472.7 562.229 473.365 558.768C474.031 555.308 472.367 549.089 472.367 547.702C472.367 546.314 475.045 542.511 475.045 542.511C475.045 542.511 482.447 550.46 483.445 552.19C484.444 553.92 484.793 562.914 487.487 563.616C490.181 564.318 490.165 558.719 490.165 558.719C490.722 558.767 491.282 558.695 491.811 558.508C492.339 558.321 492.824 558.023 493.235 557.634C493.646 557.244 493.974 556.771 494.199 556.244C494.423 555.718 494.539 555.149 494.54 554.573C495.096 549.992 494.467 545.342 492.717 541.091Z" fill="#34CB79" stroke="#263238" stroke-linecap="round" stroke-linejoin="round"/>
<path d="M485.331 542.136C485.331 542.136 490.355 545.237 490.355 548.355C490.355 551.472 490.023 558.736 490.023 558.736" stroke="#263238" stroke-linecap="round" stroke-linejoin="round"/>
<path d="M432.253 652.23C432.253 657.127 434.931 657.764 424.518 664.342C414.106 670.92 398.32 666.415 382.867 662.954C367.414 659.494 348.934 656.719 341.882 656.719C334.829 656.719 317.981 659.412 311.642 659.412C305.302 659.412 294.857 658.727 296.205 655.266C297.552 651.806 314.669 646.256 316.016 644.885C317.363 643.514 317.03 640.723 320.39 635.533C321.15 634.109 322.38 633.014 323.858 632.445C325.335 631.876 326.961 631.871 328.442 632.431C334.376 638.03 341.748 641.752 349.679 643.155C362.358 645.228 385.609 646.256 394.691 646.256C403.772 646.256 415.183 650.419 416.182 650.419" fill="#8257E5"/>
<path d="M432.253 652.23C432.253 657.127 434.931 657.764 424.518 664.342C414.106 670.92 398.32 666.415 382.867 662.954C367.414 659.494 348.934 656.719 341.882 656.719C334.829 656.719 317.981 659.412 311.642 659.412C305.302 659.412 294.857 658.727 296.205 655.266C297.552 651.806 314.669 646.256 316.016 644.885C317.363 643.514 317.03 640.723 320.39 635.533C321.15 634.109 322.38 633.014 323.858 632.445C325.335 631.876 326.961 631.871 328.442 632.431C334.376 638.03 341.748 641.752 349.679 643.155C362.358 645.228 385.609 646.256 394.691 646.256C403.772 646.256 415.183 650.419 416.182 650.419" stroke="#263238" stroke-linecap="round" stroke-linejoin="round"/>
<path d="M349.679 643.155C341.77 641.741 334.421 638.019 328.505 632.431C327.024 631.871 325.398 631.876 323.921 632.445C322.444 633.014 321.214 634.109 320.454 635.533C317.094 640.723 317.426 643.498 316.079 644.885C314.732 646.273 297.599 651.806 296.268 655.266C294.937 658.727 305.302 659.412 311.641 659.412C317.981 659.412 334.829 656.638 341.881 656.638C345.546 656.743 349.202 657.053 352.833 657.568C352.833 657.258 352.706 656.948 352.627 656.638C351.644 652.328 354.466 646.697 356.035 644.02C353.705 643.759 351.534 643.465 349.679 643.155Z" fill="black" stroke="#263238" stroke-linecap="round" stroke-linejoin="round"/>
<path d="M328.442 632.431C326.961 631.871 325.335 631.876 323.858 632.445C322.38 633.014 321.15 634.109 320.39 635.533C317.03 640.723 317.363 643.498 316.016 644.885C314.669 646.273 297.536 651.806 296.205 655.266C295.713 656.491 296.728 657.356 298.503 657.976C302.449 653.618 314.986 649.994 318.488 647.366C321.991 644.738 319.376 643.841 323.069 638.65C323.988 637.438 325.133 636.427 326.437 635.676C327.74 634.925 329.176 634.449 330.66 634.276C329.202 633.199 328.442 632.431 328.442 632.431Z" stroke="#263238" stroke-linecap="round" stroke-linejoin="round"/>
<path d="M359.347 485.742C359.347 485.742 345.574 491.275 342.896 502.684C340.217 514.094 345.241 585.031 345.241 586.761C345.241 588.491 354.307 590.222 368.428 591.658C382.55 593.094 408.733 593.388 408.733 593.388C408.733 593.388 420.16 598.562 422.505 598.562C424.851 598.562 429.891 595.461 429.891 595.461C429.891 595.461 429.225 598.562 431.904 597.877C434.582 597.191 443.664 589.569 443.664 588.198C443.664 586.827 437.625 580.232 433.933 579.547C430.24 578.861 413.773 585.423 412.093 585.423C410.413 585.423 381.187 578.894 375.814 576.429C371.542 574.644 367.164 573.14 362.707 571.924L365.068 512.086" fill="#34CB79"/>
<path d="M359.347 485.742C359.347 485.742 345.574 491.275 342.896 502.684C340.217 514.094 345.241 585.031 345.241 586.761C345.241 588.491 354.307 590.222 368.428 591.658C382.55 593.094 408.733 593.388 408.733 593.388C408.733 593.388 420.16 598.562 422.505 598.562C424.851 598.562 429.891 595.461 429.891 595.461C429.891 595.461 429.225 598.562 431.904 597.877C434.582 597.191 443.664 589.569 443.664 588.198C443.664 586.827 437.625 580.232 433.933 579.547C430.24 578.861 413.773 585.423 412.093 585.423C410.413 585.423 381.187 578.894 375.814 576.429C371.542 574.644 367.164 573.14 362.707 571.924L365.068 512.086" stroke="#263238" stroke-linecap="round" stroke-linejoin="round"/>
<path d="M433.933 579.498C430.224 578.796 413.773 585.374 412.093 585.374C410.413 585.374 381.187 578.845 375.814 576.38C371.542 574.595 367.164 573.091 362.707 571.875L363.991 539.083L342.611 538.235C343.514 560.907 345.242 585.749 345.242 586.761C345.242 588.491 354.307 590.222 368.429 591.658C382.55 593.094 408.733 593.388 408.733 593.388C408.733 593.388 420.16 598.562 422.506 598.562C424.851 598.562 429.891 595.461 429.891 595.461C429.891 595.461 429.226 598.562 431.904 597.877C434.583 597.191 443.664 589.569 443.664 588.198C443.664 586.826 437.626 580.183 433.933 579.498Z" fill="#8C6D50" stroke="#263238" stroke-linecap="round" stroke-linejoin="round"/>
<path d="M443.664 588.149C443.664 586.761 437.626 580.183 433.933 579.498C430.24 578.812 413.773 585.374 412.093 585.374C411.57 585.374 408.368 584.737 404.041 583.742C402.456 585.374 400.951 588.181 401.458 593.143L408.733 593.29C408.733 593.29 420.16 598.464 422.506 598.464C424.851 598.464 429.891 595.363 429.891 595.363C429.891 595.363 429.226 598.464 431.904 597.779C434.583 597.093 443.664 589.52 443.664 588.149Z" fill="#34CB79" stroke="#263238" stroke-linecap="round" stroke-linejoin="round"/>
<path d="M370.441 417.922C370.441 417.922 357.667 407.558 352.627 411.018C347.587 414.478 326.429 442.145 324.416 449.751C322.403 457.357 333.481 459.104 329.456 465.323C325.43 471.541 317.696 473.973 320.723 481.645C323.75 489.316 335.843 489.953 338.521 491.683C341.2 493.413 345.574 499.991 355.321 497.217C365.069 494.442 363.04 481.645 370.441 479.915C377.843 478.185 377.161 467.82 373.801 459.512C370.441 451.204 368.429 439.794 372.454 434.604C376.48 429.413 370.441 417.922 370.441 417.922Z" fill="#263238" stroke="#263238" stroke-linecap="round" stroke-linejoin="round"/>
<path d="M377.891 410.806C377.891 410.806 367.589 411.41 362.723 424.663C357.857 437.917 362.723 457.667 364.149 460.915C365.576 464.164 373.025 467.444 377.605 464.735C382.186 462.025 388.478 451.775 393.042 449.114C397.607 446.454 406.783 435.273 406.783 435.273L413.361 443.81C413.361 443.81 417.656 443.222 419.368 434.685C421.079 426.149 414.803 417.008 404.501 411.703C394.199 406.399 383.042 406.692 377.891 410.806Z" fill="#263238" stroke="#263238" stroke-linecap="round" stroke-linejoin="round"/>
<path d="M376.48 470.513C376.48 470.513 376.813 480.894 379.174 485.399C381.536 489.904 387.574 509.883 395.293 510.65C403.011 511.417 402.678 482.624 402.678 482.624C402.678 482.624 393.613 482.967 388.24 477.091C382.867 471.215 377.161 467.787 376.48 470.513Z" stroke="#263238" stroke-linecap="round" stroke-linejoin="round"/>
<path d="M407.925 426.72C407.925 426.72 395.911 441.165 386.465 447.352C377.019 453.538 372.74 454.419 372.74 454.419C372.74 454.419 376.448 453.832 373.881 456.492C371.313 459.153 370.711 459.757 369.3 457.373C367.89 454.99 362.153 452.656 360.996 458.549C360.504 461.008 360.87 463.568 362.03 465.777C363.189 467.986 365.068 469.704 367.335 470.627C369.777 471.686 372.488 471.893 375.054 471.215C375.054 471.215 375.91 481.237 387.353 487.129C398.796 493.022 409.399 484.779 412.537 478.593C415.675 472.406 414.55 444.414 413.963 439.696C413.377 434.979 407.925 426.72 407.925 426.72Z" fill="#8C6D50" stroke="#263238" stroke-linecap="round" stroke-linejoin="round"/>
<path d="M405.04 454.599C405.04 454.599 404.358 460.132 405.373 460.475C406.387 460.817 410.127 462.205 408.733 464.294C407.338 466.383 405.373 467.755 403.027 466.71" stroke="#263238" stroke-linecap="round" stroke-linejoin="round"/>
<path d="M389.92 471.558C389.92 471.558 392.614 476.046 403.027 473.631" stroke="#263238" stroke-linecap="round" stroke-linejoin="round"/>
<path d="M395.974 456.851C395.974 458.483 395.213 459.789 394.294 459.789C393.375 459.789 392.614 458.467 392.614 456.851C392.614 455.235 393.359 453.913 394.294 453.913C395.229 453.913 395.974 455.219 395.974 456.851Z" fill="#263238"/>
<path d="M410.413 455.121C410.413 456.753 409.668 458.059 408.733 458.059C407.798 458.059 407.053 456.737 407.053 455.121C407.053 453.505 407.798 452.183 408.733 452.183C409.668 452.183 410.413 453.489 410.413 455.121Z" fill="#263238"/>
<path d="M389.302 451.465C390.219 450.305 391.411 449.409 392.764 448.866C394.117 448.322 395.583 448.149 397.02 448.363" stroke="#263238" stroke-linecap="round" stroke-linejoin="round"/>
<path d="M405.373 448.021C405.373 448.021 407.385 443.532 411.712 446.65" stroke="#263238" stroke-linecap="round" stroke-linejoin="round"/>
<path d="M517.14 569.525C517.14 569.525 484.713 580.249 475.933 583.546C467.152 586.843 438.307 587.251 436.31 590.548C434.313 593.845 419.954 612.485 417.149 623.193C414.343 633.9 418.068 662.905 420.746 664.717C431.508 672.046 459.814 669.793 471.796 669.32C493.715 668.488 514.937 676.632 527.268 653.65C531.262 646.224 525.493 620.222 524.7 611.571C523.908 602.92 521.087 588.491 520.691 586.418C520.294 584.345 523.147 571.173 517.14 569.525Z" fill="black" stroke="#263238" stroke-linecap="round" stroke-linejoin="round"/>
<path d="M476.583 611.424C493.731 605.189 508.36 586.941 512.909 583.872C517.457 580.804 519.946 574.079 519.946 574.079C512.762 579.064 504.964 583.038 496.758 585.896" stroke="#263238" stroke-linecap="round" stroke-linejoin="round"/>
<path d="M519.47 577.049C516.228 587.361 510.496 596.656 502.813 604.063" stroke="#263238" stroke-linecap="round" stroke-linejoin="round"/>
<path d="M442.777 591.593C442.777 591.593 447.817 594.188 464.965 594.188" stroke="#263238" stroke-linecap="round" stroke-linejoin="round"/>
<path d="M440.748 592.115C440.748 592.115 444.789 610.298 467.501 617.578" stroke="#263238" stroke-linecap="round" stroke-linejoin="round"/>
<path d="M436.722 598.366C440.166 604.622 444.796 610.1 450.337 614.477" stroke="#263238" stroke-linecap="round" stroke-linejoin="round"/>
<path d="M118.188 511.482C118.188 511.482 127.143 537.778 127.143 548.387C127.143 558.997 134.306 617.121 135.194 623.585C135.789 627.599 137.003 631.489 138.792 635.108C144.909 640.931 151.858 645.753 159.395 649.407C172.376 655.936 171.932 654.026 169.697 656.784C167.463 659.543 146.843 660.049 137.444 659.102C128.046 658.155 118.632 661.404 118.188 657.258C117.744 653.112 117.728 636.496 117.728 629.118C117.728 621.74 98.9154 585.308 96.6807 573.752C94.4459 562.196 95.3335 544.241 95.3335 544.241L84.144 516.493L118.188 511.482Z" fill="#FFB39F" stroke="#263238" stroke-linecap="round" stroke-linejoin="round"/>
<path d="M135.717 639.727V646.256L117.839 642.714C117.839 648.95 117.998 655.038 118.251 657.405C118.695 661.55 128.093 658.319 137.508 659.249C146.922 660.179 167.51 659.706 169.761 656.931C172.011 654.156 172.439 656.017 159.459 649.553C151.925 645.893 144.977 641.072 138.855 635.255C138.855 635.255 135.717 635.565 135.717 639.727Z" fill="black" stroke="#263238" stroke-linecap="round" stroke-linejoin="round"/>
<path d="M81.4497 514.257C81.4497 514.257 82.7493 543.164 78.2799 554.851C55.8852 613.889 54.9976 636.038 54.9976 636.038C54.9976 636.038 77.424 653.552 82.3531 655.495C87.2821 657.437 89.9606 658.253 86.8225 660.555C83.6844 662.856 55.4731 662.399 50.544 662.399C45.615 662.399 33.5221 658.71 32.1908 656.409C30.8595 654.107 35.3606 635.647 35.3606 635.647C35.3606 635.647 37.6112 589.52 37.6112 578.91C37.6112 568.3 48.8006 547.555 48.8006 543.849C48.8006 540.144 46.5659 512.494 46.5659 512.494C46.5659 512.494 73.3984 519.333 81.4497 514.257Z" fill="#FFB39F" stroke="#263238" stroke-linecap="round" stroke-linejoin="round"/>
<path d="M86.8226 660.473C89.9924 658.172 87.2822 657.209 82.3531 655.413C77.4241 653.618 55.0294 636.038 55.0294 636.038C55.0294 636.038 52.7947 636.953 52.7947 640.641C52.8955 642.583 52.4261 644.512 51.4475 646.175C51.4475 646.175 44.2837 644.804 35.7728 642.91C35.0596 642.763 34.4097 642.616 33.7758 642.453C32.6188 647.954 31.3984 654.94 32.1909 656.295C33.5222 658.596 45.615 662.285 50.5441 662.285C55.4731 662.285 83.7003 662.791 86.8226 660.473Z" fill="black" stroke="#263238" stroke-linecap="round" stroke-linejoin="round"/>
<path d="M118.632 375.402L135.194 400.31L203.725 390.174V403.542C203.725 403.542 135.717 422.917 132.959 420.615C130.201 418.314 107.426 407.231 107.426 407.231L118.632 375.402Z" fill="#FFB39F" stroke="#263238" stroke-linecap="round" stroke-linejoin="round"/>
<path d="M57.264 342.659C57.264 342.659 52.335 372.187 52.335 384.167V426.606C52.335 426.606 38.0708 450.143 35.7727 470.888C33.4746 491.634 33.0784 514.714 33.0784 514.714C33.0784 514.714 54.5855 524.41 72.0512 523.022C82.4438 522.206 92.7698 520.657 102.957 518.387L127.586 512.396L109.217 426.606C109.217 426.606 118.188 402.122 119.519 400.784C120.85 399.445 125.859 382.829 124.004 370.326C122.15 357.823 115.493 332.05 101.61 325.129C87.7259 318.208 63.5403 326.517 57.264 342.659Z" fill="#8257E5" stroke="#263238" stroke-linecap="round" stroke-linejoin="round"/>
<path d="M77.6777 426.981C76.7067 434.505 73.6343 441.576 68.834 447.335C60.9094 456.753 54.3796 458.565 54.3796 458.565C54.3796 458.565 50.5442 496.906 52.0181 511.858" stroke="#263238" stroke-linecap="round" stroke-linejoin="round"/>
<path d="M81.8303 428.254C81.0347 435.327 78.822 442.152 75.3322 448.298C69.7216 457.716 57.8982 461.062 57.8982 461.062" stroke="#263238" stroke-linecap="round" stroke-linejoin="round"/>
<path d="M109.677 339.428C107.331 331.185 100.532 325.749 97.2037 323.513C86.8543 320.885 73.2241 324.607 64.4754 332.523C64.3169 333.503 64.206 334.384 63.9841 335.282C63.5403 337.126 56.8203 377.247 56.8203 377.247C56.8203 377.247 58.4052 377.573 60.8777 378.03C58.4052 391.006 61.1788 412.65 61.1788 412.65C61.1788 412.65 74.4128 417.041 84.6513 416.6C94.8897 416.159 106.84 410.071 106.84 410.071C106.84 406.366 109.835 387.775 111.246 379.222H111.912C111.912 379.222 112.799 350.494 109.677 339.428Z" fill="#34CB79" stroke="#263238" stroke-linecap="round" stroke-linejoin="round"/>
<path d="M91.0542 374.864C91.0542 374.864 75.2051 391.186 67.1538 393.749Z" fill="white"/>
<path d="M91.0542 374.864C91.0542 374.864 75.2051 391.186 67.1538 393.749" stroke="#263238" stroke-linecap="round" stroke-linejoin="round"/>
<path d="M91.0544 383.204C91.0544 383.204 82.0838 391.561 74.8408 397.715Z" fill="white"/>
<path d="M91.0544 383.204C91.0544 383.204 82.0838 391.561 74.8408 397.715" stroke="#263238" stroke-linecap="round" stroke-linejoin="round"/>
<path d="M125.573 502.995C117.647 507.351 108.803 509.632 99.8187 509.638C99.8187 509.638 86.3787 515.644 65.3312 514.714C54.1025 514.086 43.1693 510.778 33.3953 505.051C33.1576 510.927 33.0784 514.714 33.0784 514.714C33.0784 514.714 54.5855 524.409 72.0512 523.022C82.4438 522.206 92.7698 520.657 102.957 518.387L127.586 512.396L125.573 502.995Z" fill="#34CB79" stroke="#263238" stroke-linecap="round" stroke-linejoin="round"/>
<path d="M100.263 519.333L101.166 469.044" stroke="#263238" stroke-linecap="round" stroke-linejoin="round"/>
<path d="M144.608 278.545V290.526C144.608 290.526 150.425 295.145 146.843 298.377C145.403 299.871 143.739 301.117 141.914 302.066C141.914 302.066 139.679 312.675 134.75 317.751C129.821 322.828 127.143 321.897 119.979 316.821C112.815 311.745 108.33 308.529 108.33 308.529C108.33 308.529 112.799 285.923 115.937 278.545C119.075 271.167 128.934 270.237 133.863 271.151C138.792 272.065 144.608 278.545 144.608 278.545Z" fill="#FFB39F" stroke="#263238" stroke-linecap="round" stroke-linejoin="round"/>
<path d="M139.711 289.628C139.711 291.015 139.109 292.142 138.38 292.142C137.651 292.142 137.048 291.015 137.048 289.628C137.048 288.24 137.635 287.098 138.38 287.098C139.125 287.098 139.711 288.24 139.711 289.628Z" fill="#263238"/>
<path d="M135.479 283.67C135.479 283.67 137.936 279.557 141.264 282.985" stroke="#263238" stroke-linecap="round" stroke-linejoin="round"/>
<path d="M132.151 302.931C133.623 304.473 135.615 305.373 137.714 305.444" stroke="#263238" stroke-linecap="round" stroke-linejoin="round"/>
<path d="M124.623 274.66C124.623 274.66 115.208 297.903 115.684 309.052C116.159 320.2 128.363 352.175 123.212 362.834C118.061 373.492 107.189 381.278 99.264 368.645C91.3395 356.011 88.4391 352.175 83.2723 359.912C78.1055 367.649 71.9878 381.719 60.2278 381.719C48.4678 381.719 34.2829 365.739 41.3357 348.78C48.3885 331.821 64.3961 324.558 74.27 308.089C81.5197 296.386 86.6231 283.412 89.3267 269.812L125.542 271.265L124.623 274.66Z" fill="#263238" stroke="#263238" stroke-linecap="round" stroke-linejoin="round"/>
<path d="M88.3757 277.076H144.83C144.83 277.076 144.83 252.364 140.075 248.495C135.321 244.627 98.218 245.59 93.9863 248.495C89.7546 251.401 86.5848 274.171 88.3757 277.076Z" fill="#34CB79" stroke="#263238" stroke-linecap="round" stroke-linejoin="round"/>
<path d="M126.794 276.815C126.794 276.815 139.965 282.136 151.725 282.136C163.485 282.136 169.602 276.815 169.602 276.815H126.794Z" fill="#34CB79" stroke="#263238" stroke-linecap="round" stroke-linejoin="round"/>
<path d="M219.4 387.807C219.4 387.807 224.329 386.893 224.329 390.582C224.329 394.271 218.512 393.846 213.583 391.969C208.654 390.092 215.374 388.787 219.4 387.807Z" fill="#34CB79" stroke="#263238" stroke-linecap="round" stroke-linejoin="round"/>
<path d="M220.303 392.475C220.303 392.475 225.233 391.545 225.233 395.25C225.233 398.955 219.4 398.515 214.487 396.621C209.574 394.728 216.278 393.406 220.303 392.475Z" fill="#34CB79" stroke="#263238" stroke-linecap="round" stroke-linejoin="round"/>
<path d="M221.207 397.095C221.207 397.095 226.12 396.164 226.12 399.853C226.12 403.542 220.303 403.118 215.374 401.241C210.445 399.364 217.165 398.009 221.207 397.095Z" fill="#34CB79" stroke="#263238" stroke-linecap="round" stroke-linejoin="round"/>
<path d="M220.319 401.812C220.319 401.812 225.248 400.881 225.248 404.57C225.248 408.259 219.416 407.835 214.503 405.958C209.59 404.081 216.294 402.726 220.319 401.812Z" fill="#34CB79" stroke="#263238" stroke-linecap="round" stroke-linejoin="round"/>
<path d="M198.796 392.475C198.796 392.475 171.029 455.202 171.029 459.397C171.029 463.592 171.029 474.61 173.723 481.074C176.417 487.537 192.536 499.518 199.7 500.905C206.863 502.293 237.325 494.915 240.907 493.984C244.489 493.054 253.903 467.232 253.444 462.156C252.984 457.08 241.351 437.672 239.56 434.489C237.769 431.306 222.998 410.495 221.207 406.741C219.416 402.987 214.027 393.373 214.027 393.373L198.796 392.475Z" fill="black" stroke="#263238" stroke-linecap="round" stroke-linejoin="round"/>
<path d="M203.725 403.542L200.144 430.768" stroke="#263238" stroke-linecap="round" stroke-linejoin="round"/>
<path d="M210.001 400.31V436.301" stroke="#263238" stroke-linecap="round" stroke-linejoin="round"/>
<path d="M214.487 396.621L227.023 437.215" stroke="#263238" stroke-linecap="round" stroke-linejoin="round"/>
<path d="M126.208 396.164C126.208 396.164 104.272 339.036 98.44 336.196C92.6075 333.356 75.1894 333.943 76.9803 355.162C78.7713 376.382 113.259 420.664 117.728 421.121C122.198 421.578 192.536 397.601 192.536 397.601C192.536 397.601 216.309 400.865 218.069 398.058C219.828 395.25 220.303 385.147 220.303 385.147C220.303 385.147 223.473 378.226 220.303 375.925C217.134 373.623 202.869 374.994 200.603 374.994C198.337 374.994 187.607 386.061 187.607 386.061L126.208 396.164Z" fill="#FFB39F" stroke="#263238" stroke-linecap="round" stroke-linejoin="round"/>
<path d="M218.132 398.009C219.923 395.25 220.367 385.098 220.367 385.098C220.367 385.098 223.536 378.177 220.367 375.876C217.197 373.574 202.933 374.945 200.666 374.945C198.4 374.945 187.67 386.012 187.67 386.012L176.021 387.938L178.002 402.481C186.608 399.592 192.599 397.584 192.599 397.584C192.599 397.584 216.278 400.865 218.132 398.009Z" fill="#34CB79" stroke="#263238" stroke-linecap="round" stroke-linejoin="round"/>
<path d="M226.12 369.412L251.653 383.253L246.724 392.475L226.12 369.412Z" fill="black" stroke="#263238" stroke-linecap="round" stroke-linejoin="round"/>
<path d="M205.073 374.031L208.654 364.336C208.654 364.336 211.349 362.948 221.207 365.723C231.065 368.498 250.306 396.621 250.306 396.621C250.306 396.621 236.422 406.774 234.187 407.231C231.953 407.688 223.885 382.747 222.998 380.479C222.287 378.836 221.382 377.29 220.303 375.876L205.073 374.031Z" fill="black" stroke="#263238" stroke-linecap="round" stroke-linejoin="round"/>
<path d="M220.303 375.876L212.379 370.571" stroke="#263238" stroke-linecap="round" stroke-linejoin="round"/>
<path d="M273.144 477.776H160.172V660.098H273.144V477.776Z" fill="#34CB79" stroke="#263238" stroke-linecap="round" stroke-linejoin="round"/>
<path d="M272.875 539.606H160.441C159.643 539.606 158.877 539.279 158.312 538.697C157.747 538.116 157.43 537.327 157.43 536.504C157.43 535.682 157.747 534.893 158.312 534.312C158.877 533.73 159.643 533.403 160.441 533.403H272.875C273.673 533.403 274.439 533.73 275.004 534.312C275.569 534.893 275.886 535.682 275.886 536.504C275.886 537.327 275.569 538.116 275.004 538.697C274.439 539.279 273.673 539.606 272.875 539.606Z" fill="#34CB79" stroke="#263238" stroke-linecap="round" stroke-linejoin="round"/>
<path d="M272.875 480.519H160.441C159.643 480.519 158.877 480.192 158.312 479.61C157.747 479.029 157.43 478.24 157.43 477.417C157.43 476.595 157.747 475.806 158.312 475.224C158.877 474.643 159.643 474.316 160.441 474.316H272.875C273.673 474.316 274.439 474.643 275.004 475.224C275.569 475.806 275.886 476.595 275.886 477.417C275.886 478.24 275.569 479.029 275.004 479.61C274.439 480.192 273.673 480.519 272.875 480.519Z" fill="#34CB79" stroke="#263238" stroke-linecap="round" stroke-linejoin="round"/>
<path d="M272.875 601.37H160.441C159.643 601.37 158.877 601.043 158.312 600.461C157.747 599.88 157.43 599.091 157.43 598.268C157.43 597.446 157.747 596.657 158.312 596.076C158.877 595.494 159.643 595.167 160.441 595.167H272.875C273.673 595.167 274.439 595.494 275.004 596.076C275.569 596.657 275.886 597.446 275.886 598.268C275.886 599.091 275.569 599.88 275.004 600.461C274.439 601.043 273.673 601.37 272.875 601.37Z" fill="#34CB79" stroke="#263238" stroke-linecap="round" stroke-linejoin="round"/>
</svg>
