<svg width="665" height="655" viewBox="0 0 665 655" fill="none" xmlns="http://www.w3.org/2000/svg">
<path fill-rule="evenodd" clip-rule="evenodd" d="M329.215 4.34248C398.658 -6.5794 474.052 9.18219 529.143 52.8453C583.256 95.7333 597.215 168.343 618.867 233.908C640.638 299.835 682.044 369.934 654.967 433.865C628.112 497.267 544.31 507.027 487.014 545.213C433.002 581.21 393.402 641.316 329.215 650.968C260.489 661.302 188.565 639.843 132.709 598.49C77.1366 557.349 46.796 492.484 26.0509 426.526C5.47757 361.114 -12.791 288.541 15.5909 226.119C43.0089 165.817 116.208 147.531 170.294 109.285C223.426 71.7135 264.932 14.453 329.215 4.34248Z" stroke="#34CB79" stroke-opacity="0.78"/>
</svg>
