<svg width="94" height="90" viewBox="0 0 94 90" fill="none" xmlns="http://www.w3.org/2000/svg">
<path fill-rule="evenodd" clip-rule="evenodd" d="M51.7455 1.00881C60.1518 1.31827 66.3084 9.2796 73.0527 14.9741C79.7 20.5868 87.5257 25.183 90.67 33.8746C93.9289 42.8831 93.7677 53.5079 90.1959 62.3628C86.8095 70.758 79.1426 75.317 72.0901 79.9364C65.752 84.0878 59.0031 86.4605 51.7455 87.5477C43.3854 88.7999 34.834 90.4298 27.078 86.6788C18.068 82.3213 9.73455 75.2531 5.5598 65.2108C1.09522 54.4713 -1.10668 41.0567 3.73588 30.5296C8.44366 20.2954 20.4564 18.8719 29.4082 13.3674C36.8737 8.77699 43.2562 0.696287 51.7455 1.00881Z" stroke="#34CB79" stroke-opacity="0.7"/>
</svg>
