<svg width="110" height="127" viewBox="0 0 110 127" fill="none" xmlns="http://www.w3.org/2000/svg">
<path fill-rule="evenodd" clip-rule="evenodd" d="M59.4738 13.1717C71.9403 16.9263 75.0462 36.6737 83.9407 48.3896C92.5066 59.6726 108.187 63.9351 109.81 79.4751C111.491 95.5641 101.742 110.496 91.4293 120.075C82.3881 128.473 70.6391 127.35 59.4738 126.232C49.4913 125.232 40.5545 121.133 32.1885 114.141C20.7312 104.567 6.01777 96.6077 3.52335 79.4751C0.82054 60.9111 8.93673 41.9498 19.803 29.0728C30.3441 16.5812 45.4478 8.94739 59.4738 13.1717Z" fill="#F5F5F5"/>
<path fill-rule="evenodd" clip-rule="evenodd" d="M57.4738 2.1717C69.9403 5.92631 73.0462 25.6737 81.9407 37.3896C90.5066 48.6726 106.187 52.9351 107.81 68.4751C109.491 84.5641 99.7416 99.496 89.4293 109.075C80.3881 117.473 68.6391 116.35 57.4738 115.232C47.4913 114.232 38.5545 110.133 30.1885 103.141C18.7312 93.5667 4.01777 85.6077 1.52335 68.4751C-1.17946 49.9111 6.93673 30.9498 17.803 18.0728C28.3441 5.58116 43.4478 -2.05261 57.4738 2.1717Z" stroke="#F5F5F5"/>
<path d="M33.9998 83V66H44.9998C44.737 66.1641 44.4627 66.3041 44.1883 66.4333C42.1244 67.4166 40.7047 69.3718 40.2515 71.5727L38.7719 78.8788L38.7835 79.0897C36.6841 79.6048 34.9184 81.0329 34.0114 83H33.9998Z" fill="#34CB79"/>
<path d="M66.9088 41.5625L71.5149 41L78.9998 55.0625V57.3125L77.2725 59H61.1513L59.9998 56.75L60.5755 52.8125L66.9088 41.5625Z" fill="#34CB79"/>
<mask id="path-5-inside-1_13_82" fill="white">
<path fill-rule="evenodd" clip-rule="evenodd" d="M75.6665 88.4727C80.0982 88.4727 83.7036 92.0125 83.7036 96.3636V99.7455V102H26.2963L26.2961 99.7455V96.3636C26.2961 93.1981 28.209 90.4691 30.9554 89.2119L32.9081 82.8226C32.9628 82.6461 33.0343 82.4798 33.1059 82.3131C33.1325 82.2511 33.1592 82.189 33.185 82.1263V64.205C33.185 62.0561 34.401 60.1241 36.3587 59.1636L37.7776 58.4668V55.7818H35.4813V52.4C35.4813 50.5357 37.027 49.0182 38.9258 49.0182H45.8147C47.7135 49.0182 49.2591 50.5357 49.2591 52.4V55.7818H46.9628V58.4668L48.3829 59.1636C49.4497 59.6865 50.2946 60.5254 50.8529 61.5442C51.2616 61.471 51.6815 61.4182 52.1272 61.4182C53.2154 61.4182 54.1847 61.6626 55.071 62.1624C55.7556 61.8453 56.8633 61.4182 57.8725 61.4182C60.3845 61.4182 62.2945 62.7226 63.9808 63.8742L63.9832 63.8758C64.6004 64.2975 65.1964 64.6806 65.8007 65.0185L68.7776 63.0695V60.2909H64.4558C61.7738 60.2909 59.5924 58.1492 59.5924 55.516C59.5924 54.7784 59.7702 54.0403 60.1054 53.3809L65.5754 42.6398C66.4045 41.0111 68.0712 40 69.9258 40C71.7803 40 73.447 41.0111 74.2762 42.6387L79.7461 53.3798C80.0814 54.0403 80.2591 54.7784 80.2591 55.516C80.2591 58.1492 78.0777 60.2909 75.3957 60.2909H71.0739V63.0695L77.451 67.245L76.1772 69.1208L71.0739 65.7798V68.7058L77.451 72.8814L76.1772 74.7572L71.0739 71.4161V74.3422L77.451 78.5177L76.1772 80.3936L71.0739 77.0525V79.9785L77.451 84.153L76.1772 86.0288L71.0739 82.6877V86.3084C72.7995 86.5517 74.3496 87.3295 75.5404 88.4727H75.6665ZM62.1595 54.3887C61.9829 54.7371 61.8887 55.1268 61.8887 55.516C61.8887 56.9058 63.0402 58.0364 64.4558 58.0364H75.3957C76.8113 58.0364 77.9628 56.9058 77.9628 55.516C77.9628 55.1268 77.8697 54.7371 77.692 54.3887L72.2221 43.6477C71.9681 43.1495 71.5572 42.7797 71.0739 42.5408H68.7776C68.2944 42.7797 67.8834 43.1495 67.6295 43.6477L62.1595 54.3887ZM75.6665 95.1224V94.1091C75.6665 91.3867 73.6903 89.1096 71.0739 88.5867V89.6C71.0739 92.3213 73.0501 94.5995 75.6665 95.1224ZM64.185 95.1224C66.8014 94.5995 68.7776 92.3224 68.7776 89.6V88.5867C66.1612 89.1096 64.185 91.3867 64.185 94.1091V95.1224ZM38.9258 51.2727C38.2934 51.2727 37.7776 51.7791 37.7776 52.4V53.5273H46.9628V52.4C46.9628 51.7791 46.447 51.2727 45.8147 51.2727H38.9258ZM40.0739 59.8605L37.3852 61.1804C36.2101 61.7561 35.4813 62.9153 35.4813 64.205V79.0252C36.1944 78.4434 37.0006 77.9799 37.8841 77.6701L39.2279 71.0754C39.7432 68.5495 41.3897 66.4028 43.6333 65.3356C44.4406 64.9508 45.2064 64.4279 46.0165 63.8747C46.8227 63.3243 47.6826 62.7414 48.6323 62.2807C48.3061 61.8205 47.8766 61.4363 47.3552 61.1804L44.6665 59.8605V55.7818H40.0739V59.8605ZM34.3332 90.7273C31.1679 90.7273 28.5924 93.2559 28.5924 96.3636V99.7455H81.4073V96.3636C81.4073 93.8185 79.6688 91.6878 77.3046 90.9898C77.7262 91.947 77.9628 93.0011 77.9628 94.1091V97.4909H76.8147C73.8894 97.4909 71.3324 95.9431 69.9258 93.6434C68.5192 95.9431 65.9622 97.4909 63.0369 97.4909H61.8887V94.1091C61.8887 90.1422 64.8886 86.8583 68.7776 86.3084V82.6877L63.6732 86.0277L62.3995 84.1519L68.7776 79.9774V77.0514L63.6732 80.3914L62.3995 78.5155L68.7776 74.3411V71.415L63.6732 74.755L62.3995 72.8792L68.7776 68.7047V65.7787L63.6732 69.1197L62.3995 67.2439L63.6889 66.4006C63.3447 66.1777 63.0027 65.952 62.6719 65.7253C61.1263 64.669 59.6659 63.6727 57.8725 63.6727C57.193 63.6727 56.102 64.145 55.5739 64.4417L54.9197 64.811L54.3131 64.3685C53.6577 63.8868 52.9839 63.6727 52.1272 63.6727C50.3338 63.6727 48.8734 64.669 47.3278 65.7242C46.4807 66.3038 45.6033 66.9026 44.6346 67.3633C43.6335 67.8398 42.8004 68.6249 42.2225 69.5955L42.222 69.5954L42.2212 69.5976C42.2154 69.6075 42.2095 69.6173 42.2037 69.6272C42.2058 69.6279 42.2078 69.6286 42.2098 69.6292L41.4457 71.752C41.4408 71.7505 41.436 71.749 41.4312 71.7475L40.3161 77.2226C40.361 77.2211 40.4047 77.2163 40.4483 77.2115C40.5006 77.2057 40.5527 77.2 40.6065 77.2H52.7035V79.4545H40.6065C38.0518 79.4545 35.8418 81.0689 35.108 83.471L33.5685 88.5113C33.8213 88.4876 34.0747 88.4727 34.3332 88.4727H45.8147V90.7273H34.3332Z"/>
</mask>
<path fill-rule="evenodd" clip-rule="evenodd" d="M75.6665 88.4727C80.0982 88.4727 83.7036 92.0125 83.7036 96.3636V99.7455V102H26.2963L26.2961 99.7455V96.3636C26.2961 93.1981 28.209 90.4691 30.9554 89.2119L32.9081 82.8226C32.9628 82.6461 33.0343 82.4798 33.1059 82.3131C33.1325 82.2511 33.1592 82.189 33.185 82.1263V64.205C33.185 62.0561 34.401 60.1241 36.3587 59.1636L37.7776 58.4668V55.7818H35.4813V52.4C35.4813 50.5357 37.027 49.0182 38.9258 49.0182H45.8147C47.7135 49.0182 49.2591 50.5357 49.2591 52.4V55.7818H46.9628V58.4668L48.3829 59.1636C49.4497 59.6865 50.2946 60.5254 50.8529 61.5442C51.2616 61.471 51.6815 61.4182 52.1272 61.4182C53.2154 61.4182 54.1847 61.6626 55.071 62.1624C55.7556 61.8453 56.8633 61.4182 57.8725 61.4182C60.3845 61.4182 62.2945 62.7226 63.9808 63.8742L63.9832 63.8758C64.6004 64.2975 65.1964 64.6806 65.8007 65.0185L68.7776 63.0695V60.2909H64.4558C61.7738 60.2909 59.5924 58.1492 59.5924 55.516C59.5924 54.7784 59.7702 54.0403 60.1054 53.3809L65.5754 42.6398C66.4045 41.0111 68.0712 40 69.9258 40C71.7803 40 73.447 41.0111 74.2762 42.6387L79.7461 53.3798C80.0814 54.0403 80.2591 54.7784 80.2591 55.516C80.2591 58.1492 78.0777 60.2909 75.3957 60.2909H71.0739V63.0695L77.451 67.245L76.1772 69.1208L71.0739 65.7798V68.7058L77.451 72.8814L76.1772 74.7572L71.0739 71.4161V74.3422L77.451 78.5177L76.1772 80.3936L71.0739 77.0525V79.9785L77.451 84.153L76.1772 86.0288L71.0739 82.6877V86.3084C72.7995 86.5517 74.3496 87.3295 75.5404 88.4727H75.6665ZM62.1595 54.3887C61.9829 54.7371 61.8887 55.1268 61.8887 55.516C61.8887 56.9058 63.0402 58.0364 64.4558 58.0364H75.3957C76.8113 58.0364 77.9628 56.9058 77.9628 55.516C77.9628 55.1268 77.8697 54.7371 77.692 54.3887L72.2221 43.6477C71.9681 43.1495 71.5572 42.7797 71.0739 42.5408H68.7776C68.2944 42.7797 67.8834 43.1495 67.6295 43.6477L62.1595 54.3887ZM75.6665 95.1224V94.1091C75.6665 91.3867 73.6903 89.1096 71.0739 88.5867V89.6C71.0739 92.3213 73.0501 94.5995 75.6665 95.1224ZM64.185 95.1224C66.8014 94.5995 68.7776 92.3224 68.7776 89.6V88.5867C66.1612 89.1096 64.185 91.3867 64.185 94.1091V95.1224ZM38.9258 51.2727C38.2934 51.2727 37.7776 51.7791 37.7776 52.4V53.5273H46.9628V52.4C46.9628 51.7791 46.447 51.2727 45.8147 51.2727H38.9258ZM40.0739 59.8605L37.3852 61.1804C36.2101 61.7561 35.4813 62.9153 35.4813 64.205V79.0252C36.1944 78.4434 37.0006 77.9799 37.8841 77.6701L39.2279 71.0754C39.7432 68.5495 41.3897 66.4028 43.6333 65.3356C44.4406 64.9508 45.2064 64.4279 46.0165 63.8747C46.8227 63.3243 47.6826 62.7414 48.6323 62.2807C48.3061 61.8205 47.8766 61.4363 47.3552 61.1804L44.6665 59.8605V55.7818H40.0739V59.8605ZM34.3332 90.7273C31.1679 90.7273 28.5924 93.2559 28.5924 96.3636V99.7455H81.4073V96.3636C81.4073 93.8185 79.6688 91.6878 77.3046 90.9898C77.7262 91.947 77.9628 93.0011 77.9628 94.1091V97.4909H76.8147C73.8894 97.4909 71.3324 95.9431 69.9258 93.6434C68.5192 95.9431 65.9622 97.4909 63.0369 97.4909H61.8887V94.1091C61.8887 90.1422 64.8886 86.8583 68.7776 86.3084V82.6877L63.6732 86.0277L62.3995 84.1519L68.7776 79.9774V77.0514L63.6732 80.3914L62.3995 78.5155L68.7776 74.3411V71.415L63.6732 74.755L62.3995 72.8792L68.7776 68.7047V65.7787L63.6732 69.1197L62.3995 67.2439L63.6889 66.4006C63.3447 66.1777 63.0027 65.952 62.6719 65.7253C61.1263 64.669 59.6659 63.6727 57.8725 63.6727C57.193 63.6727 56.102 64.145 55.5739 64.4417L54.9197 64.811L54.3131 64.3685C53.6577 63.8868 52.9839 63.6727 52.1272 63.6727C50.3338 63.6727 48.8734 64.669 47.3278 65.7242C46.4807 66.3038 45.6033 66.9026 44.6346 67.3633C43.6335 67.8398 42.8004 68.6249 42.2225 69.5955L42.222 69.5954L42.2212 69.5976C42.2154 69.6075 42.2095 69.6173 42.2037 69.6272C42.2058 69.6279 42.2078 69.6286 42.2098 69.6292L41.4457 71.752C41.4408 71.7505 41.436 71.749 41.4312 71.7475L40.3161 77.2226C40.361 77.2211 40.4047 77.2163 40.4483 77.2115C40.5006 77.2057 40.5527 77.2 40.6065 77.2H52.7035V79.4545H40.6065C38.0518 79.4545 35.8418 81.0689 35.108 83.471L33.5685 88.5113C33.8213 88.4876 34.0747 88.4727 34.3332 88.4727H45.8147V90.7273H34.3332Z" fill="black"/>
<path d="M83.7036 102V103H84.7036V102H83.7036ZM26.2963 102L25.2963 102L25.2964 103H26.2963V102ZM26.2961 99.7455L25.2961 99.7455L25.2961 99.7455L26.2961 99.7455ZM30.9554 89.2119L31.3717 90.1212L31.7804 89.9341L31.9118 89.5042L30.9554 89.2119ZM32.9081 82.8226L31.953 82.5263L31.9517 82.5303L32.9081 82.8226ZM33.1059 82.3131L34.0247 82.7078L34.0247 82.7078L33.1059 82.3131ZM33.185 82.1263L34.1095 82.5075L34.185 82.3244V82.1263H33.185ZM36.3587 59.1636L36.7992 60.0614L36.7995 60.0612L36.3587 59.1636ZM37.7776 58.4668L38.2184 59.3644L38.7776 59.0898V58.4668H37.7776ZM37.7776 55.7818H38.7776V54.7818H37.7776V55.7818ZM35.4813 55.7818H34.4813V56.7818H35.4813V55.7818ZM49.2591 55.7818V56.7818H50.2591V55.7818H49.2591ZM46.9628 55.7818V54.7818H45.9628V55.7818H46.9628ZM46.9628 58.4668H45.9628V59.09L46.5223 59.3645L46.9628 58.4668ZM48.3829 59.1636L47.9423 60.0614L47.9427 60.0616L48.3829 59.1636ZM50.8529 61.5442L49.976 62.0248L50.3216 62.6553L51.0293 62.5286L50.8529 61.5442ZM55.071 62.1624L54.5799 63.0334L55.0263 63.2851L55.4913 63.0698L55.071 62.1624ZM63.9808 63.8742L64.5452 63.0487L64.5448 63.0484L63.9808 63.8742ZM63.9832 63.8758L63.4189 64.7014L63.4192 64.7016L63.9832 63.8758ZM65.8007 65.0185L65.3127 65.8913L65.8415 66.1871L66.3485 65.8551L65.8007 65.0185ZM68.7776 63.0695L69.3254 63.9061L69.7776 63.61V63.0695H68.7776ZM68.7776 60.2909H69.7776V59.2909H68.7776V60.2909ZM60.1054 53.3809L59.2143 52.9271L59.214 52.9277L60.1054 53.3809ZM65.5754 42.6398L66.4665 43.0936L66.4665 43.0935L65.5754 42.6398ZM74.2762 42.6387L75.1673 42.1849L75.1672 42.1848L74.2762 42.6387ZM79.7461 53.3798L80.6379 52.9272L80.6372 52.926L79.7461 53.3798ZM71.0739 60.2909V59.2909H70.0739V60.2909H71.0739ZM71.0739 63.0695H70.0739V63.61L70.5261 63.9061L71.0739 63.0695ZM77.451 67.245L78.2783 67.8067L78.8495 66.9654L77.9988 66.4084L77.451 67.245ZM76.1772 69.1208L75.6295 69.9575L76.4522 70.4961L77.0045 69.6826L76.1772 69.1208ZM71.0739 65.7798L71.6217 64.9431L70.0739 63.9298V65.7798H71.0739ZM71.0739 68.7058H70.0739V69.2463L70.5261 69.5424L71.0739 68.7058ZM77.451 72.8814L78.2783 73.4431L78.8495 72.6018L77.9988 72.0447L77.451 72.8814ZM76.1772 74.7572L75.6295 75.5939L76.4522 76.1324L77.0045 75.319L76.1772 74.7572ZM71.0739 71.4161L71.6217 70.5795L70.0739 69.5662V71.4161H71.0739ZM71.0739 74.3422H70.0739V74.8827L70.5261 75.1788L71.0739 74.3422ZM77.451 78.5177L78.2783 79.0795L78.8495 78.2382L77.9988 77.6811L77.451 78.5177ZM76.1772 80.3936L75.6295 81.2302L76.4522 81.7688L77.0045 80.9553L76.1772 80.3936ZM71.0739 77.0525L71.6217 76.2158L70.0739 75.2025V77.0525H71.0739ZM71.0739 79.9785H70.0739V80.5191L70.5262 80.8152L71.0739 79.9785ZM77.451 84.153L78.2783 84.7147L78.8496 83.8733L77.9987 83.3163L77.451 84.153ZM76.1772 86.0288L75.6295 86.8655L76.4522 87.4041L77.0045 86.5906L76.1772 86.0288ZM71.0739 82.6877L71.6217 81.8511L70.0739 80.8378V82.6877H71.0739ZM71.0739 86.3084H70.0739V87.1773L70.9343 87.2987L71.0739 86.3084ZM75.5404 88.4727L74.8478 89.1941L75.138 89.4727H75.5404V88.4727ZM62.1595 54.3887L61.2684 53.9349L61.2675 53.9366L62.1595 54.3887ZM77.692 54.3887L76.8009 54.8425L76.8012 54.8431L77.692 54.3887ZM72.2221 43.6477L73.1132 43.1939L73.113 43.1935L72.2221 43.6477ZM71.0739 42.5408L71.5171 41.6443L71.3076 41.5408H71.0739V42.5408ZM68.7776 42.5408V41.5408H68.544L68.3345 41.6443L68.7776 42.5408ZM67.6295 43.6477L66.7386 43.1935L66.7384 43.1939L67.6295 43.6477ZM75.6665 95.1224L75.4705 96.103L76.6665 96.3421V95.1224H75.6665ZM71.0739 88.5867L71.2699 87.6061L70.0739 87.367V88.5867H71.0739ZM64.185 95.1224H63.185V96.3421L64.381 96.103L64.185 95.1224ZM68.7776 88.5867H69.7776V87.367L68.5816 87.6061L68.7776 88.5867ZM37.7776 53.5273H36.7776V54.5273H37.7776V53.5273ZM46.9628 53.5273V54.5273H47.9628V53.5273H46.9628ZM37.3852 61.1804L37.8252 62.0784L37.8259 62.0781L37.3852 61.1804ZM40.0739 59.8605L40.5146 60.7581L41.0739 60.4836V59.8605H40.0739ZM35.4813 79.0252H34.4813V81.1317L36.1135 79.8L35.4813 79.0252ZM37.8841 77.6701L38.2151 78.6137L38.7507 78.4259L38.864 77.8697L37.8841 77.6701ZM39.2279 71.0754L38.2481 70.8756L38.2481 70.8757L39.2279 71.0754ZM43.6333 65.3356L44.0629 66.2386L44.0635 66.2383L43.6333 65.3356ZM46.0165 63.8747L45.4526 63.0489L45.4526 63.0489L46.0165 63.8747ZM48.6323 62.2807L49.0688 63.1804L50.1308 62.6652L49.4481 61.7023L48.6323 62.2807ZM47.3552 61.1804L47.7959 60.2827L47.7959 60.2827L47.3552 61.1804ZM44.6665 59.8605H43.6665V60.4836L44.2258 60.7581L44.6665 59.8605ZM44.6665 55.7818H45.6665V54.7818H44.6665V55.7818ZM40.0739 55.7818V54.7818H39.0739V55.7818H40.0739ZM28.5924 99.7455H27.5924V100.745H28.5924V99.7455ZM81.4073 99.7455V100.745H82.4073V99.7455H81.4073ZM77.3046 90.9898L77.5878 90.0307L75.5208 89.4205L76.3895 91.3929L77.3046 90.9898ZM77.9628 97.4909V98.4909H78.9628V97.4909H77.9628ZM69.9258 93.6434L70.7789 93.1216L69.9258 91.7269L69.0727 93.1216L69.9258 93.6434ZM61.8887 97.4909H60.8887V98.4909H61.8887V97.4909ZM68.7776 86.3084L68.9176 87.2986L69.7776 87.177V86.3084H68.7776ZM68.7776 82.6877H69.7776V80.8384L68.2301 81.851L68.7776 82.6877ZM63.6732 86.0277L62.8459 86.5895L63.3981 87.4028L64.2207 86.8645L63.6732 86.0277ZM62.3995 84.1519L61.8518 83.3152L61.0008 83.8722L61.5722 84.7136L62.3995 84.1519ZM68.7776 79.9774L69.3253 80.8142L69.7776 80.5181V79.9774H68.7776ZM68.7776 77.0514H69.7776V75.202L68.2301 76.2146L68.7776 77.0514ZM63.6732 80.3914L62.8459 80.9531L63.3981 81.7664L64.2207 81.2282L63.6732 80.3914ZM62.3995 78.5155L61.8518 77.6788L61.0008 78.2358L61.5722 79.0773L62.3995 78.5155ZM68.7776 74.3411L69.3253 75.1778L69.7776 74.8817V74.3411H68.7776ZM68.7776 71.415H69.7776V69.5656L68.2301 70.5782L68.7776 71.415ZM63.6732 74.755L62.8459 75.3168L63.3981 76.13L64.2207 75.5918L63.6732 74.755ZM62.3995 72.8792L61.8518 72.0424L61.0008 72.5994L61.5722 73.4409L62.3995 72.8792ZM68.7776 68.7047L69.3253 69.5414L69.7776 69.2454V68.7047H68.7776ZM68.7776 65.7787H69.7776V63.9289L68.23 64.942L68.7776 65.7787ZM63.6732 69.1197L62.8459 69.6815L63.3982 70.4949L64.2208 69.9564L63.6732 69.1197ZM62.3995 67.2439L61.8521 66.407L61.0006 66.9639L61.5722 67.8056L62.3995 67.2439ZM63.6889 66.4006L64.2362 67.2376L65.5222 66.3965L64.2325 65.5613L63.6889 66.4006ZM62.6719 65.7253L63.2374 64.9005L63.2361 64.8996L62.6719 65.7253ZM55.5739 64.4417L55.0841 63.5698L55.0823 63.5708L55.5739 64.4417ZM54.9197 64.811L54.3303 65.6189L54.8505 65.9984L55.4113 65.6818L54.9197 64.811ZM54.3131 64.3685L53.7209 65.1743L53.7237 65.1763L54.3131 64.3685ZM47.3278 65.7242L46.764 64.8983L46.7631 64.8989L47.3278 65.7242ZM44.6346 67.3633L44.2051 66.4603L44.2048 66.4604L44.6346 67.3633ZM42.2225 69.5955L41.8691 70.531L42.653 70.8271L43.0817 70.1071L42.2225 69.5955ZM42.222 69.5954L42.5754 68.6599L41.6252 68.3009L41.2811 69.2567L42.222 69.5954ZM42.2212 69.5976L43.0807 70.1088L43.1297 70.0265L43.1621 69.9363L42.2212 69.5976ZM42.2037 69.6272L41.3414 69.1208L40.7111 70.1941L41.8949 70.5784L42.2037 69.6272ZM42.2098 69.6292L43.1507 69.9679L43.4999 68.998L42.5198 68.6785L42.2098 69.6292ZM41.4457 71.752L41.1469 72.7063L42.0618 72.9928L42.3866 72.0907L41.4457 71.752ZM41.4312 71.7475L41.7261 70.792L40.6715 70.4665L40.4513 71.5479L41.4312 71.7475ZM40.3161 77.2226L39.3362 77.023L39.0834 78.2644L40.3496 78.222L40.3161 77.2226ZM40.4483 77.2115L40.3391 76.2175L40.339 76.2175L40.4483 77.2115ZM52.7035 77.2H53.7035V76.2H52.7035V77.2ZM52.7035 79.4545V80.4545H53.7035V79.4545H52.7035ZM35.108 83.471L34.1516 83.1788L34.1516 83.1789L35.108 83.471ZM33.5685 88.5113L32.6121 88.2191L32.1763 89.646L33.6617 89.5069L33.5685 88.5113ZM45.8147 88.4727H46.8147V87.4727H45.8147V88.4727ZM45.8147 90.7273V91.7273H46.8147V90.7273H45.8147ZM84.7036 96.3636C84.7036 91.443 80.6331 87.4727 75.6665 87.4727V89.4727C79.5633 89.4727 82.7036 92.582 82.7036 96.3636H84.7036ZM84.7036 99.7455V96.3636H82.7036V99.7455H84.7036ZM84.7036 102V99.7455H82.7036V102H84.7036ZM26.2963 103H83.7036V101H26.2963V103ZM25.2961 99.7455L25.2963 102L27.2963 102L27.2961 99.7454L25.2961 99.7455ZM25.2961 96.3636V99.7455H27.2961V96.3636H25.2961ZM30.5392 88.3027C27.4607 89.7119 25.2961 92.7816 25.2961 96.3636H27.2961C27.2961 93.6146 28.9573 91.2264 31.3717 90.1212L30.5392 88.3027ZM31.9517 82.5303L29.9991 88.9197L31.9118 89.5042L33.8644 83.1149L31.9517 82.5303ZM32.1871 81.9184C32.1186 82.0777 32.0258 82.2915 31.953 82.5263L33.8632 83.1189C33.8999 83.0006 33.9499 82.8819 34.0247 82.7078L32.1871 81.9184ZM32.2605 81.7452C32.2379 81.7999 32.2142 81.8553 32.1871 81.9184L34.0247 82.7078C34.0509 82.6469 34.0804 82.5781 34.1095 82.5075L32.2605 81.7452ZM32.185 64.205V82.1263H34.185V64.205H32.185ZM35.9182 58.2659C33.6244 59.3913 32.185 61.6676 32.185 64.205H34.185C34.185 62.4446 35.1776 60.857 36.7992 60.0614L35.9182 58.2659ZM37.3368 57.5692L35.9179 58.266L36.7995 60.0612L38.2184 59.3644L37.3368 57.5692ZM36.7776 55.7818V58.4668H38.7776V55.7818H36.7776ZM35.4813 56.7818H37.7776V54.7818H35.4813V56.7818ZM34.4813 52.4V55.7818H36.4813V52.4H34.4813ZM38.9258 48.0182C36.492 48.0182 34.4813 49.9662 34.4813 52.4H36.4813C36.4813 51.1052 37.5619 50.0182 38.9258 50.0182V48.0182ZM45.8147 48.0182H38.9258V50.0182H45.8147V48.0182ZM50.2591 52.4C50.2591 49.9662 48.2484 48.0182 45.8147 48.0182V50.0182C47.1786 50.0182 48.2591 51.1052 48.2591 52.4H50.2591ZM50.2591 55.7818V52.4H48.2591V55.7818H50.2591ZM46.9628 56.7818H49.2591V54.7818H46.9628V56.7818ZM47.9628 58.4668V55.7818H45.9628V58.4668H47.9628ZM48.8234 58.2659L47.4033 57.5691L46.5223 59.3645L47.9423 60.0614L48.8234 58.2659ZM51.7299 61.0636C51.078 59.8741 50.0851 58.8843 48.823 58.2657L47.9427 60.0616C48.8143 60.4888 49.5112 61.1766 49.976 62.0248L51.7299 61.0636ZM52.1272 60.4182C51.6023 60.4182 51.1196 60.4805 50.6766 60.5599L51.0293 62.5286C51.4036 62.4615 51.7608 62.4182 52.1272 62.4182V60.4182ZM55.5622 61.2913C54.515 60.7008 53.3745 60.4182 52.1272 60.4182V62.4182C53.0563 62.4182 53.8544 62.6243 54.5799 63.0334L55.5622 61.2913ZM57.8725 60.4182C56.634 60.4182 55.3596 60.9266 54.6508 61.255L55.4913 63.0698C56.1515 62.764 57.0927 62.4182 57.8725 62.4182V60.4182ZM64.5448 63.0484C62.8878 61.9168 60.7355 60.4182 57.8725 60.4182V62.4182C60.0336 62.4182 61.7012 63.5283 63.4169 64.7L64.5448 63.0484ZM64.5475 63.0503L64.5452 63.0487L63.4165 64.6998L63.4189 64.7014L64.5475 63.0503ZM66.2888 64.1457C65.7201 63.8277 65.151 63.4625 64.5473 63.0501L63.4192 64.7016C64.0499 65.1324 64.6727 65.5334 65.3127 65.8913L66.2888 64.1457ZM68.2299 62.2328L65.253 64.1819L66.3485 65.8551L69.3254 63.9061L68.2299 62.2328ZM67.7776 60.2909V63.0695H69.7776V60.2909H67.7776ZM64.4558 61.2909H68.7776V59.2909H64.4558V61.2909ZM58.5924 55.516C58.5924 58.7187 61.2389 61.2909 64.4558 61.2909V59.2909C62.3087 59.2909 60.5924 57.5797 60.5924 55.516H58.5924ZM59.214 52.9277C58.8078 53.7266 58.5924 54.6199 58.5924 55.516H60.5924C60.5924 54.9369 60.7325 54.354 60.9968 53.8341L59.214 52.9277ZM64.6843 42.186L59.2143 52.9271L60.9965 53.8347L66.4665 43.0936L64.6843 42.186ZM69.9258 39C67.7023 39 65.6873 40.2159 64.6842 42.1862L66.4665 43.0935C67.1218 41.8064 68.4402 41 69.9258 41V39ZM75.1672 42.1848C74.1641 40.2158 72.1492 39 69.9258 39V41C71.4114 41 72.7299 41.8065 73.3851 43.0927L75.1672 42.1848ZM80.6372 52.926L75.1673 42.1849L73.3851 43.0925L78.855 53.8336L80.6372 52.926ZM81.2591 55.516C81.2591 54.6198 81.0437 53.7267 80.6379 52.9272L78.8544 53.8324C79.1191 54.3538 79.2591 54.937 79.2591 55.516H81.2591ZM75.3957 61.2909C78.6126 61.2909 81.2591 58.7187 81.2591 55.516H79.2591C79.2591 57.5797 77.5428 59.2909 75.3957 59.2909V61.2909ZM71.0739 61.2909H75.3957V59.2909H71.0739V61.2909ZM72.0739 63.0695V60.2909H70.0739V63.0695H72.0739ZM77.9988 66.4084L71.6217 62.2328L70.5261 63.9061L76.9032 68.0816L77.9988 66.4084ZM77.0045 69.6826L78.2783 67.8067L76.6237 66.6832L75.3499 68.5591L77.0045 69.6826ZM70.5262 66.6164L75.6295 69.9575L76.725 68.2842L71.6217 64.9431L70.5262 66.6164ZM72.0739 68.7058V65.7798H70.0739V68.7058H72.0739ZM77.9988 72.0447L71.6217 67.8692L70.5261 69.5424L76.9032 73.718L77.9988 72.0447ZM77.0045 75.319L78.2783 73.4431L76.6237 72.3196L75.3499 74.1955L77.0045 75.319ZM70.5262 72.2528L75.6295 75.5939L76.725 73.9206L71.6217 70.5795L70.5262 72.2528ZM72.0739 74.3422V71.4161H70.0739V74.3422H72.0739ZM77.9988 77.6811L71.6217 73.5056L70.5261 75.1788L76.9032 79.3543L77.9988 77.6811ZM77.0045 80.9553L78.2783 79.0795L76.6237 77.956L75.3499 79.8318L77.0045 80.9553ZM70.5262 77.8891L75.6295 81.2302L76.725 79.5569L71.6217 76.2158L70.5262 77.8891ZM72.0739 79.9785V77.0525H70.0739V79.9785H72.0739ZM77.9987 83.3163L71.6216 79.1419L70.5262 80.8152L76.9033 84.9897L77.9987 83.3163ZM77.0045 86.5906L78.2783 84.7147L76.6237 83.5912L75.3499 85.4671L77.0045 86.5906ZM70.5262 83.5244L75.6295 86.8655L76.725 85.1922L71.6217 81.8511L70.5262 83.5244ZM72.0739 86.3084V82.6877H70.0739V86.3084H72.0739ZM76.2329 87.7514C74.893 86.4649 73.1502 85.5913 71.2135 85.3182L70.9343 87.2987C72.4488 87.5122 73.8063 88.1941 74.8478 89.1941L76.2329 87.7514ZM75.6665 87.4727H75.5404V89.4727H75.6665V87.4727ZM62.8887 55.516C62.8887 55.286 62.945 55.051 63.0515 54.8408L61.2675 53.9366C61.0209 54.4232 60.8887 54.9676 60.8887 55.516H62.8887ZM64.4558 57.0364C63.5752 57.0364 62.8887 56.3363 62.8887 55.516H60.8887C60.8887 57.4753 62.5053 59.0364 64.4558 59.0364V57.0364ZM75.3957 57.0364H64.4558V59.0364H75.3957V57.0364ZM76.9628 55.516C76.9628 56.3363 76.2764 57.0364 75.3957 57.0364V59.0364C77.3462 59.0364 78.9628 57.4753 78.9628 55.516H76.9628ZM76.8012 54.8431C76.9069 55.0502 76.9628 55.2842 76.9628 55.516H78.9628C78.9628 54.9694 78.8326 54.424 78.5828 53.9343L76.8012 54.8431ZM71.331 44.1015L76.8009 54.8425L78.5831 53.9349L73.1132 43.1939L71.331 44.1015ZM70.6308 43.4372C70.9482 43.5941 71.1879 43.8208 71.3312 44.1019L73.113 43.1935C72.7483 42.4782 72.1661 41.9652 71.5171 41.6443L70.6308 43.4372ZM68.7776 43.5408H71.0739V41.5408H68.7776V43.5408ZM68.5204 44.1019C68.6637 43.8208 68.9033 43.5941 69.2208 43.4372L68.3345 41.6443C67.6854 41.9652 67.1032 42.4782 66.7386 43.1935L68.5204 44.1019ZM63.0506 54.8425L68.5206 44.1015L66.7384 43.1939L61.2684 53.9349L63.0506 54.8425ZM74.6665 94.1091V95.1224H76.6665V94.1091H74.6665ZM70.8779 89.5673C73.0493 90.0012 74.6665 91.886 74.6665 94.1091H76.6665C76.6665 90.8874 74.3313 88.2179 71.2699 87.6061L70.8779 89.5673ZM72.0739 89.6V88.5867H70.0739V89.6H72.0739ZM75.8625 94.1418C73.6912 93.7079 72.0739 91.8222 72.0739 89.6H70.0739C70.0739 92.8205 72.409 95.4912 75.4705 96.103L75.8625 94.1418ZM67.7776 89.6C67.7776 91.8231 66.1604 93.7079 63.9891 94.1418L64.381 96.103C67.4425 95.4912 69.7776 92.8217 69.7776 89.6H67.7776ZM67.7776 88.5867V89.6H69.7776V88.5867H67.7776ZM65.185 94.1091C65.185 91.886 66.8022 90.0012 68.9736 89.5673L68.5816 87.6061C65.5202 88.2179 63.185 90.8874 63.185 94.1091H65.185ZM65.185 95.1224V94.1091H63.185V95.1224H65.185ZM38.7776 52.4C38.7776 52.3486 38.8283 52.2727 38.9258 52.2727V50.2727C37.7585 50.2727 36.7776 51.2096 36.7776 52.4H38.7776ZM38.7776 53.5273V52.4H36.7776V53.5273H38.7776ZM46.9628 52.5273H37.7776V54.5273H46.9628V52.5273ZM45.9628 52.4V53.5273H47.9628V52.4H45.9628ZM45.8147 52.2727C45.9121 52.2727 45.9628 52.3486 45.9628 52.4H47.9628C47.9628 51.2096 46.9819 50.2727 45.8147 50.2727V52.2727ZM38.9258 52.2727H45.8147V50.2727H38.9258V52.2727ZM37.8259 62.0781L40.5146 60.7581L39.6332 58.9628L36.9445 60.2827L37.8259 62.0781ZM36.4813 64.205C36.4813 63.3034 36.9871 62.489 37.8252 62.0784L36.9452 60.2824C35.4331 61.0233 34.4813 62.5273 34.4813 64.205H36.4813ZM36.4813 79.0252V64.205H34.4813V79.0252H36.4813ZM37.5532 76.7264C36.5542 77.0768 35.6471 77.5994 34.8492 78.2504L36.1135 79.8C36.7418 79.2874 37.447 78.8831 38.2151 78.6137L37.5532 76.7264ZM38.2481 70.8757L36.9043 77.4704L38.864 77.8697L40.2078 71.2751L38.2481 70.8757ZM43.2037 64.4325C40.6638 65.6408 38.8233 68.0558 38.2481 70.8756L40.2078 71.2753C40.663 69.0432 42.1156 67.1649 44.0629 66.2386L43.2037 64.4325ZM45.4526 63.0489C44.629 63.6113 43.928 64.0874 43.2031 64.4328L44.0635 66.2383C44.9532 65.8143 45.7837 65.2446 46.5804 64.7006L45.4526 63.0489ZM48.1959 61.381C47.1704 61.8785 46.2529 62.5024 45.4526 63.0489L46.5804 64.7006C47.3924 64.1462 48.1949 63.6043 49.0688 63.1804L48.1959 61.381ZM46.9146 62.0781C47.2733 62.2542 47.578 62.5227 47.8166 62.8591L49.4481 61.7023C49.0341 61.1184 48.48 60.6185 47.7959 60.2827L46.9146 62.0781ZM44.2258 60.7581L46.9146 62.0781L47.7959 60.2827L45.1072 58.9628L44.2258 60.7581ZM43.6665 55.7818V59.8605H45.6665V55.7818H43.6665ZM40.0739 56.7818H44.6665V54.7818H40.0739V56.7818ZM41.0739 59.8605V55.7818H39.0739V59.8605H41.0739ZM29.5924 96.3636C29.5924 93.8254 31.7028 91.7273 34.3332 91.7273V89.7273C30.633 89.7273 27.5924 92.6864 27.5924 96.3636H29.5924ZM29.5924 99.7455V96.3636H27.5924V99.7455H29.5924ZM81.4073 98.7455H28.5924V100.745H81.4073V98.7455ZM80.4073 96.3636V99.7455H82.4073V96.3636H80.4073ZM77.0215 91.9489C78.9921 92.5307 80.4073 94.2938 80.4073 96.3636H82.4073C82.4073 93.3431 80.3454 90.8449 77.5878 90.0307L77.0215 91.9489ZM78.9628 94.1091C78.9628 92.8572 78.6953 91.6662 78.2198 90.5868L76.3895 91.3929C76.7572 92.2278 76.9628 93.145 76.9628 94.1091H78.9628ZM78.9628 97.4909V94.1091H76.9628V97.4909H78.9628ZM76.8147 98.4909H77.9628V96.4909H76.8147V98.4909ZM69.0727 94.1652C70.6545 96.7514 73.5289 98.4909 76.8147 98.4909V96.4909C74.2498 96.4909 72.0102 95.1348 70.7789 93.1216L69.0727 94.1652ZM63.0369 98.4909C66.3226 98.4909 69.197 96.7514 70.7789 94.1652L69.0727 93.1216C67.8414 95.1348 65.6018 96.4909 63.0369 96.4909V98.4909ZM61.8887 98.4909H63.0369V96.4909H61.8887V98.4909ZM60.8887 94.1091V97.4909H62.8887V94.1091H60.8887ZM68.6376 85.3183C64.2787 85.9346 60.8887 89.6207 60.8887 94.1091H62.8887C62.8887 90.6636 65.4985 87.782 68.9176 87.2986L68.6376 85.3183ZM67.7776 82.6877V86.3084H69.7776V82.6877H67.7776ZM64.2207 86.8645L69.3252 83.5245L68.2301 81.851L63.1257 85.191L64.2207 86.8645ZM61.5722 84.7136L62.8459 86.5895L64.5005 85.466L63.2268 83.5901L61.5722 84.7136ZM68.23 79.1407L61.8518 83.3152L62.9471 84.9886L69.3253 80.8142L68.23 79.1407ZM67.7776 77.0514V79.9774H69.7776V77.0514H67.7776ZM64.2207 81.2282L69.3252 77.8882L68.2301 76.2146L63.1257 79.5546L64.2207 81.2282ZM61.5722 79.0773L62.8459 80.9531L64.5005 79.8296L63.2268 77.9538L61.5722 79.0773ZM68.23 73.5044L61.8518 77.6788L62.9471 79.3522L69.3253 75.1778L68.23 73.5044ZM67.7776 71.415V74.3411H69.7776V71.415H67.7776ZM64.2207 75.5918L69.3252 72.2518L68.2301 70.5782L63.1257 73.9182L64.2207 75.5918ZM61.5722 73.4409L62.8459 75.3168L64.5005 74.1933L63.2268 72.3174L61.5722 73.4409ZM68.23 67.868L61.8518 72.0424L62.9471 73.7159L69.3253 69.5414L68.23 67.868ZM67.7776 65.7787V68.7047H69.7776V65.7787H67.7776ZM64.2208 69.9564L69.3253 66.6154L68.23 64.942L63.1255 68.283L64.2208 69.9564ZM61.5722 67.8056L62.8459 69.6815L64.5005 68.558L63.2268 66.6821L61.5722 67.8056ZM63.1416 65.5637L61.8521 66.407L62.9468 68.0808L64.2362 67.2376L63.1416 65.5637ZM62.1065 66.55C62.4468 66.7834 62.7966 67.0142 63.1453 67.24L64.2325 65.5613C63.8927 65.3413 63.5586 65.1207 63.2374 64.9005L62.1065 66.55ZM57.8725 64.6727C59.3043 64.6727 60.5083 65.4579 62.1077 66.5509L63.2361 64.8996C61.7443 63.8801 60.0275 62.6727 57.8725 62.6727V64.6727ZM56.0637 65.3135C56.2802 65.1919 56.636 65.022 57.0103 64.885C57.4088 64.739 57.7152 64.6727 57.8725 64.6727V62.6727C57.3502 62.6727 56.7715 62.8425 56.3226 63.0069C55.8494 63.1802 55.3958 63.3947 55.0841 63.5698L56.0637 65.3135ZM55.4113 65.6818L56.0655 65.3125L55.0823 63.5708L54.4281 63.9402L55.4113 65.6818ZM53.7237 65.1763L54.3303 65.6189L55.5091 64.0031L54.9025 63.5606L53.7237 65.1763ZM52.1272 64.6727C52.7834 64.6727 53.2471 64.8261 53.7209 65.1743L54.9053 63.5627C54.0684 62.9476 53.1843 62.6727 52.1272 62.6727V64.6727ZM47.8916 66.5501C49.4913 65.458 50.6953 64.6727 52.1272 64.6727V62.6727C49.9724 62.6727 48.2555 63.88 46.764 64.8983L47.8916 66.5501ZM45.064 68.2664C46.1145 67.7668 47.0544 67.1229 47.8925 66.5495L46.7631 64.8989C45.907 65.4846 45.0921 66.0384 44.2051 66.4603L45.064 68.2664ZM43.0817 70.1071C43.5656 69.2944 44.2544 68.6518 45.0643 68.2663L44.2048 66.4604C43.0126 67.0278 42.0351 67.9554 41.3632 69.084L43.0817 70.1071ZM41.8686 70.5308L41.8691 70.531L42.5759 68.66L42.5754 68.6599L41.8686 70.5308ZM43.1621 69.9363L43.1629 69.934L41.2811 69.2567L41.2803 69.2589L43.1621 69.9363ZM43.066 70.1336C43.0709 70.1253 43.0758 70.117 43.0807 70.1088L41.3618 69.0863C41.3549 69.0979 41.3481 69.1094 41.3414 69.1208L43.066 70.1336ZM42.5198 68.6785C42.5176 68.6778 42.5151 68.677 42.5125 68.6761L41.8949 70.5784C41.8964 70.5788 41.898 70.5794 41.8999 70.58L42.5198 68.6785ZM42.3866 72.0907L43.1507 69.9679L41.269 69.2905L40.5048 71.4133L42.3866 72.0907ZM41.1363 72.703C41.1398 72.7041 41.1434 72.7052 41.1469 72.7063L41.7444 70.7977C41.7383 70.7957 41.7322 70.7938 41.7261 70.792L41.1363 72.703ZM41.296 77.4221L42.4111 71.947L40.4513 71.5479L39.3362 77.023L41.296 77.4221ZM40.339 76.2175C40.3157 76.22 40.3034 76.2213 40.2926 76.2223C40.283 76.2232 40.2807 76.2232 40.2826 76.2231L40.3496 78.222C40.4386 78.219 40.5196 78.2097 40.5575 78.2055L40.339 76.2175ZM40.6065 76.2C40.4891 76.2 40.3832 76.2126 40.3391 76.2175L40.5575 78.2055C40.5711 78.204 40.5807 78.2029 40.5898 78.202C40.5984 78.2011 40.6042 78.2006 40.6083 78.2003C40.6167 78.1996 40.6147 78.2 40.6065 78.2V76.2ZM52.7035 76.2H40.6065V78.2H52.7035V76.2ZM53.7035 79.4545V77.2H51.7035V79.4545H53.7035ZM40.6065 80.4545H52.7035V78.4545H40.6065V80.4545ZM36.0643 83.7632C36.6667 81.7916 38.4811 80.4545 40.6065 80.4545V78.4545C37.6225 78.4545 35.0169 80.3463 34.1516 83.1788L36.0643 83.7632ZM34.5249 88.8034L36.0643 83.7631L34.1516 83.1789L32.6121 88.2191L34.5249 88.8034ZM34.3332 87.4727C34.0364 87.4727 33.751 87.4898 33.4753 87.5156L33.6617 89.5069C33.8916 89.4854 34.113 89.4727 34.3332 89.4727V87.4727ZM45.8147 87.4727H34.3332V89.4727H45.8147V87.4727ZM46.8147 90.7273V88.4727H44.8147V90.7273H46.8147ZM34.3332 91.7273H45.8147V89.7273H34.3332V91.7273Z" fill="black" mask="url(#path-5-inside-1_13_82)"/>
</svg>
