<svg width="122" height="124" viewBox="0 0 122 124" fill="none" xmlns="http://www.w3.org/2000/svg">
<path fill-rule="evenodd" clip-rule="evenodd" d="M55.865 0.000937006C74.618 0.0937922 93.7647 7.01859 104.032 19.2822C113.171 30.1978 103.509 43.8796 103.524 56.9241C103.539 69.9923 113.179 83.6494 104.119 94.6338C93.8568 107.077 74.613 116.828 55.865 114.709C37.9279 112.682 30.1883 96.7127 19.8054 85.1039C12.004 76.3813 6.20158 67.4485 4.18214 56.9241C1.67096 43.8369 -2.71576 29.5948 7.08335 18.8021C17.9901 6.78951 37.0175 -0.0923866 55.865 0.000937006Z" fill="#F5F5F5"/>
<path fill-rule="evenodd" clip-rule="evenodd" d="M62.5308 15.0009C83.5622 15.0881 105.035 21.5914 116.55 33.1085C126.8 43.3596 115.963 56.2087 115.98 68.4591C115.997 80.7319 126.808 93.5577 116.648 103.873C105.138 115.559 83.5566 124.717 62.5308 122.727C42.4145 120.823 33.7345 105.826 22.0902 94.9237C13.3409 86.732 6.83355 78.3429 4.56876 68.4591C1.75248 56.1686 -3.1672 42.7934 7.82245 32.6577C20.0543 21.3762 41.3934 14.9132 62.5308 15.0009Z" stroke="#F5F5F5"/>
<rect x="35" y="29" width="40" height="54" rx="4" stroke="black" stroke-width="2"/>
<path d="M45 25C45 22.2386 47.2386 20 50 20H60C62.7614 20 65 22.2386 65 25V30H45V25Z" fill="#34CB79"/>
<path d="M50 21H60C62.2091 21 64 22.7909 64 25V29H46V25C46 22.7909 47.7909 21 50 21Z" stroke="black" stroke-width="2"/>
<path d="M46 58.8261L55 42V52.1739H64L55 69V58.8261H46Z" fill="#34CB79"/>
<path d="M46 58.8261L55 42V52.1739H64L55 69V58.8261H46Z" stroke="black" stroke-width="2" stroke-linejoin="round"/>
<line x1="35" y1="34" x2="76" y2="34" stroke="black" stroke-width="2"/>
<line x1="35" y1="78" x2="76" y2="78" stroke="black" stroke-width="2"/>
</svg>
