<svg width="125" height="118" viewBox="0 0 125 118" fill="none" xmlns="http://www.w3.org/2000/svg">
<path fill-rule="evenodd" clip-rule="evenodd" d="M83.0242 1.67715C96.2893 -0.267901 112.7 -2.64021 121.191 8.06584C129.582 18.6462 121.855 34.0591 119.359 47.4916C117.536 57.303 113.634 65.5095 108.9 74.2213C100.982 88.7928 98.7593 110.481 83.0242 114.358C66.9151 118.327 52.6344 103.077 40.9367 90.9674C29.2555 78.8744 15.3554 64.2764 18.4343 47.4916C21.3991 31.3286 41.2176 27.1793 54.3458 17.8672C63.6817 11.2452 71.8116 3.32122 83.0242 1.67715Z" fill="#F5F5F5"/>
<path fill-rule="evenodd" clip-rule="evenodd" d="M66.0242 3.67715C79.2893 1.7321 95.7001 -0.640209 104.191 10.0658C112.582 20.6462 104.855 36.0591 102.359 49.4916C100.536 59.303 96.6341 67.5095 91.9002 76.2213C83.9821 90.7928 81.7593 112.481 66.0242 116.358C49.9151 120.327 35.6344 105.077 23.9367 92.9674C12.2555 80.8744 -1.64462 66.2764 1.43427 49.4916C4.39911 33.3286 24.2176 29.1793 37.3458 19.8672C46.6817 13.2452 54.8116 5.32122 66.0242 3.67715Z" stroke="#F5F5F5"/>
<g clip-path="url(#clip0_13_83)">
<path d="M51 51.0001H60V61.0001H51V51.0001Z" stroke="black" stroke-width="2"/>
<path d="M78 37.0001C77.6106 38.5888 74 40.3224 74 42.143V49.0001H103V42.143C103 40.3224 98.8894 38.5888 98.5 37.0001H78Z" fill="#34CB79"/>
<path d="M41.0321 61.1936V66.3549C41.0321 67.0721 40.5 71.5002 47.9999 74.0002L48.4999 77.5002H54.9999H62.5C62.5 72.5002 68 72.5002 69.5 68.5002L69.9354 61.1936H41.0321Z" fill="#34CB79"/>
<path d="M96.2742 35.6265V36.0253L96.663 36.114C100.573 37.006 103.5 40.5051 103.5 44.6774V49.3387H95.7419H95.2419V49.8387V79.7742C95.2419 83.4824 92.2234 86.5 88.5161 86.5C84.8089 86.5 81.7903 83.4824 81.7903 79.7742V49.8387V49.3387H81.2903H73.5323V44.6774C73.5323 40.5051 76.4596 37.006 80.3693 36.114L80.7581 36.0253V35.6265V30.2258C80.7581 29.1041 81.4809 28.1501 82.4905 27.79L82.8226 27.6716V27.3191V26.0968C82.8226 24.6658 83.9883 23.5 85.4194 23.5H91.6129C93.0439 23.5 94.2097 24.6658 94.2097 26.0968V27.3191V27.6716L94.5417 27.79C95.5514 28.1501 96.2742 29.1041 96.2742 30.2258V35.6265ZM92.6452 27.629H93.1452V27.129V26.0968C93.1452 25.2524 92.4589 24.5645 91.6129 24.5645H85.4194C84.5733 24.5645 83.8871 25.2524 83.8871 26.0968V27.129V27.629H84.3871H92.6452ZM94.7097 35.8871H95.2097V35.3871V30.2258C95.2097 29.3814 94.5234 28.6935 93.6774 28.6935H83.3548C82.5088 28.6935 81.8226 29.3814 81.8226 30.2258V35.3871V35.8871H82.3226H94.7097ZM83.3548 49.3387H82.8548V49.8387V79.7742C82.8548 82.8961 85.3942 85.4355 88.5161 85.4355C91.638 85.4355 94.1774 82.8961 94.1774 79.7742V49.8387V49.3387H93.6774H91.6129H91.1129V49.8387V79.7742C91.1129 81.2052 89.9471 82.371 88.5161 82.371C87.0851 82.371 85.9194 81.2052 85.9194 79.7742V49.8387V49.3387H85.4194H83.3548ZM87.4839 49.3387H86.9839V49.8387V79.7742C86.9839 80.6186 87.6701 81.3064 88.5161 81.3064C89.3621 81.3064 90.0484 80.6186 90.0484 79.7742V49.8387V49.3387H89.5484H87.4839ZM74.5968 47.7742V48.2742H75.0968H101.935H102.435V47.7742V45.7097V43.6452V43.1452H102.274C101.56 39.6178 98.4457 36.9516 94.7097 36.9516H82.3226C78.5865 36.9516 75.4718 39.6178 74.7587 43.1452H74.5968V43.6452V45.7097V47.7742Z" fill="black" stroke="black"/>
<path d="M47.7258 74.5489V74.1076L47.288 74.0527C43.4676 73.5736 40.5 70.3023 40.5 66.3548V60.6613H70.4677V66.3548C70.4677 70.3023 67.5001 73.5736 63.6797 74.0527L63.2419 74.1076V74.5489V79.7742C63.2419 80.8959 62.5191 81.8499 61.5095 82.21L61.1774 82.3284V82.6809V83.9032C61.1774 85.3342 60.0117 86.5 58.5806 86.5H52.3871C50.9561 86.5 49.7903 85.3342 49.7903 83.9032V82.6809V82.3284L49.4583 82.21C48.4486 81.8499 47.7258 80.8959 47.7258 79.7742V74.5489ZM51.3548 82.3709H50.8548V82.8709V83.9032C50.8548 84.7476 51.5411 85.4355 52.3871 85.4355H58.5806C59.4267 85.4355 60.1129 84.7476 60.1129 83.9032V82.8709V82.3709H59.6129H51.3548ZM49.2903 78.2419H48.7903V78.7419V79.7742C48.7903 80.6185 49.4766 81.3064 50.3226 81.3064H60.6452C61.4912 81.3064 62.1774 80.6185 62.1774 79.7742V78.7419V78.2419H61.6774H49.2903ZM69.4032 62.2258V61.7258H68.9032H42.0645H41.5645V62.2258V64.2903V66.3548C41.5645 70.0468 44.5661 73.0484 48.2581 73.0484H48.7903V76.6774V77.1774H49.2903H61.6774H62.1774V76.6774V73.0484H62.7097C66.4016 73.0484 69.4032 70.0468 69.4032 66.3548V64.2903V62.2258Z" fill="black" stroke="black"/>
<path d="M67.7795 37.417L67.4141 37.9547L68.0275 38.1699C69.4481 38.6683 70.4677 40.0035 70.4677 41.5806C70.4677 43.1577 69.4481 44.493 68.0275 44.9914L67.4141 45.2066L67.7795 45.7443C68.1732 46.3234 68.4032 47.0219 68.4032 47.7742C68.4032 49.7753 66.7753 51.4032 64.7742 51.4032H46.1935C44.1925 51.4032 42.5645 49.7753 42.5645 47.7742C42.5645 47.0219 42.7946 46.3234 43.1882 45.7443L43.5536 45.2066L42.9402 44.9914C41.5196 44.493 40.5 43.1577 40.5 41.5806C40.5 40.0035 41.5196 38.6683 42.9402 38.1699L43.5536 37.9547L43.1882 37.417C42.7946 36.8378 42.5645 36.1394 42.5645 35.3871C42.5645 33.81 43.5842 32.4748 45.0048 31.9763L45.6182 31.7611L45.2527 31.2235C44.8591 30.6443 44.629 29.9458 44.629 29.1935C44.629 27.1925 46.257 25.5645 48.2581 25.5645H58.5806C60.5817 25.5645 62.2097 27.1925 62.2097 29.1935C62.2097 29.8502 62.02 30.4633 61.7036 31.0063L61.2656 31.7581H62.1356H64.7742C66.7753 31.7581 68.4032 33.386 68.4032 35.3871C68.4032 36.1394 68.1732 36.8378 67.7795 37.417ZM58.5806 26.629H48.2581C46.8433 26.629 45.6935 27.7788 45.6935 29.1935C45.6935 30.6083 46.8433 31.7581 48.2581 31.7581H58.5806C59.9954 31.7581 61.1452 30.6083 61.1452 29.1935C61.1452 27.7788 59.9954 26.629 58.5806 26.629ZM64.7742 32.8226H46.1935C44.7788 32.8226 43.629 33.9723 43.629 35.3871C43.629 36.8018 44.7788 37.9516 46.1935 37.9516H64.7742C66.1889 37.9516 67.3387 36.8018 67.3387 35.3871C67.3387 33.9723 66.1889 32.8226 64.7742 32.8226ZM46.1935 50.3387H64.7742C66.1889 50.3387 67.3387 49.1889 67.3387 47.7742C67.3387 46.3594 66.1889 45.2097 64.7742 45.2097H46.1935C44.7788 45.2097 43.629 46.3594 43.629 47.7742C43.629 49.1889 44.7788 50.3387 46.1935 50.3387ZM44.129 44.1452H66.8387C68.2535 44.1452 69.4032 42.9954 69.4032 41.5806C69.4032 40.1659 68.2535 39.0161 66.8387 39.0161H44.129C42.7143 39.0161 41.5645 40.1659 41.5645 41.5806C41.5645 42.9954 42.7143 44.1452 44.129 44.1452Z" fill="black" stroke="black"/>
</g>
<defs>
<clipPath id="clip0_13_83">
<rect x="40" y="23" width="64" height="64" fill="white"/>
</clipPath>
</defs>
</svg>
