<svg width="234" height="45" viewBox="0 0 234 45" fill="none" xmlns="http://www.w3.org/2000/svg">
<path d="M14.642 2.37406L10.0671 11.1105C9.77168 11.6746 9.96621 12.3798 10.5046 12.697L17.6681 16.9166C18.214 17.2381 18.9079 17.0404 19.2183 16.4749L27.9745 0.525085H17.6401C16.3892 0.525085 15.2386 1.23461 14.642 2.37406V2.37406Z" fill="#29A361"/>
<path d="M27.9743 0.524414L19.2184 16.4744C18.9074 17.0398 18.214 17.238 17.6683 16.9167L15.7986 15.8158C16.2544 15.8918 16.7287 15.6747 16.9701 15.2343L25.047 0.524414H27.9743Z" fill="#248F55"/>
<path d="M37.5549 8.98366L34.3995 2.47345C33.8206 1.27901 32.641 0.525085 31.3513 0.525085H22.228L29.2328 12.841C29.2099 12.8517 29.1868 12.8624 29.1638 12.8731C28.7232 13.0787 28.7412 13.7337 29.1923 13.9133L35.241 16.3205C35.5213 16.432 35.8358 16.287 35.9434 15.9966L38.2751 9.70398C38.4475 9.2385 37.9948 8.78935 37.5549 8.98366V8.98366Z" fill="#34CB79"/>
<path d="M38.2754 9.7034L35.943 15.9959C35.8358 16.2872 35.5209 16.4323 35.2409 16.3202L33.4107 15.5915L35.5924 9.7034C35.7165 9.36948 35.5184 9.0443 35.2341 8.95899C34.9635 8.87767 34.7324 8.69395 34.6059 8.43299L31.7167 2.47316C31.1382 1.27912 29.959 0.524414 28.6687 0.524414H31.3516C32.641 0.524414 33.8202 1.27912 34.3996 2.47316L37.5549 8.98387C37.9953 8.78965 38.4473 9.23803 38.2754 9.7034Z" fill="#2FB86E"/>
<path d="M31.4594 34.0837C31.3744 33.7222 30.9244 33.5674 30.6498 33.8519L25.9222 38.7512C25.7336 38.9467 25.7336 39.2635 25.9222 39.4589L30.668 44.377C30.9408 44.6596 31.3862 44.5088 31.4758 44.1535H38.4548C39.7397 44.1535 40.9156 43.4053 41.4969 42.2178L45.4791 34.0836H31.4594V34.0837Z" fill="#29A361"/>
<path d="M37.3508 34.0837L39.6137 37.6323C40.1253 38.4345 40.1819 39.4597 39.762 40.3172L38.8313 42.2179C38.2509 43.405 37.0745 44.1536 35.79 44.1536H38.4547C39.7392 44.1536 40.9155 43.405 41.497 42.2179L45.4789 34.0838H37.3508V34.0837Z" fill="#248F55"/>
<path d="M21.9354 43.2183V34.56C21.9354 33.9092 21.4263 33.3816 20.7983 33.3816H2.06787L6.88812 42.5525C7.48559 43.6892 8.63468 44.3966 9.88372 44.3966H20.7983C21.4262 44.3967 21.9354 43.8692 21.9354 43.2183Z" fill="#29A361"/>
<path d="M10.0115 33.3824L5.85181 40.5818L2.06787 33.3824H10.0115Z" fill="#248F55"/>
<path d="M21.9352 34.5602V43.2188C21.9352 43.8694 21.4262 44.3968 20.7985 44.3968H17.8152C18.4429 44.3968 18.9519 43.8694 18.9519 43.2188V34.5602C18.9519 33.9097 18.4429 33.3822 17.8152 33.3822H20.7985C21.4262 33.3821 21.9352 33.9097 21.9352 34.5602Z" fill="#248F55"/>
<path d="M12.7847 25.731L11.9436 19.1711C11.902 18.847 11.6148 18.6193 11.3021 18.6623L4.94784 19.5373C4.46934 19.6032 4.29102 20.2064 4.61877 20.542L0.608522 26.5321C-0.126759 27.6304 -0.201384 29.0644 0.415585 30.2382L4.77955 38.5411L11.8654 26.2751C11.8679 26.277 11.8703 26.2791 11.8729 26.281C12.2773 26.5991 12.8515 26.2526 12.7847 25.731Z" fill="#34CB79"/>
<path d="M11.8725 26.281C11.8705 26.279 11.8677 26.277 11.8657 26.275L4.77961 38.5407L3.32227 35.7683L9.08977 25.783L9.2497 25.506C9.33717 25.3546 9.50808 25.2892 9.67523 25.3229C9.67608 25.3231 9.67692 25.3232 9.67777 25.3233C10.0334 25.389 10.3981 25.082 10.3435 24.6606L9.60464 18.8956L11.3015 18.6624C11.6145 18.6194 11.9023 18.8476 11.9438 19.1709L12.785 25.7316C12.8518 26.2529 12.2771 26.5992 11.8725 26.281V26.281Z" fill="#2FB86E"/>
<path d="M47.3962 26.0813L41.9106 17.8441C41.5741 17.3387 40.9195 17.1859 40.4064 17.4927L33.2576 21.7679C32.6903 22.1072 32.5162 22.8719 32.8774 23.4383L42.9551 39.2395L47.6308 29.6887C48.1967 28.5326 48.1067 27.1483 47.3962 26.0813V26.0813Z" fill="#34CB79"/>
<path d="M47.6309 29.6889L42.9546 39.2392L41.3861 36.779L44.8572 29.6888C45.4232 28.5327 45.3334 27.1486 44.6226 26.0816L39.3311 18.1367L40.4069 17.4931C40.9197 17.1858 41.5746 17.3389 41.9107 17.8444L47.3964 26.0817C48.1071 27.1487 48.1969 28.5329 47.6309 29.6889V29.6889Z" fill="#2FB86E"/>
<path d="M86.5706 35.0244H81.5632L75.9407 25.3857H71.0872V35.0244H66.5754V9.38965H76.0261C78.0199 9.38965 79.7232 9.70866 81.136 10.3467C82.5487 10.9847 83.6368 11.9019 84.4001 13.0981C85.1635 14.283 85.5452 15.7129 85.5452 17.3877C85.5452 19.165 85.1065 20.6746 84.2292 21.9165C83.352 23.147 82.1101 24.047 80.5037 24.6167L86.5706 35.0244ZM71.0872 21.6943H75.7014C77.3534 21.6943 78.6352 21.3298 79.5466 20.6006C80.4695 19.8714 80.9309 18.846 80.9309 17.5244C80.9309 16.2028 80.4752 15.1774 79.5637 14.4482C78.6523 13.7191 77.3648 13.3545 75.7014 13.3545H71.0872V21.6943ZM105.079 33.042C102.948 34.5915 100.618 35.3662 98.0891 35.3662C96.2548 35.3662 94.6085 34.9674 93.1501 34.1699C91.6918 33.3724 90.5354 32.2843 89.6809 30.9058C88.8378 29.5158 88.4163 27.9549 88.4163 26.2231C88.4163 24.5711 88.7979 23.0957 89.5613 21.7969C90.336 20.498 91.3899 19.4727 92.7229 18.7207C94.0673 17.9688 95.5826 17.5928 97.2688 17.5928C99.0234 17.5928 100.561 18.0086 101.883 18.8403C103.216 19.6606 104.253 20.8057 104.993 22.2754C105.734 23.7337 106.104 25.4313 106.104 27.3682V27.915H92.9451C93.1501 28.6898 93.509 29.3734 94.0217 29.9658C94.5458 30.5583 95.1952 31.0197 95.97 31.3501C96.7447 31.6805 97.6163 31.8457 98.5847 31.8457C100.408 31.8457 102.094 31.2533 103.643 30.0684L105.079 33.042ZM92.7742 25.4541H102.208C102.117 24.5996 101.855 23.8534 101.422 23.2153C101 22.5773 100.448 22.0817 99.7639 21.7285C99.0917 21.3639 98.3341 21.1816 97.491 21.1816C96.6365 21.1816 95.8731 21.3639 95.2009 21.7285C94.5287 22.0931 93.9819 22.6001 93.5603 23.2495C93.1388 23.8875 92.8767 24.6224 92.7742 25.4541ZM125.86 35.0244H122.391L122.254 32.2729C121.639 33.2756 120.83 34.0446 119.827 34.5801C118.825 35.1042 117.64 35.3662 116.273 35.3662C114.074 35.3662 112.336 34.694 111.06 33.3496C109.796 31.9938 109.163 30.131 109.163 27.7612V17.9346H113.367V26.958C113.367 28.3822 113.726 29.5101 114.444 30.3418C115.173 31.1621 116.159 31.5723 117.401 31.5723C118.688 31.5723 119.719 31.1336 120.494 30.2563C121.269 29.3791 121.656 28.2113 121.656 26.7529V17.9346H125.86V35.0244ZM141.685 34.5801C140.432 35.1042 139.219 35.3662 138.045 35.3662C136.849 35.3662 135.795 35.1099 134.884 34.5972C133.983 34.0845 133.277 33.3724 132.764 32.4609C132.263 31.5381 132.012 30.4671 132.012 29.248V21.6943H129.022V17.9346H132.235V13.6621H136.217V17.9346H141.087V21.6943H136.217V28.479C136.217 29.4474 136.479 30.2108 137.003 30.769C137.538 31.3273 138.205 31.6064 139.002 31.6064C139.709 31.6064 140.409 31.39 141.104 30.957L141.685 34.5801ZM146.47 13.4058C145.878 13.4058 145.377 13.2007 144.967 12.7905C144.568 12.369 144.368 11.862 144.368 11.2695C144.368 10.6885 144.568 10.1929 144.967 9.78271C145.377 9.36117 145.878 9.15039 146.47 9.15039C147.074 9.15039 147.581 9.36117 147.991 9.78271C148.402 10.1929 148.607 10.6885 148.607 11.2695C148.607 11.862 148.402 12.369 147.991 12.7905C147.581 13.2007 147.074 13.4058 146.47 13.4058ZM148.573 35.0244H144.368V17.9346H148.573V35.0244ZM157.681 35.0244H153.187V8.70605H157.681V35.0244ZM164.381 13.4058C163.788 13.4058 163.287 13.2007 162.877 12.7905C162.478 12.369 162.279 11.862 162.279 11.2695C162.279 10.6885 162.478 10.1929 162.877 9.78271C163.287 9.36117 163.788 9.15039 164.381 9.15039C164.984 9.15039 165.491 9.36117 165.902 9.78271C166.312 10.1929 166.517 10.6885 166.517 11.2695C166.517 11.862 166.312 12.369 165.902 12.7905C165.491 13.2007 164.984 13.4058 164.381 13.4058ZM166.483 35.0244H162.279V17.9346H166.483V35.0244ZM169.901 32.3584L172.037 28.9062C172.823 29.5215 173.581 30.0342 174.31 30.4443C175.039 30.8431 175.774 31.1393 176.514 31.333C177.255 31.5267 178.007 31.6235 178.77 31.6235C179.75 31.6235 180.599 31.4754 181.317 31.1792C182.046 30.8716 182.61 30.45 183.009 29.9146C183.407 29.3791 183.607 28.7524 183.607 28.0347C183.607 27.2257 183.362 26.5535 182.872 26.0181C182.393 25.4712 181.761 25.0041 180.975 24.6167C180.189 24.2179 179.346 23.8306 178.446 23.4546C177.625 23.1128 176.794 22.7425 175.95 22.3438C175.119 21.945 174.361 21.4722 173.677 20.9253C172.994 20.367 172.441 19.6948 172.02 18.9087C171.61 18.1226 171.405 17.1712 171.405 16.0547C171.405 14.6077 171.769 13.3488 172.498 12.2778C173.227 11.1955 174.236 10.3638 175.523 9.78271C176.811 9.19027 178.28 8.89404 179.932 8.89404C181.094 8.89404 182.285 9.04785 183.504 9.35547C184.735 9.65169 185.948 10.1074 187.144 10.7227L185.35 14.3628C184.541 13.8843 183.681 13.514 182.769 13.252C181.858 12.9785 180.986 12.8418 180.155 12.8418C179.334 12.8418 178.611 12.9728 177.984 13.2349C177.369 13.4855 176.885 13.8501 176.531 14.3286C176.19 14.7957 176.019 15.3426 176.019 15.9692C176.019 16.7098 176.247 17.3364 176.702 17.8491C177.17 18.3618 177.779 18.8175 178.531 19.2163C179.283 19.6037 180.086 19.9854 180.941 20.3613C181.795 20.7373 182.65 21.1418 183.504 21.5747C184.37 21.9963 185.156 22.4976 185.863 23.0786C186.58 23.6597 187.15 24.3547 187.572 25.1636C188.004 25.9725 188.221 26.9466 188.221 28.0859C188.221 29.5671 187.834 30.8716 187.059 31.9995C186.295 33.116 185.219 33.9876 183.829 34.6143C182.439 35.2295 180.815 35.5371 178.958 35.5371C177.295 35.5371 175.7 35.2694 174.173 34.7339C172.646 34.1984 171.222 33.4066 169.901 32.3584ZM194.049 13.4058C193.456 13.4058 192.955 13.2007 192.545 12.7905C192.146 12.369 191.947 11.862 191.947 11.2695C191.947 10.6885 192.146 10.1929 192.545 9.78271C192.955 9.36117 193.456 9.15039 194.049 9.15039C194.652 9.15039 195.159 9.36117 195.57 9.78271C195.98 10.1929 196.185 10.6885 196.185 11.2695C196.185 11.862 195.98 12.369 195.57 12.7905C195.159 13.2007 194.652 13.4058 194.049 13.4058ZM196.151 35.0244H191.947V17.9346H196.151V35.0244ZM212.027 34.5801C210.774 35.1042 209.56 35.3662 208.387 35.3662C207.191 35.3662 206.137 35.1099 205.225 34.5972C204.325 34.0845 203.619 33.3724 203.106 32.4609C202.605 31.5381 202.354 30.4671 202.354 29.248V21.6943H199.364V17.9346H202.576V13.6621H206.558V17.9346H211.429V21.6943H206.558V28.479C206.558 29.4474 206.82 30.2108 207.344 30.769C207.88 31.3273 208.546 31.6064 209.344 31.6064C210.05 31.6064 210.751 31.39 211.446 30.957L212.027 34.5801ZM230.689 33.042C228.559 34.5915 226.229 35.3662 223.699 35.3662C221.865 35.3662 220.219 34.9674 218.76 34.1699C217.302 33.3724 216.146 32.2843 215.291 30.9058C214.448 29.5158 214.027 27.9549 214.027 26.2231C214.027 24.5711 214.408 23.0957 215.172 21.7969C215.946 20.498 217 19.4727 218.333 18.7207C219.678 17.9688 221.193 17.5928 222.879 17.5928C224.634 17.5928 226.172 18.0086 227.493 18.8403C228.826 19.6606 229.863 20.8057 230.604 22.2754C231.344 23.7337 231.715 25.4313 231.715 27.3682V27.915H218.555C218.76 28.6898 219.119 29.3734 219.632 29.9658C220.156 30.5583 220.806 31.0197 221.58 31.3501C222.355 31.6805 223.227 31.8457 224.195 31.8457C226.018 31.8457 227.704 31.2533 229.254 30.0684L230.689 33.042ZM218.385 25.4541H227.818C227.727 24.5996 227.465 23.8534 227.032 23.2153C226.61 22.5773 226.058 22.0817 225.374 21.7285C224.702 21.3639 223.944 21.1816 223.101 21.1816C222.247 21.1816 221.483 21.3639 220.811 21.7285C220.139 22.0931 219.592 22.6001 219.171 23.2495C218.749 23.8875 218.487 24.6224 218.385 25.4541Z" fill="#322153"/>
</svg>
