<svg width="107" height="115" viewBox="0 0 107 115" fill="none" xmlns="http://www.w3.org/2000/svg">
<path fill-rule="evenodd" clip-rule="evenodd" d="M54.865 0.000937006C73.618 0.0937922 92.7647 7.01859 103.032 19.2822C112.171 30.1978 102.509 43.8796 102.524 56.9241C102.539 69.9923 112.179 83.6495 103.119 94.6338C92.8568 107.077 73.613 116.828 54.865 114.709C36.9279 112.682 29.1883 96.7127 18.8054 85.1039C11.004 76.3813 5.20158 67.4485 3.18214 56.9241C0.670964 43.8369 -3.71576 29.5948 6.08335 18.8021C16.9901 6.78951 36.0175 -0.0923866 54.865 0.000937006Z" fill="#F5F5F5"/>
<path d="M74.2173 30.4527V29.3063C74.2173 27.1485 72.4621 25.3932 70.3043 25.3932H46.826C44.6682 25.3932 42.913 27.1485 42.913 29.3063V30.4527C40.9808 32.3843 39 33.835 39 36.7968V48.8593V48.861V61.9028V61.9044V73.9897C39 76.907 40.7995 78.2201 42.913 80.3338V81.48C42.913 83.6378 44.6682 85.393 46.826 85.393H70.3043C72.4621 85.393 74.2173 83.6378 74.2173 81.48V80.3336C76.1481 78.4033 78.1303 76.9518 78.1303 73.9895V36.7968C78.1304 33.8387 76.1561 32.3915 74.2173 30.4527ZM46.826 31.2628V29.3063H70.3043V31.2628C70.3043 32.1908 70.8135 32.582 71.4505 33.2194H45.6797C46.3207 32.5782 46.826 32.1891 46.826 31.2628ZM70.3043 79.5237V81.4802H46.826V79.5237C46.826 78.5957 46.3168 78.1913 45.6798 77.5541H71.4507C70.8096 78.1952 70.3043 78.5974 70.3043 79.5237ZM74.2173 61.0306C69.3584 65.012 64.3193 64.7201 59.9433 60.5265C59.942 60.5254 59.9405 60.5251 59.9405 60.5251C55.4283 56.0344 49.1021 54.4747 42.913 58.059V49.755C47.7734 45.7743 52.8108 46.0674 57.1857 50.26C57.187 50.2611 57.1886 50.2614 57.1886 50.2614C61.699 54.7398 68.0128 56.3203 74.2173 52.7268V61.0306Z" fill="black"/>
</svg>
