<svg width="107" height="111" viewBox="0 0 107 111" fill="none" xmlns="http://www.w3.org/2000/svg">
<path fill-rule="evenodd" clip-rule="evenodd" d="M54.8651 0.00315223C73.618 0.0960075 92.7648 2.02174 103.032 14.2853C112.172 25.2009 102.509 38.8827 102.524 51.9272C102.539 64.9955 112.179 78.6526 103.119 89.637C92.8568 102.08 73.6131 111.832 54.8651 109.713C36.928 107.685 38.9949 105.902 28.6121 94.2927C13.7075 88.4485 5.20166 62.4516 3.18222 51.9272C0.671038 38.8401 -3.71568 24.5979 6.08342 13.8053C16.9902 1.79266 36.0175 -0.0901713 54.8651 0.00315223Z" fill="#F5F5F5"/>
<path fill-rule="evenodd" clip-rule="evenodd" d="M82.3506 45.4948C82.3506 52.3403 80.0786 58.1853 75.5279 63.0089C70.9708 67.8394 65.4632 70.2547 59.0051 70.2547C52.573 70.2547 47.0654 67.8463 42.5018 63.0089C37.9446 58.1853 35.6531 52.3403 35.6531 45.4948C35.6531 38.6699 37.9381 32.8526 42.5018 28.0082C47.0784 23.1777 52.5795 20.7486 59.0051 20.7486C65.4632 20.7486 70.9708 23.1708 75.5279 28.0082C80.072 32.8526 82.3506 38.6699 82.3506 45.4948ZM29.6572 40.9334C31.7079 39.4497 32.7365 37.5106 32.5607 33.0734V21.6664C32.5412 20.0724 29.8134 19.8791 29.6767 21.6664L29.5725 30.9204C29.566 32.6525 27.1117 32.7077 27.1182 30.9204L27.2224 21.349C27.1898 19.6376 24.5857 19.4651 24.5532 21.349C24.5532 24.0058 24.449 28.2636 24.449 30.9204C24.5792 32.5973 22.3007 32.8181 22.3593 30.9204L22.4634 21.4111C22.4048 20.1207 21.0637 19.6583 20.1523 20.2656C19.1823 20.9212 19.3776 22.2392 19.3385 23.3502L19 34.2672C19.0521 37.4416 19.8398 40.0225 22.1835 41.1197C22.5415 41.2853 23.0363 41.4164 23.6092 41.5061L22.8019 68.1293C22.7564 69.7096 23.9738 71 25.3995 71H25.725C27.333 71 28.6937 69.5439 28.6481 67.7704L27.9385 41.4992C28.6872 41.375 29.3056 41.1887 29.6572 40.9334ZM88.4897 67.3288L88.4507 43.4176C80.5408 38.5733 83.0602 19.9068 90.9766 20.0103C100.599 20.1276 101.738 41.0438 93.4635 43.3417L94.0755 67.4254C94.1926 71.9799 88.4962 72.4008 88.4897 67.3288ZM72.5984 45.4741C72.5984 49.4627 71.2768 52.8648 68.6141 55.6872C65.958 58.4958 62.7484 59.9105 58.9856 59.9105C55.2487 59.9105 52.0392 58.4958 49.383 55.6872C46.7269 52.8648 45.3988 49.4627 45.3988 45.4741C45.3988 41.513 46.7269 38.111 49.383 35.3024C52.0457 32.4937 55.2487 31.0791 58.9856 31.0791C66.5439 31.086 72.5984 37.4554 72.5984 45.4741ZM75.7818 45.4741C75.7818 40.5745 74.1543 36.3858 70.8797 32.9147C67.605 29.4436 63.6403 27.7184 58.9856 27.7184C54.3438 27.7184 50.3921 29.4436 47.137 32.9147C43.8624 36.3858 42.2153 40.5745 42.2153 45.4741C42.2153 50.3874 43.8624 54.5762 47.137 58.0611C50.3921 61.5391 54.3438 63.2849 58.9856 63.2849C63.6338 63.2849 67.5985 61.5391 70.8797 58.0611C74.1478 54.5693 75.7818 50.3805 75.7818 45.4741Z" fill="black"/>
</svg>
