<svg width="107" height="117" viewBox="0 0 107 117" fill="none" xmlns="http://www.w3.org/2000/svg">
<path fill-rule="evenodd" clip-rule="evenodd" d="M46.5405 0.113266C57.7348 1.18178 77.0949 1.10844 86.5201 8.48209C98.965 18.2182 106.978 37.8717 107 55.782C107.022 73.6945 97.7377 78.8314 86.5201 90.5468C76.6235 100.883 73.1148 117.708 60.0462 116.977C47.1864 116.257 26.237 102.25 17.7603 90.5468C10.1391 80.0242 2.22611 69.6579 0.808045 55.782C-0.802367 40.0239 -0.888442 28.0778 9.09604 17.7511C18.8236 7.69012 33.7741 -1.1053 46.5405 0.113266Z" fill="#F5F5F5"/>
<path d="M76.1464 79.1464L69 86.2929L61.8536 79.1464L61.5 78.7929L61.1464 79.1464L54 86.2929L46.8536 79.1464L46.5 78.7929L46.1464 79.1464L39 86.2929L31.8536 79.1464L31.5 78.7929L31.1464 79.1464L24.5 85.7929V38.28C24.5 35.2922 25.5476 32.7595 27.6536 30.6536C29.7595 28.5476 32.2922 27.5 35.28 27.5H72.78C75.7259 27.5 78.2391 28.5463 80.3464 30.6536C82.4524 32.7595 83.5 35.2922 83.5 38.28V85.7929L76.8536 79.1464L76.5 78.7929L76.1464 79.1464ZM31 68.28V68.4871L31.1464 68.6336L38.6464 76.1336L39 76.4871L39.3536 76.1336L46.5 68.9871L53.6464 76.1336L54 76.4871L54.3536 76.1336L61.5 68.9871L68.6464 76.1336L69 76.4871L69.3536 76.1336L76.8536 68.6336L77 68.4871V68.28V38.2897C77.0431 37.1433 76.6215 36.1344 75.7736 35.2864C74.9275 34.4404 73.9232 34 72.78 34H35.28H35.2707L35.2615 34.0003C34.0639 34.0447 33.0415 34.4714 32.2264 35.2864C31.4105 36.1024 31 37.1106 31 38.28V68.28ZM68.5 60.28H39.5V57.5H68.5V60.28ZM68.5 52.78H39.5V50H68.5V52.78ZM68.5 45.28H39.5V42.5H68.5V45.28Z" fill="black" stroke="black"/>
</svg>
