<svg width="107" height="115" viewBox="0 0 107 115" fill="none" xmlns="http://www.w3.org/2000/svg">
<path fill-rule="evenodd" clip-rule="evenodd" d="M56.4738 1.16442C68.9403 4.89571 72.0462 24.5205 80.9407 36.1636C89.5066 47.3765 105.187 51.6125 106.81 67.056C108.491 83.045 98.7416 97.8842 88.4293 107.404C79.3881 115.75 67.6391 114.634 56.4738 113.523C46.4913 112.529 37.5545 108.455 29.1885 101.507C17.7312 91.9917 3.01777 84.0822 0.523355 67.056C-2.17946 48.6073 5.93672 29.7637 16.803 16.9668C27.3441 4.55271 42.4478 -3.03365 56.4738 1.16442Z" fill="#F5F5F5"/>
<path d="M66.1308 44.7878L66.1307 44.7876L59.7933 35.0163C59.9754 34.7503 60.0829 34.4283 60.0829 34.0806V28.165C60.0829 27.2427 59.3311 26.5 58.4106 26.5H49.4873C48.5665 26.5 47.815 27.2427 47.815 28.165V34.0806C47.815 34.4283 47.9225 34.7504 48.1047 35.0165L41.7673 44.7876L41.7671 44.7879C41.5929 45.0569 41.5 45.3703 41.5 45.6909V54.5326V68.1687V81.8923C41.5 84.7823 43.8638 87.1275 46.7642 87.1275C48.1515 87.1275 49.4157 86.5908 50.3567 85.7164C51.2977 86.5908 52.5619 87.1275 53.9492 87.1275C55.3365 87.1275 56.6007 86.5908 57.5417 85.7164C58.4827 86.5908 59.7469 87.1275 61.1342 87.1275C64.0344 87.1275 66.3984 84.7823 66.3984 81.8923V68.1687V54.5326V45.6909V45.69C66.3978 45.3699 66.3051 45.0567 66.1308 44.7878ZM44.8442 81.8921V69.8335H63.053V81.8921V81.8923C63.0533 82.9394 62.1948 83.7973 61.1338 83.7973C60.0725 83.7973 59.2136 82.9392 59.2136 81.8921C59.2136 80.9696 58.462 80.2271 57.5413 80.2271C56.6209 80.2271 55.869 80.9695 55.869 81.8921C55.869 82.9392 55.0101 83.7973 53.9488 83.7973C52.8875 83.7973 52.0286 82.9392 52.0286 81.8921C52.0286 80.9695 51.2768 80.2271 50.3563 80.2271C49.4356 80.2271 48.684 80.9696 48.684 81.8921C48.684 82.9392 47.8251 83.7973 46.7638 83.7973C45.7029 83.7973 44.8442 82.9394 44.8442 81.8921ZM51.1593 29.83H56.7381V32.4155H51.1593V29.83ZM44.8446 46.1815L51.6131 35.7456H56.2849L63.0534 46.1815V52.8676H44.8446V46.1815ZM63.0534 66.5035H44.8446V56.1974H63.0534V66.5035Z" fill="black" stroke="black"/>
</svg>
