<svg width="95" height="543" viewBox="0 0 95 543" fill="none" xmlns="http://www.w3.org/2000/svg">
<path fill-rule="evenodd" clip-rule="evenodd" d="M273.263 3.77267C330.867 -5.28731 393.408 7.78733 439.108 44.007C483.996 79.5837 495.575 139.815 513.536 194.203C531.595 248.892 565.943 307.04 543.482 360.072C521.206 412.666 451.689 420.762 404.161 452.438C359.357 482.299 326.507 532.158 273.263 540.165C216.253 548.737 156.59 530.936 110.256 496.633C64.1573 462.505 38.9889 408.699 21.7804 353.985C4.71425 299.723 -10.44 239.522 13.1036 187.742C35.8475 137.72 96.568 122.551 141.433 90.8252C185.508 59.6586 219.938 12.1596 273.263 3.77267Z" stroke="#BCEEB0" stroke-width="0.829525"/>
</svg>
