<svg width="184" height="368" viewBox="0 0 184 368" fill="none" xmlns="http://www.w3.org/2000/svg">
<g filter="url(#filter0_d_16_61)">
<path fill-rule="evenodd" clip-rule="evenodd" d="M257.662 -171.796C303.778 -160.04 327.535 -112.167 370.776 -93.1093C419.718 -71.5393 496.849 -97.4446 524.758 -54.0796C552.461 -11.0347 493.997 40.2072 488.76 90.2152C484.199 133.761 511.52 177.732 496.154 219.057C479.834 262.949 446.592 303.724 401.861 323.92C357.811 343.808 306.551 325.382 257.662 326.734C207.05 328.134 149.496 359.785 108.456 332.035C66.3995 303.598 86.2644 238.761 63.2207 195.26C42.2073 155.591 0.764991 134.359 4.39681 90.2152C8.11732 44.9933 43.209 -12.7698 63.2207 -54.0796C86.7237 -102.596 22.9 -134.192 63.2207 -171.796C100.624 -206.679 206.711 -184.786 257.662 -171.796Z" fill="url(#paint0_linear_16_61)"/>
</g>
<defs>
<filter id="filter0_d_16_61" x="0.172852" y="-190.607" width="536" height="558" filterUnits="userSpaceOnUse" color-interpolation-filters="sRGB">
<feFlood flood-opacity="0" result="BackgroundImageFix"/>
<feColorMatrix in="SourceAlpha" type="matrix" values="0 0 0 0 0 0 0 0 0 0 0 0 0 0 0 0 0 0 127 0" result="hardAlpha"/>
<feOffset dy="20"/>
<feGaussianBlur stdDeviation="2"/>
<feComposite in2="hardAlpha" operator="out"/>
<feColorMatrix type="matrix" values="0 0 0 0 0 0 0 0 0 0 0 0 0 0 0 0 0 0 0.1 0"/>
<feBlend mode="normal" in2="BackgroundImageFix" result="effect1_dropShadow_16_61"/>
<feBlend mode="normal" in="SourceGraphic" in2="effect1_dropShadow_16_61" result="shape"/>
</filter>
<linearGradient id="paint0_linear_16_61" x1="264.74" y1="48.0236" x2="264.74" y2="576.045" gradientUnits="userSpaceOnUse">
<stop stop-color="#34CB79"/>
<stop offset="1" stop-color="#BCEEB0"/>
</linearGradient>
</defs>
</svg>
