<svg width="89" height="510" viewBox="0 0 89 510" fill="none" xmlns="http://www.w3.org/2000/svg">
<g filter="url(#filter0_d_79_44)">
<path fill-rule="evenodd" clip-rule="evenodd" d="M-163.779 11.5275C-125.014 22.0889 -105.044 65.0953 -68.6961 82.2153C-27.556 101.593 37.2801 78.3207 60.7401 117.277C84.0268 155.946 34.8822 201.979 30.48 246.903C26.6467 286.022 49.6124 325.523 36.696 362.647C22.9772 402.078 -4.96541 438.707 -42.5659 456.85C-79.5943 474.716 -122.683 458.163 -163.779 459.378C-206.323 460.636 -254.702 489.069 -289.2 464.14C-324.553 438.594 -307.854 380.348 -327.225 341.269C-344.888 305.633 -399.931 286.559 -396.878 246.903C-393.75 206.278 -330.136 197.679 -313.314 160.569C-293.557 116.984 -328.251 54.5152 -294.358 20.7338C-262.917 -10.6032 -206.608 -0.141437 -163.779 11.5275Z" fill="url(#paint0_linear_79_44)"/>
</g>
<path fill-rule="evenodd" clip-rule="evenodd" d="M57.3123 444.094C63.5654 444.324 68.1451 450.246 73.1619 454.482C78.1066 458.657 83.9279 462.076 86.2668 468.542C88.691 475.243 88.5711 483.146 85.9142 489.733C83.3952 495.978 77.692 499.369 72.4459 502.805C67.7312 505.894 62.7109 507.658 57.3123 508.467C51.0935 509.399 44.7324 510.611 38.963 507.821C32.2607 504.579 26.0618 499.322 22.9563 491.852C19.6353 483.863 17.9974 473.884 21.5996 466.053C25.1015 458.441 34.0374 457.382 40.6963 453.287C46.2496 449.872 50.9974 443.861 57.3123 444.094Z" stroke="#BCEEB0" stroke-width="0.743865"/>
<defs>
<filter id="filter0_d_79_44" x="-399.975" y="0" width="469.924" height="492.196" filterUnits="userSpaceOnUse" color-interpolation-filters="sRGB">
<feFlood flood-opacity="0" result="BackgroundImageFix"/>
<feColorMatrix in="SourceAlpha" type="matrix" values="0 0 0 0 0 0 0 0 0 0 0 0 0 0 0 0 0 0 127 0" result="hardAlpha"/>
<feOffset dy="14.8773"/>
<feGaussianBlur stdDeviation="1.48773"/>
<feComposite in2="hardAlpha" operator="out"/>
<feColorMatrix type="matrix" values="0 0 0 0 0 0 0 0 0 0 0 0 0 0 0 0 0 0 0.1 0"/>
<feBlend mode="normal" in2="BackgroundImageFix" result="effect1_dropShadow_79_44"/>
<feBlend mode="normal" in="SourceGraphic" in2="effect1_dropShadow_79_44" result="shape"/>
</filter>
<linearGradient id="paint0_linear_79_44" x1="-165.014" y1="0" x2="-165.014" y2="474.343" gradientUnits="userSpaceOnUse">
<stop stop-color="#34CB79"/>
<stop offset="1" stop-color="#BCEEB0"/>
</linearGradient>
</defs>
</svg>
