<svg width="107" height="115" viewBox="0 0 107 115" fill="none" xmlns="http://www.w3.org/2000/svg">
<path fill-rule="evenodd" clip-rule="evenodd" d="M54.865 0.000937006C73.618 0.0937922 92.7647 7.01859 103.032 19.2822C112.171 30.1978 102.509 43.8796 102.524 56.9241C102.539 69.9923 112.179 83.6495 103.119 94.6338C92.8568 107.077 73.613 116.828 54.865 114.709C36.9279 112.682 29.1883 96.7127 18.8054 85.1039C11.004 76.3813 5.20158 67.4485 3.18214 56.9241C0.670964 43.8369 -3.71576 29.5948 6.08335 18.8021C16.9901 6.78951 36.0175 -0.0923866 54.865 0.000937006Z" fill="#F5F5F5"/>
<path fill-rule="evenodd" clip-rule="evenodd" d="M51.6372 52.6219C46.4761 47.8904 38.3853 50.0535 31.5396 49.2918C32.6578 45.7371 34.1519 41.865 35.7974 37.7732C37.2525 34.1502 37.2671 34.1551 39.9722 34.7361C40.4703 34.8435 41.0367 34.9656 41.608 35.0779L50.6216 36.8553C51.0757 36.9822 51.4126 37.1824 51.6421 37.451C51.8765 37.7244 52.0279 38.0857 52.1011 38.5398C52.0572 39.8582 52.0376 41.3182 52.0181 42.8416C51.979 45.9275 51.9351 49.3113 51.6372 52.6219ZM65.3287 91.035C64.4449 91.2058 63.5904 90.6248 63.4195 89.741C63.2486 88.8572 63.8296 88.0027 64.7134 87.8318L71.5835 86.5037L68.649 72.158C67.648 72.2557 66.6861 72.241 65.773 72.1141C63.7613 71.8357 61.9839 71.0301 60.4361 69.7117C56.1441 66.0642 54.4742 60.1121 53.8003 53.9012C53.1265 60.1072 51.4566 66.0594 47.1646 69.7117C45.6119 71.0301 43.8345 71.8357 41.8277 72.1141C40.9146 72.241 39.9576 72.2557 38.9517 72.158L35.8169 87.4949L42.4185 88.7742C43.3023 88.9451 43.8833 89.7996 43.7124 90.6834C43.5415 91.5672 42.6871 92.1482 41.8033 91.9773L25.3238 88.7889C24.44 88.618 23.8589 87.7635 24.0298 86.8797C24.2007 85.9959 25.0552 85.4148 25.939 85.5857L32.6138 86.8748L35.7583 71.5086C35.6412 71.4744 35.524 71.4353 35.4019 71.3963C35.3824 71.3914 35.3628 71.3865 35.3433 71.3767C28.8931 69.2771 26.8179 64.6971 27.2574 58.4129C27.6675 52.5242 30.3775 45.1414 33.6783 36.9236C35.856 31.5135 35.8755 31.5183 40.4458 32.4998C40.8902 32.5975 41.398 32.7049 42.0425 32.8318L51.0757 34.6141C51.1001 34.6189 51.1246 34.6238 51.149 34.6287C52.0913 34.8777 52.8238 35.3269 53.3706 35.9617C53.5318 36.1521 53.6734 36.3523 53.8003 36.5672C53.9224 36.3523 54.0689 36.1473 54.23 35.9617C54.7769 35.3269 55.5142 34.8777 56.4517 34.6287C56.4761 34.6238 56.5005 34.6189 56.5249 34.6141L65.5581 32.8318C66.2027 32.7049 66.7105 32.5975 67.1548 32.4998C71.7251 31.5183 71.7447 31.5135 73.9175 36.9236C77.2232 45.1414 79.9283 52.5242 80.3384 58.4129C80.7779 64.6922 78.7027 69.2771 72.2525 71.3767C72.233 71.3816 72.2134 71.3865 72.1939 71.3963C72.0767 71.4353 71.9546 71.4695 71.8374 71.5086L74.7769 85.8885L81.188 84.6482C82.0718 84.4773 82.9263 85.0584 83.0972 85.9422C83.2681 86.826 82.687 87.6805 81.8033 87.8514L65.3287 91.035ZM60.1822 61.0691C60.0503 60.7322 60.2164 60.3562 60.5533 60.2244C60.8902 60.0926 61.2662 60.2586 61.398 60.5955C62.2329 62.7195 63.3902 64.282 64.8257 65.3562C66.2564 66.4207 67.98 67.0115 69.9576 67.1824C70.3189 67.2117 70.5826 67.5291 70.5533 67.8904C70.524 68.2517 70.2066 68.5154 69.8453 68.4861C67.6285 68.2908 65.6802 67.6219 64.0445 66.406C62.4185 65.1853 61.1148 63.4324 60.1822 61.0691ZM56.0122 53.159C63.4292 49.8142 71.1197 46.2058 75.0699 46.3279C74.1177 43.618 72.9996 40.7517 71.8033 37.7732C70.3482 34.1502 70.3335 34.1551 67.6285 34.7361C67.1304 34.8435 66.564 34.9656 65.9927 35.0779L56.9839 36.8553C56.5298 36.9822 56.1929 37.1824 55.9634 37.451C55.729 37.7244 55.5777 38.0857 55.5044 38.5398C55.5484 39.8582 55.5679 41.3182 55.5874 42.8416C55.6216 46.0935 55.6656 49.6775 56.0122 53.159ZM47.7701 58.1248C47.8189 57.7684 48.1509 57.5193 48.5074 57.573C48.8638 57.6219 49.1128 57.9539 49.0591 58.3103C48.6929 60.8201 47.8287 62.8269 46.5152 64.3846C45.2017 65.9471 43.4585 67.0457 41.3492 67.7391C41.0074 67.8514 40.6363 67.6658 40.524 67.324C40.4117 66.9822 40.5972 66.6111 40.939 66.4988C42.8287 65.8787 44.3716 64.9119 45.5191 63.5447C46.6763 62.1775 47.438 60.3904 47.7701 58.1248Z" fill="black"/>
</svg>
